<?xml version="1.0" encoding="UTF-8" standalone="no"?>
<!DOCTYPE svg PUBLIC "-//W3C//DTD SVG 1.1//EN" "http://www.w3.org/Graphics/SVG/1.1/DTD/svg11.dtd">
<svg width="100%" height="100%" viewBox="0 0 127 48" version="1.1" xmlns="http://www.w3.org/2000/svg" xmlns:xlink="http://www.w3.org/1999/xlink" xml:space="preserve" xmlns:serif="http://www.serif.com/" style="fill-rule:evenodd;clip-rule:evenodd;stroke-linejoin:round;stroke-miterlimit:2;">
    <g transform="matrix(0.0287687,0,0,-0.0287687,-5.78522,51.7081)">
        <g id="g730">
            <g id="g22">
                <g id="g28" transform="matrix(1,0,0,1,872.564,1127.95)">
                    <path id="path30" d="M0,0C-67.744,12.714 -134.377,-23.059 -164.572,-72.809C-163.294,-73.16 -162.089,-73.599 -160.845,-73.814C-132.008,-78.814 -103.431,-84.956 -75.296,-93.063C-72.654,-93.827 -70.469,-93.611 -68.054,-92.118C-59.49,-86.823 -50.203,-83.252 -40.214,-81.819C-37.466,-81.422 -36.034,-80.213 -34.817,-77.828C-22.541,-53.741 -11.172,-29.242 -1.315,-4.059C-0.801,-2.751 -0.442,-1.383 0,0M-116.5,-301.844C-116.058,-299.732 -115.638,-298.016 -115.336,-296.277C-110.57,-268.69 -104.659,-241.353 -96.915,-214.447C-95.701,-210.232 -96.06,-206.835 -98.279,-203.104C-104.383,-192.862 -107.898,-181.731 -108.472,-169.773C-108.608,-166.866 -109.701,-165.275 -112.494,-164.05C-136.207,-153.66 -160.195,-143.985 -184.724,-135.677C-186.176,-135.186 -187.669,-134.804 -189.177,-134.362C-202.447,-204.299 -167.41,-269.975 -116.5,-301.844M137.465,-189.702C143.165,-151.843 137.579,-116.406 119.274,-83.618C103.998,-56.251 82.991,-33.986 54.357,-18.542C53.669,-23.497 53.057,-27.727 52.498,-31.967C49.149,-57.328 44.787,-82.515 39.322,-107.505C38.691,-110.396 38.959,-112.694 40.743,-115.136C48.265,-125.427 53.348,-136.796 55.196,-149.48C55.559,-151.963 56.757,-153.335 59.006,-154.481C83.255,-166.775 107.811,-178.39 133.198,-188.175C134.37,-188.625 135.564,-189.026 137.465,-189.702M-55.003,-325.705C-38.71,-331.62 7.975,-329.272 36.843,-316.819C72.053,-301.625 99.012,-277.587 118.783,-243.934C114.524,-243.284 111.092,-242.68 107.641,-242.245C81.948,-238.995 56.455,-234.595 31.151,-229.126C27.05,-228.242 23.887,-228.692 20.334,-231.039C10.212,-237.721 -0.465,-243.277 -12.839,-244.592C-16.486,-244.978 -20.107,-245.616 -23.792,-246.149C-35.509,-272.319 -46.193,-298.639 -55.003,-325.705M26.483,84.631C-14.332,93.562 -54.474,91.676 -93.917,81.116C-147.42,66.788 -190.738,36.378 -225.362,-6.69C-237.959,-22.352 -257.11,-54.818 -257.635,-62.086C-256.516,-62.188 -255.398,-62.279 -254.279,-62.385C-241.629,-63.591 -228.964,-64.668 -216.329,-66.043C-205.618,-67.211 -194.933,-68.636 -184.259,-70.137C-181.183,-70.568 -179.263,-69.865 -177.407,-67.192C-173.008,-60.85 -168.291,-54.716 -163.525,-48.635C-141.555,-20.583 -112.826,-2.491 -79.219,8.375C-64.872,13.017 -50.022,14.744 -35.074,15.859C-24.442,16.653 -13.841,16.331 -3.269,14.937C-0.45,14.563 2.377,14.215 5.201,13.852C13.705,37.149 21.018,60.265 26.483,84.631M-127.616,-395.274C-127.336,-393.388 -127.064,-391.994 -126.928,-390.584C-125.643,-377.129 -124.498,-363.659 -123.065,-350.219C-122.056,-340.785 -120.809,-331.366 -119.35,-321.989C-118.783,-318.338 -119.38,-315.832 -122.812,-314.033C-124.928,-312.926 -126.762,-311.267 -128.7,-309.831C-141.014,-300.722 -153.124,-291.334 -162.988,-279.511C-198.134,-237.381 -210.852,-188.927 -203.373,-134.869C-203.153,-133.304 -203.044,-131.724 -202.847,-129.804C-226.424,-122.385 -249.978,-115.831 -274.016,-111.039C-300.389,-235.196 -231.7,-349.674 -127.616,-395.274M150.901,-194.445C161.851,-199.684 209.378,-214.008 221.329,-215.596C247.09,-101.042 186.384,23.645 70.768,70.579C66.214,45.8 61.659,21.018 56.992,-4.377C91.627,-22.25 117.392,-49.164 134.846,-84.011C152.383,-119.01 155.996,-156.113 150.901,-194.445M-78.35,-410.785C-28.826,-423.039 44.062,-418.318 104.75,-380.254C151.37,-351.02 186.799,-311.694 207.719,-260.296C182.547,-255.591 157.928,-250.987 132.752,-246.282C120.454,-268.581 105.094,-288.608 84.571,-304.362C64.014,-320.149 41.582,-332.19 16.124,-337.606C-8.848,-342.917 -34.084,-344.818 -59.225,-339.636C-63.428,-349.587 -74.612,-391.344 -78.35,-410.785M-272.561,-60.673C-256.116,-22.719 -233.352,11.233 -201.43,38.608C-169.614,65.889 -133.565,85.266 -92.969,95.528C-52.528,105.751 -11.633,106.753 29.204,98.2C33.086,109.183 41.329,165.725 40.184,172.777C-149.397,210.157 -310.099,85.95 -352.29,-58.957C-326.113,-59.52 -299.905,-60.083 -272.561,-60.673M-362.2,-97.383C-376.074,-159.953 -372.839,-257.148 -317.522,-344.217C-272.757,-414.675 -210.939,-464.107 -130.345,-489.305C-130.242,-488.084 -130.091,-487 -130.069,-485.915C-129.555,-461.616 -129.101,-437.314 -128.474,-413.015C-128.409,-410.585 -129.369,-409.572 -131.274,-408.65C-136.634,-406.057 -141.936,-403.34 -147.269,-400.694C-174.641,-387.114 -199.079,-369.604 -219.953,-347.157C-236.939,-328.894 -251.512,-308.961 -263.063,-286.843C-280.52,-253.414 -290.51,-217.973 -292.569,-180.215C-293.715,-159.216 -293.151,-138.41 -289.421,-117.706C-288.862,-114.603 -288.457,-111.473 -287.943,-108.113C-312.888,-103.279 -337.444,-99.557 -362.2,-97.383M-91.706,-499.597C93.532,-535.502 254.933,-417.396 299.913,-267.591C274.144,-265.81 248.349,-264.026 221.877,-262.197C209.076,-289.958 194.835,-317.495 173.575,-340.721C152.292,-363.965 128.186,-383.607 100.365,-398.487C72.756,-413.257 43.597,-423.545 12.393,-427.495C-18.758,-431.441 -49.829,-431.611 -80.545,-424.728C-83.633,-431.811 -92.285,-490.144 -91.706,-499.597M72.809,85.107C73.55,84.695 74.498,84.113 75.496,83.63C82.148,80.383 88.815,77.167 95.467,73.924C125.39,59.339 151.189,39.379 173.204,14.442C201.044,-17.091 220.91,-52.925 231.995,-93.577C236.935,-111.696 239.055,-130.22 240.265,-148.872C241.489,-167.728 240.794,-186.516 237.555,-205.172C236.769,-209.722 236.066,-214.284 235.279,-219.129C260.27,-224.198 284.886,-228.404 310.318,-230.438C325.739,-141.721 312.968,-58.311 264.956,17.737C220.498,88.146 158.51,137.499 78.301,162.516C76.494,137.08 74.676,111.443 72.809,85.107M78.437,177.933C85.996,175.136 93.54,172.373 101.061,169.568C175.877,141.653 233.65,92.84 276.242,25.791C292.346,0.438 304.758,-26.804 313.928,-55.476C318.35,-69.29 321.895,-83.327 324.401,-97.595C327.908,-117.604 329.45,-137.854 330.153,-158.124C330.932,-180.544 328.929,-202.828 324.975,-224.923C324.593,-227.059 324.318,-229.213 323.947,-231.659C349.342,-233.613 374.045,-234.161 399.129,-233.56C415.514,-121.417 395.358,-17.254 331.638,76.328C269.223,167.989 184.071,228.9 75.186,255.341C76.271,229.512 77.344,203.981 78.437,177.933M-367.404,-59.206C-365.866,-55.034 -364.263,-50.835 -362.759,-46.605C-350.906,-13.217 -335.792,18.444 -314.392,46.934C-297.895,68.897 -279.572,89.148 -258.898,107.191C-231.908,130.753 -201.77,149.439 -168.971,163.831C-142.636,175.381 -115.472,184.346 -86.903,188.126C-69.694,190.405 -52.335,191.633 -35.014,192.945C-15.995,194.385 2.933,192.737 21.789,190.231C28.445,189.347 35.07,188.228 42.051,187.166C43.892,212.145 45.022,236.806 43.96,261.46C-50.71,278.23 -178.836,262.666 -284.579,181.296C-366.259,118.447 -421.266,37.912 -445.33,-63.394C-419.127,-61.984 -393.611,-60.616 -367.404,-59.206M314.43,-267.746C287.49,-354.028 235.279,-421.296 157.871,-468.484C80.273,-515.788 -3.957,-528.212 -93.369,-513.872C-95.218,-538.817 -96.469,-563.596 -95.762,-588.374C160.335,-629.473 355.453,-444.174 391.994,-264.503C366.474,-265.568 340.955,-266.634 314.43,-267.746M-451.136,-93.468C-467.407,-185.786 -453.313,-313.542 -372.045,-420.238C-309.128,-502.836 -227.966,-558.134 -126.043,-582.334C-127.457,-556.086 -128.84,-530.415 -130.239,-504.51C-131.448,-504.026 -132.76,-503.456 -134.101,-502.968C-152.859,-496.157 -171.625,-489.335 -189.453,-480.299C-228.404,-460.558 -262.114,-433.912 -291.326,-401.605C-326.634,-362.559 -351.681,-317.59 -367.495,-267.42C-375.084,-243.345 -379.087,-218.612 -380.935,-193.497C-381.691,-183.224 -382.775,-172.932 -382.745,-162.652C-382.692,-146.237 -381.921,-129.823 -379.283,-113.563C-378.365,-107.902 -377.571,-102.221 -376.656,-96.132C-401.654,-94.133 -426.195,-93.214 -451.136,-93.468M489.23,-228.023C489.475,-227.229 489.687,-226.783 489.747,-226.318C491.928,-210.028 493.361,-193.667 493.482,-177.241C493.572,-165.014 493.089,-152.78 492.635,-140.557C491.921,-121.247 490.326,-102.002 487.499,-82.885C480.884,-38.192 467.66,4.573 449.783,45.974C420.518,113.741 377.235,171.368 322.923,220.966C303.05,239.119 282.21,256.116 259.771,271.037C226.942,292.876 191.838,310.28 154.987,324.231C126.146,335.15 96.174,341.858 66.119,348.268C65.114,348.48 64.025,348.295 63.167,348.295C66.762,322.129 70.299,296.353 73.86,270.399C77.684,269.322 81.532,268.176 85.414,267.163C109.886,260.776 133.856,252.752 156.862,242.34C218.098,214.624 270.489,174.981 313.841,123.575C362.109,66.346 393.834,0.983 409.323,-72.257C414.471,-96.582 416.394,-121.266 417.766,-146.037C419.184,-171.685 418.148,-197.201 414.523,-222.622C414.036,-226.038 413.688,-229.474 413.223,-233.333C439.09,-232.18 464.251,-230.77 489.23,-228.023M38.498,352.26C37.315,352.558 36.552,352.864 35.769,352.928C22.779,353.998 9.797,355.234 -3.213,356.039C-21.891,357.192 -40.558,356.168 -59.202,355.022C-78.161,353.858 -97.085,352.203 -115.835,349.047C-146.222,343.929 -175.733,335.58 -204.684,325.119C-284.262,296.375 -351.749,249.721 -408.907,187.654C-445.708,147.693 -476.368,103.646 -498.656,53.957C-506.064,37.425 -513.279,20.81 -518.944,3.591C-526.851,-20.436 -532.528,-45.048 -537.619,-69.8C-537.925,-71.289 -538.144,-72.794 -538.424,-74.4C-512.054,-71.138 -486.244,-67.948 -460.131,-64.721C-459.64,-63.239 -459.027,-61.595 -458.547,-59.917C-456.828,-53.877 -455.123,-47.837 -453.468,-41.783C-443.785,-6.372 -430.08,27.383 -411.67,59.165C-399.137,80.803 -384.756,101.178 -368.863,120.472C-351.413,141.66 -332.156,161.083 -310.979,178.556C-239.271,237.728 -157.172,271.672 -64.505,280.033C-34.212,282.765 -4.04,281.756 26.101,278.169C31.793,277.489 37.504,276.975 43.642,276.336C42.883,302.105 41.174,327.228 38.498,352.26M407.278,-263.123C405.857,-268.105 404.307,-273.324 402.883,-278.581C393.793,-312.087 381.823,-344.428 365,-374.918C340.354,-419.588 309.46,-459.288 271.567,-493.455C234.293,-527.055 192.556,-553.727 146.268,-573.162C115.461,-586.099 83.701,-596.005 50.691,-601.353C20.632,-606.225 -9.679,-608.285 -40.157,-607.567C-55.612,-607.2 -70.995,-606.021 -86.294,-603.768C-89.246,-603.33 -92.236,-603.118 -95.679,-602.751C-95.017,-628.464 -93.638,-653.624 -90.833,-679.404C42.765,-694.084 164.844,-664.135 275.184,-587.237C388.411,-502.855 460.989,-392.935 485.73,-252.529C459.473,-256.074 433.576,-259.57 407.278,-263.123M-541.818,-98.517C-558.266,-223.68 -527.932,-382.685 -415.245,-507.568C-334.084,-597.513 -234.966,-654.214 -115.068,-675.311C-118.329,-648.9 -121.519,-623.097 -124.747,-596.988C-128.67,-595.907 -132.669,-594.735 -136.702,-593.703C-186.603,-580.959 -232.989,-560.5 -275.588,-531.375C-337.009,-489.385 -385.19,-435.632 -420,-369.929C-455.017,-303.832 -471.095,-233.11 -470.827,-158.51C-470.759,-138.848 -469.236,-119.274 -466.363,-99.814C-466.095,-97.988 -466.053,-96.132 -465.876,-93.929C-491.701,-94.258 -516.824,-95.966 -541.818,-98.517M-630.179,-91.442C-628.683,-91.329 -627.874,-91.34 -627.092,-91.192C-603.398,-86.683 -579.711,-82.137 -556.006,-77.666C-553.81,-77.25 -552.65,-76.229 -552.23,-74.018C-551.297,-69.12 -550.212,-64.248 -549.184,-59.369C-544.18,-35.611 -538.39,-12.053 -530.963,11.074C-524.852,30.108 -517.149,48.533 -508.282,66.406C-439.91,204.295 -332.897,297.876 -186.561,346.114C-161.461,354.387 -135.829,360.726 -109.584,364.014C-92.19,366.191 -74.68,367.499 -57.207,369.003C-29.208,371.414 -1.232,370.942 26.71,367.937C29.979,367.585 33.271,367.419 36.93,367.14C34.277,392.84 30.58,417.751 26.377,442.481C-101.59,454.144 -270.618,424.191 -411.182,307.404C-536.224,203.516 -608.814,70.303 -630.179,-91.442M60.401,363.689C63.167,363.092 65.983,362.46 68.81,361.878C91.967,357.094 115.121,352.218 137.673,345.01C201.271,324.692 258.739,292.966 310.511,250.968C366.769,205.33 411.848,150.384 445.75,86.362C485.167,11.94 505.587,-67.442 507.356,-151.635C507.817,-173.56 506.529,-195.405 504.533,-217.225C504.257,-220.207 504.17,-223.208 503.966,-226.677C529.693,-223.627 554.789,-220.441 580.188,-215.645C590.192,-52.418 548.232,94.36 444.533,221.579C322.424,371.391 159.163,429.248 43.449,440.508C49.058,415.09 54.66,389.711 60.401,363.689M-112.785,-689.938C-120.828,-688.199 -128.829,-686.494 -136.823,-684.737C-162.44,-679.102 -187.854,-672.748 -212.489,-663.583C-254.812,-647.834 -294.304,-626.71 -331.359,-600.986C-367.646,-575.796 -400.195,-546.399 -429.154,-513.06C-464.455,-472.422 -493.096,-427.529 -514.722,-378.202C-529.954,-343.453 -541.701,-307.593 -549.282,-270.38C-553.663,-248.889 -556.135,-227.153 -557.677,-205.311C-558.652,-191.509 -559.381,-177.672 -559.714,-163.839C-560.156,-145.478 -559.041,-127.155 -557.076,-108.888C-556.77,-106.076 -556.626,-103.249 -556.411,-100.426C-565.72,-100.127 -626.082,-108.96 -632.039,-111.39C-646.862,-288.703 -585.744,-477.479 -434.627,-613.924C-338.838,-700.414 -226.594,-751.631 -98.007,-766.828C-102.985,-740.927 -107.868,-715.529 -112.785,-689.938M-78.629,-768.983C65.87,-781.621 252.45,-743.286 400.237,-596.848C501.702,-496.312 560.693,-374.755 577.765,-232.702C551.838,-238.435 526.432,-244.059 500.765,-249.736C500.364,-251.289 499.88,-252.971 499.495,-254.672C496.52,-267.855 493.614,-281.053 490.59,-294.225C485.975,-314.328 480.129,-334.088 472.8,-353.348C464.149,-376.086 453.744,-398.048 442.001,-419.373C412.758,-472.467 375.715,-519.394 330.663,-559.941C290.891,-595.733 246.803,-625.085 198.191,-647.482C148.913,-670.19 97.603,-686.162 43.533,-692.13C14.43,-695.342 -14.782,-697.671 -44.122,-696.45C-54.41,-696.023 -64.679,-695.248 -74.952,-694.568C-79.551,-694.258 -84.144,-693.789 -89.39,-693.339C-86.699,-719.078 -83.168,-744.147 -78.629,-768.983M601.002,-164.965C600.949,-512.379 319.586,-793.512 -28.422,-792.813C-373.825,-792.117 -655.355,-513.468 -655.037,-164.16C-654.72,184.668 -372.763,463.967 -25.674,463.185C322.825,462.395 600.884,180.272 601.002,-164.965" style="fill:rgb(156,163,175);fill-rule:nonzero;"/>
                </g>
                <g id="g32" transform="matrix(1,0,0,1,1787.07,1065.3)">
                    <path id="path34" d="M0,0C0,31.744 2.869,80.16 4.441,111.908L1.293,111.908C-11.289,83.679 -25.451,55.994 -39.617,27.489L-105.188,-81.574L165.513,-81.574L165.513,-169.716L-216.011,-169.716L-216.011,-89.718L-33.623,210.694L107.864,210.694L107.864,-288.911L0,-288.911L0,0Z" style="fill:rgb(156,163,175);fill-rule:nonzero;"/>
                </g>
                <g id="g36" transform="matrix(1,0,0,1,1995.43,837.195)">
                    <path id="path38" d="M0,0L52.033,73.058C81.929,45.475 117.377,23.082 159.938,23.082C211.015,23.082 243.851,50.188 243.851,101.446C243.851,151.404 211.657,178.696 165.4,178.696C136.433,178.696 121.353,172.312 91.457,153.158L39.889,186.486L53.586,438.799L336.918,438.799L336.918,341.575L153.396,341.575L145.168,247.873C164.13,255.965 180.14,259.34 200.678,259.34C286.934,259.34 359.777,210.561 359.777,104.311C359.777,-6.573 273.974,-70.246 176.512,-70.246C94.964,-70.246 39.243,-39.243 0,0" style="fill:rgb(156,163,175);fill-rule:nonzero;"/>
                </g>
                <g id="g40" transform="matrix(1,0,0,1,2589.86,829.086)">
                    <path id="path42" d="M0,0C118.057,0 176.946,73.98 176.946,201.653C176.946,329.322 118.057,399.666 0,399.666L-57.301,399.666L-57.301,0L0,0ZM-121.568,452.36L4.781,452.36C160.071,452.36 243.326,362.109 243.326,201.653C243.326,41.197 160.071,-52.698 7.612,-52.698L-121.568,-52.698L-121.568,452.36Z" style="fill:rgb(156,163,175);fill-rule:nonzero;"/>
                </g>
                <g id="g44" transform="matrix(1,0,0,1,2941.78,1150.45)">
                    <path id="path46" d="M0,0L52.29,0L57.634,-68.118L59.743,-68.118C85.78,-20.659 124.01,9.237 166.091,9.237C182.653,9.237 194.279,7.136 206.022,1.542L194.207,-53.991C181.327,-49.935 172.906,-47.83 157.92,-47.83C126.327,-47.83 88.581,-70.594 63.296,-133.871L63.296,-374.064L0,-374.064L0,0Z" style="fill:rgb(156,163,175);fill-rule:nonzero;"/>
                </g>
                <path id="path48" d="M3214.95,1150.45L3278.24,1150.45L3278.24,776.387L3214.95,776.387L3214.95,1150.45ZM3203.36,1268.24C3203.36,1293.09 3222.47,1309.13 3247.08,1309.13C3271.69,1309.13 3290.8,1293.09 3290.8,1268.24C3290.8,1244.35 3271.69,1227.34 3247.08,1227.34C3222.47,1227.34 3203.36,1244.35 3203.36,1268.24" style="fill:rgb(156,163,175);fill-rule:nonzero;"/>
                <g id="g50" transform="matrix(1,0,0,1,3356.51,1150.45)">
                    <path id="path52" d="M0,0L65.246,0L135.98,-212.5C147.156,-249.033 159.307,-287.1 170.491,-322.817L173.571,-322.817C184.747,-287.1 196.898,-249.033 208.082,-212.5L278.82,0L340.819,0L208.535,-374.064L134.959,-374.064L0,0Z" style="fill:rgb(156,163,175);fill-rule:nonzero;"/>
                </g>
                <g id="g54" transform="matrix(1,0,0,1,4006.53,993.543)">
                    <path id="path56" d="M0,0C0,74.959 -33.71,115.71 -92.205,115.71C-144.797,115.71 -191.788,73.493 -199.491,0L0,0ZM-261.494,-30.61C-261.494,91.136 -179.444,166.144 -93.339,166.144C2.071,166.144 55.937,97.625 55.937,-9.381C55.937,-22.741 54.803,-36.098 52.981,-45.335L-198.924,-45.335C-194.392,-124.577 -145.939,-175.96 -74.638,-175.96C-38.748,-175.96 -9.26,-164.372 18.444,-146.064L41.114,-187.597C8.311,-209.053 -31.536,-226.394 -82.413,-226.394C-182.116,-226.394 -261.494,-153.487 -261.494,-30.61" style="fill:rgb(156,163,175);fill-rule:nonzero;"/>
                </g>
                <g id="g58" transform="matrix(1,0,0,1,4119.17,819.076)">
                    <path id="path60" d="M0,0L31.257,41.692C63.73,15.523 96.748,-2.623 141.672,-2.623C190.779,-2.623 215.169,23.554 215.169,55.48C215.169,93.97 171.012,110.982 129.623,126.372C77.204,145.534 18.062,171.326 18.062,234.429C18.062,294.278 66.013,340.611 147.092,340.611C193.652,340.611 234.399,321.54 263.395,298.579L233.118,258.021C207.36,277.054 180.911,291.311 147.814,291.311C100.694,291.311 78.943,266.188 78.943,237.668C78.943,202.099 119.607,188.564 161.972,172.766C215.928,152.432 276.034,130.488 276.034,59.282C276.034,-1.38 227.845,-51.927 139.567,-51.927C86.426,-51.927 35.161,-29.405 0,0" style="fill:rgb(156,163,175);fill-rule:nonzero;"/>
                </g>
                <g id="g62" transform="matrix(1,0,0,1,1632.42,555.454)">
                    <path id="path64" d="M0,0L9.759,11.191C18.981,1.625 31.786,-4.687 45.105,-4.687C61.916,-4.687 71.89,3.693 71.89,16.142C71.89,29.223 62.612,33.4 50.517,38.68L32.111,46.798C20.171,51.893 6.168,60.945 6.168,79.793C6.168,99.364 23.225,113.798 46.503,113.798C61.689,113.798 75.232,107.221 84.234,97.924L75.587,87.451C67.733,94.862 58.341,99.466 46.503,99.466C32.134,99.466 22.617,92.217 22.617,80.757C22.617,68.409 33.789,63.795 43.827,59.554L62.086,51.651C76.913,45.279 88.483,36.446 88.483,17.393C88.483,-2.846 71.754,-19.019 44.818,-19.019C26.835,-19.019 11.199,-11.683 0,0" style="fill:rgb(156,163,175);fill-rule:nonzero;"/>
                </g>
                <g id="g66" transform="matrix(1,0,0,1,1742.6,568.118)">
                    <path id="path68" d="M0,0L0,52.479L-14.12,52.479L-14.12,64.637L0.718,65.56L2.646,92.175L16.063,92.175L16.063,65.56L41.768,65.56L41.768,52.479L16.063,52.479L16.063,-0.276C16.063,-11.883 19.797,-18.603 30.731,-18.603C34.103,-18.603 38.461,-17.329 41.545,-16.055L44.648,-28.169C39.322,-29.979 32.965,-31.684 27.035,-31.684C6.841,-31.684 0,-18.883 0,0" style="fill:rgb(156,163,175);fill-rule:nonzero;"/>
                </g>
                <g id="g70" transform="matrix(1,0,0,1,1867.36,586.103)">
                    <path id="path72" d="M0,0C0,21.747 -11.059,36.548 -27.383,36.548C-43.703,36.548 -54.762,21.747 -54.762,0C-54.762,-21.747 -43.703,-36.302 -27.383,-36.302C-11.059,-36.302 0,-21.747 0,0M-71.357,0C-71.357,31.669 -50.646,49.916 -27.383,49.916C-4.12,49.916 16.596,31.669 16.596,0C16.596,-31.419 -4.12,-49.671 -27.383,-49.671C-50.646,-49.671 -71.357,-31.419 -71.357,0" style="fill:rgb(156,163,175);fill-rule:nonzero;"/>
                </g>
                <g id="g74" transform="matrix(1,0,0,1,1908.88,633.676)">
                    <path id="path76" d="M0,0L13.27,0L14.619,-17.28L15.16,-17.28C21.763,-5.242 31.461,2.343 42.138,2.343C46.341,2.343 49.289,1.81 52.267,0.393L49.274,-13.697C46.001,-12.669 43.865,-12.132 40.063,-12.132C32.05,-12.132 22.469,-17.911 16.063,-33.963L16.063,-94.9L0,-94.9L0,0Z" style="fill:rgb(156,163,175);fill-rule:nonzero;"/>
                </g>
                <g id="g78" transform="matrix(1,0,0,1,2024.35,561.931)">
                    <path id="path80" d="M0,0L0,26.355C-31.805,22.53 -42.554,14.74 -42.554,2.612C-42.554,-8.171 -35.236,-12.559 -25.924,-12.559C-16.758,-12.559 -9.192,-8.1 0,-0M-58.284,1.485C-58.284,22.159 -40.445,32.493 0,36.892C-0.038,49.104 -4.089,60.862 -19.589,60.862C-30.561,60.862 -40.452,55.661 -47.887,50.691L-54.172,61.697C-45.441,67.427 -32.126,74.09 -16.898,74.09C6.259,74.09 16.055,58.696 16.055,35.066L16.055,-23.153L2.793,-23.153L1.436,-11.811L0.903,-11.811C-8.141,-19.332 -18.701,-25.497 -30.478,-25.497C-46.367,-25.497 -58.284,-15.64 -58.284,1.485" style="fill:rgb(156,163,175);fill-rule:nonzero;"/>
                </g>
                <g id="g82" transform="matrix(1,0,0,1,2122.51,602.214)">
                    <path id="path84" d="M0,0C0,13.791 -8.984,22.159 -20.164,22.159C-31.347,22.159 -40.331,13.916 -40.331,0C-40.331,-13.814 -31.102,-22.549 -20.164,-22.549C-9.23,-22.549 0,-13.814 0,0M12.174,-76.694C12.174,-67.918 5.507,-64.917 -6.958,-64.917L-23.335,-64.917C-26.944,-64.917 -31.446,-64.528 -35.664,-63.496C-42.444,-68.307 -45.347,-73.962 -45.347,-79.412C-45.347,-89.605 -35.063,-96.042 -17.82,-96.042C0.265,-96.042 12.174,-86.604 12.174,-76.694M-59.354,-81.668C-59.354,-73.542 -54.172,-65.885 -45.437,-60.212L-45.437,-59.433C-50.271,-56.409 -53.926,-51.334 -53.926,-43.873C-53.926,-36.004 -48.397,-29.715 -43.491,-26.264L-43.491,-25.482C-49.776,-20.549 -55.778,-11.323 -55.778,-0C-55.778,20.757 -39.42,33.804 -20.164,33.804C-14.944,33.804 -10.22,32.776 -6.769,31.461L26.34,31.461L26.34,19.098L6.849,19.098C11.335,14.782 14.581,7.669 14.581,-0.427C14.581,-20.753 -0.767,-33.332 -20.164,-33.332C-24.771,-33.332 -30.009,-32.202 -34.307,-30.115C-37.739,-32.984 -40.35,-36.129 -40.35,-41.329C-40.35,-47.35 -36.446,-51.628 -23.72,-51.628L-5.254,-51.628C16.804,-51.628 27.904,-58.552 27.904,-74.294C27.904,-91.926 9.241,-107.112 -20.081,-107.112C-43.328,-107.112 -59.354,-98.007 -59.354,-81.668" style="fill:rgb(156,163,175);fill-rule:nonzero;"/>
                </g>
                <g id="g86" transform="matrix(1,0,0,1,2225.31,593.869)">
                    <path id="path88" d="M0,0C0,19.019 -8.553,29.356 -23.395,29.356C-36.741,29.356 -48.661,18.644 -50.615,0L0,0ZM-66.346,-7.767C-66.346,23.119 -45.528,42.149 -23.686,42.149C0.522,42.149 14.185,24.767 14.185,-2.381C14.185,-5.771 13.901,-9.162 13.436,-11.501L-50.468,-11.501C-49.319,-31.608 -37.032,-44.644 -18.939,-44.644C-9.834,-44.644 -2.351,-41.7 4.675,-37.058L10.424,-47.592C2.109,-53.038 -8.001,-57.434 -20.908,-57.434C-46.208,-57.434 -66.346,-38.94 -66.346,-7.767" style="fill:rgb(156,163,175);fill-rule:nonzero;"/>
                </g>
                <g id="g90" transform="matrix(1,0,0,1,2294.12,555.454)">
                    <path id="path92" d="M0,0L9.755,11.191C18.981,1.625 31.786,-4.687 45.105,-4.687C61.92,-4.687 71.89,3.693 71.89,16.142C71.89,29.223 62.612,33.4 50.517,38.68L32.111,46.798C20.171,51.893 6.168,60.945 6.168,79.793C6.168,99.364 23.225,113.798 46.503,113.798C61.686,113.798 75.232,107.221 84.231,97.924L75.583,87.451C67.733,94.862 58.341,99.466 46.503,99.466C32.134,99.466 22.617,92.217 22.617,80.757C22.617,68.409 33.785,63.795 43.827,59.554L62.086,51.651C76.913,45.279 88.483,36.446 88.483,17.393C88.483,-2.846 71.754,-19.019 44.818,-19.019C26.835,-19.019 11.199,-11.683 0,0" style="fill:rgb(156,163,175);fill-rule:nonzero;"/>
                </g>
                <g id="g94" transform="matrix(1,0,0,1,2470.48,586.103)">
                    <path id="path96" d="M0,0C0,21.747 -11.059,36.548 -27.383,36.548C-43.703,36.548 -54.762,21.747 -54.762,0C-54.762,-21.747 -43.703,-36.302 -27.383,-36.302C-11.059,-36.302 0,-21.747 0,0M-71.357,0C-71.357,31.669 -50.638,49.916 -27.383,49.916C-4.123,49.916 16.596,31.669 16.596,0C16.596,-31.419 -4.123,-49.671 -27.383,-49.671C-50.638,-49.671 -71.357,-31.419 -71.357,0" style="fill:rgb(156,163,175);fill-rule:nonzero;"/>
                </g>
                <g id="g98" transform="matrix(1,0,0,1,2511.21,557.838)">
                    <path id="path100" d="M0,0L0,120.026L16.063,120.026L16.063,-1.172C16.063,-6.081 18.198,-8.035 20.538,-8.035C21.464,-8.035 22.25,-8.035 24.053,-7.642L26.23,-19.907C23.955,-20.727 21.199,-21.403 16.989,-21.403C4.955,-21.403 0,-13.723 0,0" style="fill:rgb(156,163,175);fill-rule:nonzero;"/>
                </g>
                <g id="g102" transform="matrix(1,0,0,1,2559.73,573.547)">
                    <path id="path104" d="M0,0L0,60.129L16.055,60.129L16.055,2.075C16.055,-15.606 21.4,-23.169 33.959,-23.169C43.665,-23.169 50.389,-18.357 59.373,-7.177L59.373,60.129L75.428,60.129L75.428,-34.772L62.162,-34.772L60.809,-19.914L60.272,-19.914C51.473,-30.27 42.002,-37.111 28.974,-37.111C8.976,-37.111 0,-24.212 0,0" style="fill:rgb(156,163,175);fill-rule:nonzero;"/>
                </g>
                <g id="g106" transform="matrix(1,0,0,1,2670.04,568.118)">
                    <path id="path108" d="M0,0L0,52.479L-14.12,52.479L-14.12,64.637L0.714,65.56L2.646,92.175L16.063,92.175L16.063,65.56L41.771,65.56L41.771,52.479L16.063,52.479L16.063,-0.276C16.063,-11.883 19.797,-18.603 30.731,-18.603C34.103,-18.603 38.461,-17.329 41.545,-16.055L44.648,-28.169C39.322,-29.979 32.965,-31.684 27.035,-31.684C6.845,-31.684 0,-18.883 0,0" style="fill:rgb(156,163,175);fill-rule:nonzero;"/>
                </g>
                <path id="path110" d="M2733.22,633.676L2749.28,633.676L2749.28,538.775L2733.22,538.775L2733.22,633.676ZM2730.28,663.557C2730.28,669.865 2735.13,673.935 2741.37,673.935C2747.61,673.935 2752.46,669.865 2752.46,663.557C2752.46,657.498 2747.61,653.182 2741.37,653.182C2735.13,653.182 2730.28,657.498 2730.28,663.557" style="fill:rgb(156,163,175);fill-rule:nonzero;"/>
                <g id="g112" transform="matrix(1,0,0,1,2845.55,586.103)">
                    <path id="path114" d="M0,0C0,21.747 -11.059,36.548 -27.383,36.548C-43.703,36.548 -54.762,21.747 -54.762,0C-54.762,-21.747 -43.703,-36.302 -27.383,-36.302C-11.059,-36.302 0,-21.747 0,0M-71.357,0C-71.357,31.669 -50.646,49.916 -27.383,49.916C-4.123,49.916 16.596,31.669 16.596,0C16.596,-31.419 -4.123,-49.671 -27.383,-49.671C-50.646,-49.671 -71.357,-31.419 -71.357,0" style="fill:rgb(156,163,175);fill-rule:nonzero;"/>
                </g>
                <g id="g116" transform="matrix(1,0,0,1,2887.07,633.676)">
                    <path id="path118" d="M0,0L13.27,0L14.619,-13.686L15.16,-13.686C24.2,-4.789 33.963,2.343 46.991,2.343C66.985,2.343 75.969,-10.56 75.969,-34.768L75.969,-94.9L59.909,-94.9L59.909,-36.843C59.909,-19.166 54.565,-11.599 42.006,-11.599C32.304,-11.599 25.58,-16.554 16.063,-26.177L16.063,-94.9L0,-94.9L0,0Z" style="fill:rgb(156,163,175);fill-rule:nonzero;"/>
                </g>
                <g id="g120" transform="matrix(1,0,0,1,2983.35,549.606)">
                    <path id="path122" d="M0,0L7.926,10.575C16.165,3.938 24.541,-0.665 35.936,-0.665C48.397,-0.665 54.58,5.975 54.58,14.075C54.58,23.841 43.385,28.157 32.878,32.062C19.582,36.922 4.581,43.468 4.581,59.475C4.581,74.661 16.747,86.415 37.315,86.415C49.126,86.415 59.46,81.574 66.818,75.749L59.135,65.461C52.604,70.288 45.895,73.905 37.493,73.905C25.542,73.905 20.024,67.533 20.024,60.299C20.024,51.269 30.338,47.841 41.087,43.831C54.777,38.672 70.023,33.105 70.023,15.039C70.023,-0.351 57.8,-13.172 35.403,-13.172C21.921,-13.172 8.912,-7.461 0,0" style="fill:rgb(156,163,175);fill-rule:nonzero;"/>
                </g>
                <g id="g124" transform="matrix(1,0,0,1,3154.84,551.713)">
                    <path id="path126" d="M0,0C21.91,0 34.825,7.895 34.825,25.16C34.825,40.951 22.405,48.166 0,48.166L-22.303,48.166L-22.303,0L0,0ZM-3.334,60.673C18.463,60.673 27.481,68.712 27.481,81.702C27.481,96.669 17.227,102.259 -2.593,102.259L-22.303,102.259L-22.303,60.673L-3.334,60.673ZM-38.608,115.196L-0.571,115.196C25.482,115.196 43.502,106.337 43.502,83.815C43.502,71.157 36.76,59.894 24.782,55.99L24.782,55.208C40.089,52.191 50.842,42.077 50.842,24.548C50.842,-0.627 30.913,-12.937 2.343,-12.937L-38.608,-12.937L-38.608,115.196Z" style="fill:rgb(156,163,175);fill-rule:nonzero;"/>
                </g>
                <g id="g128" transform="matrix(1,0,0,1,3217.28,499.832)">
                    <path id="path130" d="M0,0L3.148,12.794C5.027,12.155 7.937,11.376 10.382,11.376C21.086,11.376 27.851,19.967 31.775,31.748L33.936,38.755L-4.142,133.844L12.404,133.844L31.771,81.309C34.749,73.07 37.939,63.349 41.019,54.573L41.805,54.573C44.493,63.201 47.187,72.922 49.78,81.309L66.694,133.844L82.424,133.844L46.666,31.128C39.969,12.299 30.164,-1.954 11.138,-1.954C6.724,-1.954 3.065,-1.172 0,0" style="fill:rgb(156,163,175);fill-rule:nonzero;"/>
                </g>
                <g id="g132" transform="matrix(1,0,0,1,3349.25,555.454)">
                    <path id="path134" d="M0,0L9.755,11.191C18.981,1.625 31.786,-4.687 45.105,-4.687C61.92,-4.687 71.89,3.693 71.89,16.142C71.89,29.223 62.612,33.4 50.517,38.68L32.111,46.798C20.171,51.893 6.168,60.945 6.168,79.793C6.168,99.364 23.225,113.798 46.503,113.798C61.686,113.798 75.232,107.221 84.231,97.924L75.583,87.451C67.733,94.862 58.341,99.466 46.503,99.466C32.134,99.466 22.613,92.217 22.613,80.757C22.613,68.409 33.785,63.795 43.827,59.554L62.086,51.651C76.913,45.279 88.483,36.446 88.483,17.393C88.483,-2.846 71.754,-19.019 44.818,-19.019C26.835,-19.019 11.199,-11.683 0,0" style="fill:rgb(156,163,175);fill-rule:nonzero;"/>
                </g>
                <g id="g136" transform="matrix(1,0,0,1,3459.43,568.118)">
                    <path id="path138" d="M0,0L0,52.479L-14.12,52.479L-14.12,64.637L0.718,65.56L2.646,92.175L16.063,92.175L16.063,65.56L41.771,65.56L41.771,52.479L16.063,52.479L16.063,-0.276C16.063,-11.883 19.797,-18.603 30.735,-18.603C34.103,-18.603 38.461,-17.329 41.545,-16.055L44.648,-28.169C39.322,-29.979 32.965,-31.684 27.035,-31.684C6.845,-31.684 0,-18.883 0,0" style="fill:rgb(156,163,175);fill-rule:nonzero;"/>
                </g>
                <g id="g140" transform="matrix(1,0,0,1,3584.19,586.103)">
                    <path id="path142" d="M0,0C0,21.747 -11.059,36.548 -27.383,36.548C-43.703,36.548 -54.762,21.747 -54.762,0C-54.762,-21.747 -43.703,-36.302 -27.383,-36.302C-11.059,-36.302 0,-21.747 0,0M-71.357,0C-71.357,31.669 -50.646,49.916 -27.383,49.916C-4.123,49.916 16.596,31.669 16.596,0C16.596,-31.419 -4.123,-49.671 -27.383,-49.671C-50.646,-49.671 -71.357,-31.419 -71.357,0" style="fill:rgb(156,163,175);fill-rule:nonzero;"/>
                </g>
                <g id="g144" transform="matrix(1,0,0,1,3625.71,633.676)">
                    <path id="path146" d="M0,0L13.27,0L14.619,-17.28L15.16,-17.28C21.766,-5.242 31.461,2.343 42.138,2.343C46.341,2.343 49.289,1.81 52.267,0.393L49.274,-13.697C46.004,-12.669 43.865,-12.132 40.067,-12.132C32.05,-12.132 22.469,-17.911 16.063,-33.963L16.063,-94.9L0,-94.9L0,0Z" style="fill:rgb(156,163,175);fill-rule:nonzero;"/>
                </g>
                <g id="g148" transform="matrix(1,0,0,1,3741.18,561.931)">
                    <path id="path150" d="M0,0L0,26.355C-31.801,22.53 -42.554,14.74 -42.554,2.612C-42.554,-8.171 -35.233,-12.559 -25.924,-12.559C-16.758,-12.559 -9.192,-8.1 0,-0M-58.284,1.485C-58.284,22.159 -40.445,32.493 0,36.892C-0.038,49.104 -4.086,60.862 -19.589,60.862C-30.561,60.862 -40.448,55.661 -47.887,50.691L-54.172,61.697C-45.437,67.427 -32.126,74.09 -16.898,74.09C6.259,74.09 16.059,58.696 16.059,35.066L16.059,-23.153L2.793,-23.153L1.436,-11.811L0.903,-11.811C-8.141,-19.332 -18.701,-25.497 -30.478,-25.497C-46.367,-25.497 -58.284,-15.64 -58.284,1.485" style="fill:rgb(156,163,175);fill-rule:nonzero;"/>
                </g>
                <g id="g152" transform="matrix(1,0,0,1,3839.34,602.214)">
                    <path id="path154" d="M0,0C0,13.791 -8.984,22.159 -20.168,22.159C-31.351,22.159 -40.335,13.916 -40.335,0C-40.335,-13.814 -31.102,-22.549 -20.168,-22.549C-9.23,-22.549 0,-13.814 0,0M12.17,-76.694C12.17,-67.918 5.507,-64.917 -6.962,-64.917L-23.339,-64.917C-26.948,-64.917 -31.449,-64.528 -35.664,-63.496C-42.448,-68.307 -45.347,-73.962 -45.347,-79.412C-45.347,-89.605 -35.066,-96.042 -17.824,-96.042C0.261,-96.042 12.17,-86.604 12.17,-76.694M-59.357,-81.668C-59.357,-73.542 -54.176,-65.885 -45.441,-60.212L-45.441,-59.433C-50.271,-56.409 -53.93,-51.334 -53.93,-43.873C-53.93,-36.004 -48.401,-29.715 -43.491,-26.264L-43.491,-25.482C-49.78,-20.549 -55.778,-11.323 -55.778,-0C-55.778,20.757 -39.42,33.804 -20.168,33.804C-14.948,33.804 -10.224,32.776 -6.769,31.461L26.336,31.461L26.336,19.098L6.849,19.098C11.331,14.782 14.578,7.669 14.578,-0.427C14.578,-20.753 -0.767,-33.332 -20.168,-33.332C-24.775,-33.332 -30.013,-32.202 -34.311,-30.115C-37.742,-32.984 -40.35,-36.129 -40.35,-41.329C-40.35,-47.35 -36.45,-51.628 -23.72,-51.628L-5.257,-51.628C16.8,-51.628 27.901,-58.552 27.901,-74.294C27.901,-91.926 9.241,-107.112 -20.081,-107.112C-43.328,-107.112 -59.357,-98.007 -59.357,-81.668" style="fill:rgb(156,163,175);fill-rule:nonzero;"/>
                </g>
                <g id="g156" transform="matrix(1,0,0,1,3942.15,593.869)">
                    <path id="path158" d="M0,0C0,19.019 -8.557,29.356 -23.395,29.356C-36.741,29.356 -48.661,18.644 -50.615,0L0,0ZM-66.346,-7.767C-66.346,23.119 -45.528,42.149 -23.686,42.149C0.522,42.149 14.188,24.767 14.188,-2.381C14.188,-5.771 13.901,-9.162 13.436,-11.501L-50.472,-11.501C-49.319,-31.608 -37.032,-44.644 -18.939,-44.644C-9.834,-44.644 -2.351,-41.7 4.675,-37.058L10.424,-47.592C2.109,-53.038 -8.005,-57.434 -20.908,-57.434C-46.208,-57.434 -66.346,-38.94 -66.346,-7.767" style="fill:rgb(156,163,175);fill-rule:nonzero;"/>
                </g>
                <g id="g160" transform="matrix(1,0,0,1,4020.25,666.909)">
                    <path id="path162" d="M0,0L73.852,0L73.852,-13.799L16.301,-13.799L16.301,-53.949L64.845,-53.949L64.845,-67.748L16.301,-67.748L16.301,-114.331L75.806,-114.331L75.806,-128.134L0,-128.134L0,0Z" style="fill:rgb(156,163,175);fill-rule:nonzero;"/>
                </g>
                <g id="g164" transform="matrix(1,0,0,1,4133.32,588.302)">
                    <path id="path166" d="M0,0L-28.709,45.373L-11.293,45.373L1.406,24.556C4.32,19.332 7.54,13.969 10.7,8.75L11.478,8.75C14.351,13.969 17.182,19.332 20.054,24.556L31.646,45.373L48.386,45.373L19.672,-1.682L50.684,-49.527L33.275,-49.527L19.291,-27.47C15.991,-21.755 12.522,-15.9 8.976,-10.431L8.194,-10.431C4.936,-15.9 1.856,-21.683 -1.402,-27.47L-14.271,-49.527L-31.011,-49.527L0,0Z" style="fill:rgb(156,163,175);fill-rule:nonzero;"/>
                </g>
                <g id="g168" transform="matrix(1,0,0,1,4269.11,587.521)">
                    <path id="path170" d="M0,0C0,20.946 -7.151,34.987 -25.017,34.987C-33.052,34.987 -41.155,30.565 -50.381,22.035L-50.381,-27.708C-41.794,-34.923 -33.547,-37.572 -27.277,-37.572C-11.577,-37.572 0,-23.429 0,0M-66.444,46.156L-53.174,46.156L-51.825,35.203L-51.284,35.203C-42.705,42.334 -32.028,48.499 -21.033,48.499C3.481,48.499 16.596,29.469 16.596,0.144C16.596,-32.202 -2.827,-51.088 -24.506,-51.088C-33.199,-51.088 -42.1,-47.082 -50.812,-40.089L-50.381,-56.659L-50.381,-88.781L-66.444,-88.781L-66.444,46.156Z" style="fill:rgb(156,163,175);fill-rule:nonzero;"/>
                </g>
                <g id="g172" transform="matrix(1,0,0,1,4370.33,593.869)">
                    <path id="path174" d="M0,0C0,19.019 -8.553,29.356 -23.395,29.356C-36.737,29.356 -48.661,18.644 -50.612,0L0,0ZM-66.342,-7.767C-66.342,23.119 -45.524,42.149 -23.682,42.149C0.525,42.149 14.188,24.767 14.188,-2.381C14.188,-5.771 13.905,-9.162 13.44,-11.501L-50.468,-11.501C-49.315,-31.608 -37.028,-44.644 -18.939,-44.644C-9.831,-44.644 -2.347,-41.7 4.679,-37.058L10.428,-47.592C2.113,-53.038 -8.001,-57.434 -20.905,-57.434C-46.205,-57.434 -66.342,-38.94 -66.342,-7.767" style="fill:rgb(156,163,175);fill-rule:nonzero;"/>
                </g>
                <g id="g176" transform="matrix(1,0,0,1,4407.88,633.676)">
                    <path id="path178" d="M0,0L13.27,0L14.619,-17.28L15.16,-17.28C21.766,-5.242 31.461,2.343 42.138,2.343C46.341,2.343 49.289,1.81 52.267,0.393L49.27,-13.697C46.004,-12.669 43.865,-12.132 40.063,-12.132C32.047,-12.132 22.469,-17.911 16.059,-33.963L16.059,-94.9L0,-94.9L0,0Z" style="fill:rgb(156,163,175);fill-rule:nonzero;"/>
                </g>
                <g id="g180" transform="matrix(1,0,0,1,4478.44,568.118)">
                    <path id="path182" d="M0,0L0,52.479L-14.12,52.479L-14.12,64.637L0.714,65.56L2.646,92.175L16.059,92.175L16.059,65.56L41.768,65.56L41.768,52.479L16.059,52.479L16.059,-0.276C16.059,-11.883 19.793,-18.603 30.731,-18.603C34.099,-18.603 38.461,-17.329 41.541,-16.055L44.648,-28.169C39.322,-29.979 32.965,-31.684 27.035,-31.684C6.841,-31.684 0,-18.883 0,0" style="fill:rgb(156,163,175);fill-rule:nonzero;"/>
                </g>
                <g id="g184" transform="matrix(1,0,0,1,4529.15,549.606)">
                    <path id="path186" d="M0,0L7.926,10.575C16.169,3.938 24.541,-0.665 35.936,-0.665C48.401,-0.665 54.584,5.975 54.584,14.075C54.584,23.841 43.385,28.157 32.878,32.062C19.586,36.922 4.581,43.468 4.581,59.475C4.581,74.661 16.747,86.415 37.315,86.415C49.126,86.415 59.46,81.574 66.822,75.749L59.135,65.461C52.604,70.288 45.899,73.905 37.497,73.905C25.546,73.905 20.028,67.533 20.028,60.299C20.028,51.269 30.338,47.841 41.091,43.831C54.781,38.672 70.027,33.105 70.027,15.039C70.027,-0.351 57.804,-13.172 35.403,-13.172C21.921,-13.172 8.916,-7.461 0,0" style="fill:rgb(156,163,175);fill-rule:nonzero;"/>
                </g>
            </g>
        </g>
    </g>
</svg>
