<?xml version="1.0" encoding="UTF-8" standalone="no"?>
<!DOCTYPE svg PUBLIC "-//W3C//DTD SVG 1.1//EN" "http://www.w3.org/Graphics/SVG/1.1/DTD/svg11.dtd">
<svg width="100%" height="100%" viewBox="0 0 127 48" version="1.1" xmlns="http://www.w3.org/2000/svg" xmlns:xlink="http://www.w3.org/1999/xlink" xml:space="preserve" xmlns:serif="http://www.serif.com/" style="fill-rule:evenodd;clip-rule:evenodd;stroke-linejoin:round;stroke-miterlimit:2;">
    <g transform="matrix(0.404334,0,0,0.404334,15.5864,9.24181)">
        <path d="M53.6,2.35L69.5,2.35L69.5,70.45L53.6,70.45L53.6,63.35C46.6,71.45 38.1,72.55 33.2,72.55C12.2,72.55 0.2,55.05 0.2,36.35C0.2,14.15 15.4,0.55 33.4,0.55C38.4,0.55 47.2,1.85 53.6,10.25L53.6,2.35ZM16.5,36.75C16.5,48.45 23.9,58.45 35.4,58.45C45.4,58.45 54.7,51.15 54.7,36.95C54.7,22.05 45.5,14.95 35.4,14.95C23.9,14.85 16.5,24.65 16.5,36.75ZM88.4,2.35L104.3,2.35L104.3,8.45C106.1,6.35 108.7,4.05 110.9,2.75C114,0.95 117,0.45 120.6,0.45C124.5,0.45 128.7,1.05 133.1,3.65L126.6,18.05C123,15.75 120.1,15.65 118.5,15.65C115.1,15.65 111.7,16.15 108.6,19.35C104.2,24.05 104.2,30.55 104.2,35.05L104.2,70.45L88.3,70.45L88.4,2.35ZM143.3,2.35L159.2,2.35L159.2,8.65C164.5,2.15 170.8,0.55 176,0.55C183.1,0.55 189.8,3.95 193.6,10.55C199.3,2.45 207.8,0.55 213.8,0.55C222.1,0.55 229.3,4.45 233.2,11.25C234.5,13.55 236.8,18.55 236.8,28.45L236.8,70.55L220.9,70.55L220.9,33.15C220.9,25.55 220.1,22.45 219.4,21.05C218.4,18.45 216,15.05 210.3,15.05C206.4,15.05 203,17.15 200.9,20.05C198.1,23.95 197.8,29.75 197.8,35.55L197.8,70.65L181.9,70.65L181.9,33.15C181.9,25.55 181.1,22.45 180.4,21.05C179.4,18.45 177,15.05 171.3,15.05C167.4,15.05 164,17.15 161.9,20.05C159.1,23.95 158.8,29.75 158.8,35.55L158.8,70.65L143.3,70.65L143.3,2.35Z" style="fill:rgb(156,163,175);fill-rule:nonzero;"/>
    </g>
</svg>
