<?xml version="1.0" encoding="UTF-8" standalone="no"?>
<!DOCTYPE svg PUBLIC "-//W3C//DTD SVG 1.1//EN" "http://www.w3.org/Graphics/SVG/1.1/DTD/svg11.dtd">
<svg width="100%" height="100%" viewBox="0 0 127 48" version="1.1" xmlns="http://www.w3.org/2000/svg" xmlns:xlink="http://www.w3.org/1999/xlink" xml:space="preserve" xmlns:serif="http://www.serif.com/" style="fill-rule:evenodd;clip-rule:evenodd;stroke-linejoin:round;stroke-miterlimit:2;">
    <g id="Layer-1" transform="matrix(0.249655,0,0,0.249655,-17.5004,-2.9612)">
        <g transform="matrix(1,0,0,-1,443.239,94.4047)">
            <path d="M0,0L-6.387,-18.197L6.567,-18.197L0.211,0L0,0ZM4.459,8.014L20.727,-35.188L12.473,-35.188L8.646,-24.463L-8.375,-24.463L-12.051,-35.188L-20.245,-35.188L-3.977,8.014L4.459,8.014Z" style="fill:rgb(156,163,175);fill-rule:nonzero;"/>
        </g>
        <g transform="matrix(1,0,0,-1,467.62,98.6225)">
            <path d="M0,0L24.734,0L24.734,-2.922L8.496,-25.187L24.824,-25.187L24.824,-30.971L-1.145,-30.971L-1.145,-27.506L14.853,-5.785L0,-5.785L0,0Z" style="fill:rgb(156,163,175);fill-rule:nonzero;"/>
        </g>
        <g>
            <g transform="matrix(1,0,0,-1,523.469,98.6225)">
                <path d="M0,0L0,-30.971L-7.352,-30.971L-7.352,-26.903L-7.472,-26.903C-8.436,-28.31 -9.727,-29.409 -11.343,-30.203C-12.96,-30.996 -14.772,-31.393 -16.781,-31.393C-20.376,-31.393 -23.113,-30.374 -24.99,-28.334C-26.869,-26.296 -27.808,-23.128 -27.808,-18.83L-27.808,0L-20.427,0L-20.427,-17.956C-20.427,-20.567 -19.909,-22.53 -18.875,-23.846C-17.841,-25.162 -16.279,-25.819 -14.19,-25.819C-12.122,-25.819 -10.465,-25.091 -9.219,-23.635C-7.974,-22.179 -7.352,-20.275 -7.352,-17.926L-7.352,0L0,0Z" style="fill:rgb(156,163,175);fill-rule:nonzero;"/>
            </g>
            <g transform="matrix(1,0,0,-1,545.421,98.1108)">
                <path d="M0,0C0.582,0 1.104,-0.04 1.566,-0.12C2.028,-0.201 2.42,-0.301 2.741,-0.421L2.741,-7.803C2.359,-7.521 1.803,-7.256 1.069,-7.004C0.336,-6.753 -0.553,-6.628 -1.597,-6.628C-3.385,-6.628 -4.896,-7.381 -6.131,-8.887C-7.366,-10.394 -7.983,-12.713 -7.983,-15.847L-7.983,-31.482L-15.274,-31.482L-15.274,-0.512L-7.983,-0.512L-7.983,-5.393L-7.863,-5.393C-7.2,-3.706 -6.196,-2.385 -4.851,-1.431C-3.505,-0.477 -1.888,0 0,0" style="fill:rgb(156,163,175);fill-rule:nonzero;"/>
            </g>
            <g transform="matrix(1,0,0,-1,569.734,110.974)">
                <path d="M0,0C0,2.41 -0.558,4.248 -1.672,5.513C-2.787,6.778 -4.358,7.411 -6.387,7.411C-8.135,7.411 -9.701,6.783 -11.087,5.528C-12.473,4.272 -13.396,2.43 -13.858,0L0,0ZM4.67,-10.816L4.67,-16.811C3.465,-17.575 1.888,-18.192 -0.061,-18.664C-2.009,-19.136 -4.087,-19.372 -6.297,-19.372C-11.017,-19.372 -14.687,-17.976 -17.308,-15.184C-19.929,-12.393 -21.239,-8.506 -21.239,-3.525C-21.239,1.275 -19.839,5.227 -17.037,8.33C-14.235,11.433 -10.686,12.984 -6.387,12.984C-2.109,12.984 1.22,11.674 3.601,9.053C5.98,6.432 7.17,2.812 7.17,-1.808L7.17,-5.333L-14.039,-5.333C-13.718,-8.446 -12.719,-10.62 -11.042,-11.855C-9.365,-13.09 -7.2,-13.708 -4.549,-13.708C-2.802,-13.708 -1.135,-13.442 0.452,-12.91C2.038,-12.377 3.444,-11.68 4.67,-10.816" style="fill:rgb(156,163,175);fill-rule:nonzero;"/>
            </g>
        </g>
        <g>
            <g transform="matrix(1,0,0,-1,394.942,104.589)">
                <path d="M0,0L-10.858,0L-10.858,-25.004L-18.238,-25.004L-18.238,0L-23.42,0L-23.42,5.964L-18.238,5.964L-18.238,10.272C-18.238,13.526 -17.179,16.192 -15.06,18.271C-12.941,20.35 -10.225,21.389 -6.912,21.389C-6.028,21.389 -5.245,21.344 -4.561,21.253C-3.879,21.163 -3.276,21.027 -2.754,20.847L-2.754,14.551C-2.995,14.691 -3.417,14.861 -4.019,15.063C-4.622,15.263 -5.315,15.364 -6.097,15.364C-7.625,15.364 -8.799,14.887 -9.623,13.933C-10.446,12.979 -10.858,11.568 -10.858,9.701L-10.858,5.964L0,5.964L0,12.924L7.321,15.153L7.321,5.964L14.702,5.964L14.702,0L7.321,0L7.321,-14.49C7.321,-16.399 7.667,-17.745 8.36,-18.527C9.053,-19.311 10.142,-19.702 11.629,-19.702C12.05,-19.702 12.558,-19.602 13.15,-19.401C13.742,-19.201 14.259,-18.96 14.702,-18.678L14.702,-24.703C14.239,-24.964 13.471,-25.205 12.397,-25.426C11.323,-25.647 10.263,-25.757 9.219,-25.757C6.146,-25.757 3.841,-24.94 2.305,-23.303C0.768,-21.666 0,-19.201 0,-15.906L0,0ZM-48.407,-9.731C-48.407,-12.965 -47.674,-15.435 -46.208,-17.142C-44.742,-18.849 -42.644,-19.702 -39.912,-19.702C-37.26,-19.702 -35.242,-18.849 -33.857,-17.142C-32.471,-15.435 -31.778,-12.904 -31.778,-9.55C-31.778,-6.217 -32.496,-3.701 -33.932,-2.003C-35.368,-0.306 -37.381,0.542 -39.972,0.542C-42.644,0.542 -44.717,-0.347 -46.193,-2.125C-47.669,-3.901 -48.407,-6.437 -48.407,-9.731M-55.999,-9.972C-55.999,-4.85 -54.553,-0.794 -51.661,2.199C-48.769,5.191 -44.752,6.688 -39.61,6.688C-34.771,6.688 -30.99,5.247 -28.268,2.365C-25.547,-0.518 -24.186,-4.409 -24.186,-9.309C-24.186,-14.331 -25.632,-18.327 -28.524,-21.299C-31.416,-24.272 -35.353,-25.757 -40.333,-25.757C-45.134,-25.757 -48.945,-24.347 -51.766,-21.525C-54.588,-18.704 -55.999,-14.852 -55.999,-9.972M-72.416,-2.169C-72.416,-3.214 -72.085,-4.032 -71.422,-4.625C-70.76,-5.217 -69.294,-5.965 -67.023,-6.869C-64.112,-8.034 -62.068,-9.344 -60.894,-10.8C-59.718,-12.256 -59.131,-14.019 -59.131,-16.087C-59.131,-19 -60.25,-21.339 -62.49,-23.106C-64.729,-24.875 -67.757,-25.757 -71.573,-25.757C-72.858,-25.757 -74.279,-25.602 -75.836,-25.291C-77.392,-24.979 -78.713,-24.583 -79.797,-24.101L-79.797,-16.931C-78.471,-17.855 -77.046,-18.587 -75.519,-19.129C-73.993,-19.672 -72.607,-19.944 -71.362,-19.944C-69.715,-19.944 -68.5,-19.713 -67.716,-19.25C-66.933,-18.789 -66.542,-18.015 -66.542,-16.931C-66.542,-15.926 -66.948,-15.078 -67.762,-14.385C-68.575,-13.692 -70.117,-12.894 -72.386,-11.99C-75.078,-10.866 -76.985,-9.6 -78.11,-8.195C-79.235,-6.789 -79.797,-5.001 -79.797,-2.832C-79.797,-0.041 -78.688,2.254 -76.468,4.052C-74.25,5.849 -71.372,6.748 -67.837,6.748C-66.753,6.748 -65.538,6.627 -64.192,6.387C-62.846,6.146 -61.722,5.833 -60.817,5.452L-60.817,-1.477C-61.782,-0.833 -62.907,-0.282 -64.192,0.181C-65.478,0.643 -66.753,0.874 -68.018,0.874C-69.404,0.874 -70.483,0.603 -71.256,0.061C-72.03,-0.482 -72.416,-1.226 -72.416,-2.169M-107.481,-9.731C-107.481,-12.965 -106.749,-15.435 -105.282,-17.142C-103.817,-18.849 -101.718,-19.702 -98.987,-19.702C-96.335,-19.702 -94.317,-18.849 -92.932,-17.142C-91.545,-15.435 -90.853,-12.904 -90.853,-9.55C-90.853,-6.217 -91.571,-3.701 -93.007,-2.003C-94.443,-0.306 -96.456,0.542 -99.046,0.542C-101.718,0.542 -103.792,-0.347 -105.268,-2.125C-106.744,-3.901 -107.481,-6.437 -107.481,-9.731M-115.074,-9.972C-115.074,-4.85 -113.628,-0.794 -110.735,2.199C-107.843,5.191 -103.827,6.688 -98.686,6.688C-93.845,6.688 -90.064,5.247 -87.343,2.365C-84.622,-0.518 -83.261,-4.409 -83.261,-9.309C-83.261,-14.331 -84.707,-18.327 -87.599,-21.299C-90.491,-24.272 -94.427,-25.757 -99.408,-25.757C-104.209,-25.757 -108.02,-24.347 -110.841,-21.525C-113.663,-18.704 -115.074,-14.852 -115.074,-9.972M-118.21,6.477C-117.627,6.477 -117.105,6.436 -116.643,6.356C-116.181,6.276 -115.79,6.176 -115.468,6.055L-115.468,-1.326C-115.85,-1.044 -116.407,-0.779 -117.14,-0.527C-117.873,-0.276 -118.762,-0.151 -119.806,-0.151C-121.594,-0.151 -123.105,-0.904 -124.34,-2.41C-125.575,-3.917 -126.193,-6.236 -126.193,-9.369L-126.193,-25.004L-133.483,-25.004L-133.483,5.964L-126.193,5.964L-126.193,1.084L-126.073,1.084C-125.41,2.771 -124.406,4.091 -123.06,5.046C-121.714,5.999 -120.098,6.477 -118.21,6.477M-146.166,-19.702C-145.082,-19.702 -143.887,-19.452 -142.581,-18.949C-141.276,-18.447 -140.071,-17.785 -138.966,-16.961L-138.966,-23.739C-140.131,-24.402 -141.451,-24.904 -142.928,-25.245C-144.403,-25.587 -146.026,-25.757 -147.793,-25.757C-152.352,-25.757 -156.058,-24.317 -158.909,-21.435C-161.761,-18.553 -163.187,-14.873 -163.187,-10.394C-163.187,-5.413 -161.73,-1.311 -158.818,1.913C-155.907,5.136 -151.779,6.748 -146.437,6.748C-145.071,6.748 -143.691,6.572 -142.294,6.22C-140.899,5.869 -139.79,5.463 -138.966,5.001L-138.966,-1.989C-140.091,-1.165 -141.24,-0.527 -142.416,-0.075C-143.59,0.376 -144.791,0.603 -146.015,0.603C-148.887,0.603 -151.207,-0.332 -152.974,-2.199C-154.742,-4.067 -155.625,-6.587 -155.625,-9.761C-155.625,-12.894 -154.777,-15.334 -153.08,-17.082C-151.383,-18.829 -149.078,-19.702 -146.166,-19.702M-168.278,-25.004L-175.568,-25.004L-175.568,5.965L-168.278,5.965L-168.278,-25.004ZM-176.322,14.912C-176.322,16.117 -175.885,17.126 -175.011,17.939C-174.137,18.753 -173.099,19.16 -171.894,19.16C-170.608,19.16 -169.543,18.742 -168.7,17.91C-167.856,17.076 -167.435,16.076 -167.435,14.912C-167.435,13.727 -167.866,12.732 -168.73,11.93C-169.594,11.126 -170.648,10.725 -171.894,10.725C-173.139,10.725 -174.188,11.131 -175.041,11.944C-175.896,12.758 -176.322,13.747 -176.322,14.912M-182.595,18.195L-182.595,-25.004L-190.096,-25.004L-190.096,8.856L-190.216,8.856L-203.623,-25.004L-208.593,-25.004L-222.331,8.856L-222.421,8.856L-222.421,-25.004L-229.35,-25.004L-229.35,18.195L-218.595,18.195L-206.183,-13.828L-206.003,-13.828L-192.898,18.195L-182.595,18.195Z" style="fill:rgb(156,163,175);fill-rule:nonzero;"/>
            </g>
        </g>
        <g transform="matrix(1,0,0,-1,0,215.433)">
            <rect x="71.995" y="109.22" width="34.218" height="34.218" style="fill:rgb(156,163,175);fill-rule:nonzero;"/>
        </g>
        <g transform="matrix(1,0,0,-1,0,215.433)">
            <rect x="109.775" y="109.22" width="34.218" height="34.218" style="fill:rgb(156,163,175);fill-rule:nonzero;"/>
        </g>
        <g transform="matrix(1,0,0,-1,0,215.433)">
            <rect x="71.995" y="71.44" width="34.218" height="34.218" style="fill:rgb(156,163,175);fill-rule:nonzero;"/>
        </g>
        <g transform="matrix(1,0,0,-1,0,215.433)">
            <rect x="109.775" y="71.44" width="34.218" height="34.218" style="fill:rgb(156,163,175);fill-rule:nonzero;"/>
        </g>
        <g transform="matrix(1,0,0,-1,0,215.433)">
            <rect x="71.995" y="109.22" width="34.218" height="34.218" style="fill:rgb(156,163,175);fill-rule:nonzero;"/>
        </g>
        <g transform="matrix(1,0,0,-1,0,215.433)">
            <rect x="109.775" y="109.22" width="34.218" height="34.218" style="fill:rgb(156,163,175);fill-rule:nonzero;"/>
        </g>
        <g transform="matrix(1,0,0,-1,0,215.433)">
            <rect x="71.995" y="71.44" width="34.218" height="34.218" style="fill:rgb(156,163,175);fill-rule:nonzero;"/>
        </g>
        <g transform="matrix(1,0,0,-1,0,215.433)">
            <rect x="109.775" y="71.44" width="34.218" height="34.218" style="fill:rgb(156,163,175);fill-rule:nonzero;"/>
        </g>
    </g>
</svg>
