<?xml version="1.0" encoding="utf-8"?>
<!-- Generator: Adobe Illustrator 27.5.0, SVG Export Plug-In . SVG Version: 6.00 Build 0)  -->
<svg version="1.1" id="Layer_1" xmlns="http://www.w3.org/2000/svg" xmlns:xlink="http://www.w3.org/1999/xlink" x="0px" y="0px"
	 viewBox="0 0 532.8 223.2" style="enable-background:new 0 0 532.8 223.2;" xml:space="preserve">
<style type="text/css">
	.st0{fill:#9ca3af;}
</style>
<path class="st0" d="M527,217.6L494.7,181c15.9-18.7,25.4-43,25.4-69.4c0-59.5-48.4-107.9-107.9-107.9
	c-59.5,0-107.9,48.4-107.9,107.9s48.4,107.9,107.9,107.9c20.4,0,39.5-5.7,55.8-15.6l12,13.7L527,217.6z M433.3,112h-47l58,65.2
	c-9.7,4.8-20.6,7.4-32.1,7.4c-40.2,0-73-32.8-73-73s32.8-73,73-73s73,32.8,73,73c0,16-5.2,30.8-14,42.9L433.3,112z"/>
<path class="st0" d="M113.7,38.6c24.2,0,46.9,12,60.5,32.1l3.6,5.4L208,58.6l-4-6.1C184,22,150.3,3.7,113.7,3.7
	C54.3,3.7,5.8,52.1,5.8,111.7s48.4,107.9,107.9,107.9c36.5,0,70.2-18.2,90.3-48.8l4-6.1l-30.2-17.5l-3.6,5.4
	c-13.7,20.1-36.2,32.1-60.5,32.1c-40.2,0-73-32.8-73-73S73.5,38.6,113.7,38.6z"/>
<g>
	<polygon class="st0" points="238.5,217.3 273.5,217.3 273.5,112 238.5,72.5 	"/>
	<polygon class="st0" points="238.5,23.5 273.5,63.1 273.5,6.8 238.5,6.8 	"/>
</g>
</svg>
