<?xml version="1.0" encoding="UTF-8" standalone="no"?>
<!DOCTYPE svg PUBLIC "-//W3C//DTD SVG 1.1//EN" "http://www.w3.org/Graphics/SVG/1.1/DTD/svg11.dtd">
<svg width="100%" height="100%" viewBox="0 0 127 48" version="1.1" xmlns="http://www.w3.org/2000/svg" xmlns:xlink="http://www.w3.org/1999/xlink" xml:space="preserve" xmlns:serif="http://www.serif.com/" style="fill-rule:evenodd;clip-rule:evenodd;stroke-linejoin:round;stroke-miterlimit:2;">
    <g transform="matrix(0.030783,0,0,-0.030783,18.0743,56.1853)">
        <path d="M701,1534C566,1498 454,1408 396,1287C338,1169 330,1064 367,930C388,855 411,812 464,753C560,646 673,599 832,598C984,598 1098,639 1192,730L1244,780L1160,842L1116,802C923,624 600,677 491,904C399,1093 482,1321 678,1413C739,1442 754,1445 840,1445C926,1445 941,1442 1000,1414C1036,1397 1086,1364 1112,1341C1137,1319 1162,1300 1167,1300C1171,1301 1190,1314 1209,1330L1243,1359L1187,1414C1067,1531 870,1580 701,1534Z" style="fill:rgb(156,163,175);fill-rule:nonzero;"/>
        <path d="M1998,1539C1875,1510 1752,1408 1695,1288C1592,1072 1653,824 1842,684C1961,597 2149,569 2285,619C2318,631 2352,643 2361,646C2372,650 2391,634 2421,596L2465,540L2527,540C2562,540 2590,543 2590,546C2590,549 2561,590 2525,636L2459,719L2502,772C2677,987 2627,1323 2396,1472C2311,1527 2227,1550 2121,1549C2074,1548 2018,1544 1998,1539ZM2266,1419C2347,1388 2438,1298 2470,1215C2498,1141 2502,1009 2477,942C2460,897 2404,810 2392,810C2388,810 2351,853 2311,905L2238,1000L2173,1000C2124,1000 2111,997 2116,988C2121,981 2164,924 2213,863C2262,801 2299,746 2296,741C2283,721 2161,697 2097,702C1968,713 1841,801 1787,917C1755,987 1755,1154 1788,1224C1874,1411 2071,1492 2266,1419Z" style="fill:rgb(156,163,175);fill-rule:nonzero;"/>
        <path d="M1390,1530L1390,620L1500,620L1500,1530L1390,1530Z" style="fill:rgb(156,163,175);fill-rule:nonzero;"/>
    </g>
</svg>
