<?xml version="1.0" encoding="UTF-8" standalone="no"?>
<!DOCTYPE svg PUBLIC "-//W3C//DTD SVG 1.1//EN" "http://www.w3.org/Graphics/SVG/1.1/DTD/svg11.dtd">
<svg width="100%" height="100%" viewBox="0 0 127 48" version="1.1" xmlns="http://www.w3.org/2000/svg" xmlns:xlink="http://www.w3.org/1999/xlink" xml:space="preserve" xmlns:serif="http://www.serif.com/" style="fill-rule:evenodd;clip-rule:evenodd;stroke-linejoin:round;stroke-miterlimit:2;">
    <g transform="matrix(0.729077,0,0,0.729077,0.143182,14.7407)">
        <g id="g730">
            <g>
                <path d="M36.3,5.9L36.3,17.2L33.7,18.1L33.7,5L25.9,2.3L25.9,20.9L23.3,21.8L23.3,1.4L19.4,0L15.6,1.4L15.6,21.8L13,20.9L13,2.3L5.2,5L5.2,18.1L2.6,17.2L2.6,5.9L0,6.8L0,19.1L7.8,21.8L7.8,6.8L10.4,5.9L10.4,22.7L18.1,25.4L18.1,3.2L19.4,2.7L20.7,3.2L20.7,25.4L28.5,22.7L28.5,5.9L31.1,6.8L31.1,21.8L38.9,19.1L38.9,6.8L36.3,5.9Z" style="fill:rgb(156,163,175);fill-rule:nonzero;"/>
                <path d="M58.4,13.4L64.2,13.4L64.2,11.8L58.4,11.8L58.4,8.3L67,8.3L67,6.7L56.7,6.7L56.7,19L67.3,19L67.3,17.5L58.4,17.5L58.4,13.4Z" style="fill:rgb(156,163,175);fill-rule:nonzero;"/>
                <g>
                    <path d="M104,14.1C104,16.3 102.6,17.8 100.5,17.8C98.5,17.8 97.2,16.3 97.2,14.1L97.2,6.7L95.5,6.7L95.5,14.2C95.5,17.6 97.9,19.4 100.5,19.4C104.5,19.4 105.7,16.6 105.7,14.2L105.7,6.7L104,6.7L104,14.1Z" style="fill:rgb(156,163,175);fill-rule:nonzero;"/>
                </g>
                <rect x="115.3" y="6.7" width="1.7" height="12.3" style="fill:rgb(156,163,175);"/>
                <path d="M137.5,16.4L129,6.7L127.3,6.7L127.3,19L129,19L129,9.3L137.5,19L139.2,19L139.2,6.7L137.5,6.7L137.5,16.4Z" style="fill:rgb(156,163,175);fill-rule:nonzero;"/>
                <rect x="149.6" y="6.7" width="1.7" height="12.3" style="fill:rgb(156,163,175);"/>
                <path d="M168,12.3L173,6.7L170.8,6.7L166.9,11.1L163.1,6.7L160.8,6.7L165.6,12.3L159.6,19L161.8,19L166.7,13.5L171.4,19L173.8,19L168,12.3Z" style="fill:rgb(156,163,175);fill-rule:nonzero;"/>
                <g>
                    <path d="M84.9,12.9C84.9,14.6 84.4,15.8 83.4,16.7L82.5,15.6L80.5,15.6L82.1,17.5C81.7,17.7 81,17.9 80.4,17.9C77.8,17.9 75.8,15.8 75.8,12.9C75.8,9.9 77.7,7.9 80.3,7.8C82.9,7.8 84.9,9.9 84.9,12.9ZM80.4,6.2C76.8,6.2 74.1,9 74.1,12.9C74.1,16.8 76.9,19.5 80.4,19.4C81.3,19.4 82.4,19.1 83.2,18.7L84.2,19.9L86.2,19.9L84.5,17.9C85.9,16.8 86.8,15 86.8,12.8C86.7,8.9 83.9,6.2 80.4,6.2" style="fill:rgb(156,163,175);fill-rule:nonzero;"/>
                    <path d="M46.1,18.2C47.4,18.2 48.4,17.1 48.4,15.9C48.4,14.6 47.4,13.6 46.1,13.6C44.8,13.6 43.8,14.7 43.8,16C43.7,17.2 44.7,18.2 46.1,18.2M46.1,18C44.9,18 44,17 44,15.9C44,14.8 44.9,13.8 46.1,13.8C47.3,13.8 48.2,14.7 48.2,15.9C48.1,17 47.2,18 46.1,18M45.1,17L45.7,17L45.7,16.2L46.1,16.2L46.6,17L47.3,17L46.7,16.1C47,16 47.2,15.7 47.2,15.3C47.2,14.8 46.8,14.5 46.2,14.5L45.1,14.5L45.1,17ZM45.7,15.8L45.7,15.1L46.2,15.1C46.5,15.1 46.6,15.2 46.6,15.4C46.6,15.6 46.5,15.7 46.2,15.7L45.7,15.7L45.7,15.8Z" style="fill:rgb(156,163,175);fill-rule:nonzero;"/>
                </g>
            </g>
        </g>
    </g>
</svg>
