<?xml version="1.0" encoding="UTF-8" standalone="no"?>
<!DOCTYPE svg PUBLIC "-//W3C//DTD SVG 1.1//EN" "http://www.w3.org/Graphics/SVG/1.1/DTD/svg11.dtd">
<svg width="100%" height="100%" viewBox="0 0 127 48" version="1.1" xmlns="http://www.w3.org/2000/svg" xmlns:xlink="http://www.w3.org/1999/xlink" xml:space="preserve" xmlns:serif="http://www.serif.com/" style="fill-rule:evenodd;clip-rule:evenodd;stroke-linejoin:round;stroke-miterlimit:2;">
    <g transform="matrix(0.0881859,0,0,0.0881859,18.3488,5.87779)">
        <g id="g730">
            <g>
                <path id="polygon204" d="M573.114,11.728L573.114,245.705C573.114,291.643 584.451,312.609 633.861,312.609C645.563,312.609 661.644,309.598 673.784,306.998L665.975,260.108C657.759,261.841 650.575,261.632 645.376,261.76C623.768,262.291 625.635,255.19 625.635,234.816L625.635,146.742L666.765,146.742L666.765,107.713L625.635,107.713L625.635,11.728L573.114,11.728ZM745.204,11.728L692.684,11.736L692.692,51.501L692.692,312.611L771.123,312.611L771.123,272.715L745.205,272.715L745.204,11.728ZM101.706,11.729C47.534,11.729 38.288,30.164 38.288,72.644L38.288,107.714L11.626,112.098L11.626,146.742L38.288,146.742L38.288,272.715L11.628,272.715L11.628,312.616L117.194,312.604L117.194,272.716L90.81,272.716L90.81,146.742L130.438,146.742L130.438,107.713L90.81,107.713L90.81,77.364C90.81,58.716 95.635,56.812 114.72,56.812C119.918,56.812 123.998,57.044 132.221,58.346L139.417,15.644C127.276,13.457 113.406,11.729 101.706,11.729L101.706,11.729ZM211.915,67.014L211.915,80.353L218.321,80.353L218.321,98.49L218.686,98.49C168.454,107.738 130.386,151.724 130.386,204.63C130.386,264.255 178.722,312.59 238.346,312.59C258.696,312.59 277.726,306.953 293.972,297.165L303.433,312.611L358.909,312.611L358.909,260.108L346.357,260.108L346.321,96.671L293.802,96.671L293.802,111.999C282.985,105.509 270.935,100.869 258.093,98.49L258.39,98.49L258.39,80.353L264.798,80.353L264.798,67.014L211.915,67.014ZM464.073,96.331C414.766,96.331 385.158,113.697 385.158,157.964C385.158,204.732 421.698,220.45 467.739,228.317C492.176,233.273 499.653,238.24 499.653,248.582C499.653,256.035 495.436,270.051 469.365,270.051C459.996,270.051 442.051,270.382 424.936,267.076L424.959,260.108L385.187,260.108L385.187,299.33C409.614,305.528 441.627,312.611 474.621,312.611C523.926,312.611 547.351,289.096 547.351,243.582C547.351,195.589 508.48,186.523 469.775,177.834C443.296,172.045 439.904,166.67 439.904,156.731C439.904,149.705 442.885,136.744 467.326,136.744C475.885,136.744 491.664,136.784 507.553,139.683L507.553,146.67L547.314,146.67L547.314,107.713C522.875,101.511 497.476,96.331 464.073,96.331L464.073,96.331ZM904.05,107.713L904.05,146.706L929.885,146.706L891.749,240.527L853.614,146.706L879.503,146.706L879.503,107.714L771.123,107.714L771.123,146.706L797.016,146.706L864.33,312.345C856.538,336.173 831.623,349.859 809.536,349.859C804.768,349.859 795.681,349.005 788.744,347.707L783.994,395.376C794.805,397.973 810.394,399.272 822.105,399.272C869.734,399.272 901.007,356.059 920.048,310.147L986.482,146.704L1012.37,146.704L1012.37,107.713L904.05,107.713ZM241.492,149.032C269.139,150.51 291.41,172.196 293.816,199.587L293.816,201.392L287.511,201.392L287.511,207.684L293.817,207.684L293.817,209.407C291.424,236.811 269.148,258.51 241.492,259.988L241.492,253.814L235.199,253.814L235.199,259.972C207.011,258.329 184.464,235.681 182.993,207.447L189.248,207.447L189.248,201.155L183.026,201.155C184.698,173.117 207.152,150.686 235.199,149.051L235.199,155.239L241.492,155.239L241.492,149.032ZM261.915,177.148L241.616,194.836C240.592,194.468 239.496,194.258 238.351,194.258C232.874,194.258 228.439,198.823 228.439,204.448C228.439,210.079 232.874,214.643 238.351,214.643C243.826,214.643 248.271,210.079 248.271,204.448C248.271,203.38 248.108,202.351 247.811,201.383L265.911,181.146L261.915,177.148ZM992.241,272.93C981.204,272.93 972.317,281.703 972.317,292.742C972.317,303.777 981.203,312.549 992.241,312.549C1003.28,312.549 1012.22,303.777 1012.22,292.742C1012.22,281.703 1003.28,272.93 992.241,272.93ZM992.241,276.27C1001.41,276.27 1008.88,283.569 1008.88,292.742C1008.88,301.909 1001.41,309.435 992.241,309.435C983.074,309.435 975.655,301.909 975.655,292.742C975.655,283.57 983.074,276.27 992.241,276.27ZM984.658,283.002L984.658,302.474L989.128,302.474L989.128,296.588L991.9,296.588L995.92,302.474L1001.41,302.474L996.543,295.794C999.031,295.06 1000.62,292.906 1000.62,289.742C1000.62,285.437 997.616,283.002 992.804,283.002L984.658,283.002ZM989.128,286.909L992.804,286.909C994.733,286.909 996.091,287.705 996.091,289.743C996.091,291.89 994.734,292.681 992.694,292.681L989.128,292.681L989.128,286.909Z" style="fill:rgb(156,163,175);fill-rule:nonzero;"/>
            </g>
        </g>
    </g>
</svg>
