<?xml version="1.0" encoding="UTF-8" standalone="no"?>
<!DOCTYPE svg PUBLIC "-//W3C//DTD SVG 1.1//EN" "http://www.w3.org/Graphics/SVG/1.1/DTD/svg11.dtd">
<svg width="100%" height="100%" viewBox="0 0 127 48" version="1.1" xmlns="http://www.w3.org/2000/svg" xmlns:xlink="http://www.w3.org/1999/xlink" xml:space="preserve" xmlns:serif="http://www.serif.com/" style="fill-rule:evenodd;clip-rule:evenodd;stroke-linejoin:round;stroke-miterlimit:2;">
    <g transform="matrix(0.13734,0,0,0.13734,-18.9039,-30.9361)">
        <g id="g730">
            <g>
                <g id="g710">
                    <path id="path702" d="M247.041,365.618L252.259,365.618L267.132,350.745L267.861,344.428C240.18,319.992 197.933,322.632 173.498,350.313C166.708,357.996 161.788,367.148 159.097,377.05C160.751,376.372 162.589,376.259 164.315,376.742L194.061,371.832C194.061,371.832 195.571,369.326 196.362,369.48C209.591,354.946 231.86,353.251 247.144,365.618L247.041,365.618Z" style="fill:rgb(156,163,175);fill-rule:nonzero;"/>
                    <path id="path704" d="M288.322,377.05C284.902,364.457 277.886,353.138 268.129,344.489L247.257,365.361C256.07,372.561 261.093,383.418 260.877,394.799L260.877,398.507C271.138,398.507 279.458,406.827 279.458,417.088C279.458,427.349 271.138,435.669 260.877,435.669L223.715,435.669L220.007,439.428L220.007,461.717L223.715,465.425L260.877,465.425C287.562,465.631 309.368,444.164 309.574,417.478C309.697,401.27 301.716,386.109 288.322,377.05Z" style="fill:rgb(156,163,175);fill-rule:nonzero;"/>
                    <path id="path706" d="M186.501,465.189L223.663,465.189L223.663,435.443L186.501,435.443C183.851,435.443 181.242,434.868 178.828,433.769L173.61,435.392L158.635,450.265L157.33,455.483C165.722,461.83 175.973,465.241 186.501,465.189Z" style="fill:rgb(156,163,175);fill-rule:nonzero;"/>
                    <path id="path708" d="M186.501,368.699C159.806,368.853 138.307,390.618 138.462,417.314C138.554,432.218 145.508,446.249 157.33,455.329L178.88,433.779C169.533,429.558 165.373,418.547 169.594,409.199C173.816,399.852 184.827,395.693 194.174,399.914C198.293,401.773 201.59,405.081 203.459,409.199L225.009,387.65C215.847,375.653 201.59,368.637 186.501,368.699Z" style="fill:rgb(156,163,175);fill-rule:nonzero;"/>
                </g>
                <g id="g728">
                    <g id="g714">
                        <path id="path712" d="M408.509,444.42C395.577,444.585 383.148,439.48 374.068,430.277C364.691,421.464 359.452,409.117 359.616,396.247C359.462,383.377 364.701,371.041 374.068,362.218C383.107,352.922 395.546,347.714 408.509,347.817C420.855,347.653 432.76,352.45 441.542,361.129L432.256,370.579C425.898,364.426 417.352,361.057 408.509,361.18C399.234,361.067 390.328,364.858 383.98,371.616C377.386,378.159 373.75,387.116 373.904,396.401C373.822,405.584 377.458,414.407 383.98,420.878C397.415,434.272 419.078,434.529 432.831,421.453C436.93,416.975 439.436,411.264 439.98,405.224L408.663,405.224L408.663,391.872L452.974,391.872C453.405,394.563 453.58,397.285 453.498,400.017C454.052,411.408 449.923,422.532 442.066,430.811C433.325,439.901 421.122,444.852 408.509,444.42ZM511.531,435.546C499.175,447.389 479.68,447.389 467.323,435.546C461.335,429.742 458.068,421.7 458.294,413.37C458.068,405.04 461.345,396.997 467.323,391.194C479.69,379.381 499.165,379.381 511.531,391.194C517.509,396.997 520.786,405.04 520.56,413.37C520.776,421.71 517.479,429.753 511.48,435.546L511.531,435.546ZM477.081,426.836C483.46,433.656 494.162,434.005 500.983,427.616C501.25,427.359 501.517,427.103 501.763,426.836C505.245,423.23 507.125,418.382 506.981,413.37C507.135,408.347 505.256,403.468 501.763,399.852C495.2,393.012 484.333,392.775 477.482,399.339C477.307,399.503 477.132,399.678 476.968,399.852C473.476,403.468 471.596,408.347 471.75,413.37C471.617,418.382 473.517,423.241 477.019,426.836L477.081,426.836ZM579.477,435.546C567.121,447.389 547.625,447.389 535.269,435.546C529.281,429.742 526.014,421.7 526.24,413.37C526.014,405.04 529.291,396.997 535.269,391.194C547.625,379.351 567.121,379.351 579.477,391.194C585.455,396.997 588.732,405.04 588.506,413.37C588.742,421.7 585.465,429.742 579.477,435.546ZM545.037,426.836C551.416,433.656 562.118,434.005 568.939,427.616C569.206,427.359 569.473,427.103 569.719,426.836C573.201,423.23 575.081,418.382 574.937,413.37C575.091,408.347 573.212,403.468 569.719,399.852C563.156,393.012 552.289,392.775 545.448,399.339C545.273,399.503 545.099,399.678 544.934,399.852C541.442,403.468 539.562,408.347 539.716,413.37C539.583,418.382 541.483,423.241 544.986,426.836L545.037,426.836ZM624.148,472.287C617.892,472.482 611.76,470.53 606.768,466.751C602.339,463.419 598.849,458.995 596.641,453.911L608.535,448.95C609.829,451.99 611.853,454.661 614.431,456.726C617.184,458.944 620.645,460.115 624.189,460.012C628.729,460.29 633.166,458.574 636.35,455.318C639.493,451.528 641.044,446.66 640.685,441.75L640.685,437.261L640.212,437.261C636.176,442.048 630.126,444.657 623.881,444.307C615.961,444.328 608.391,441.041 603.009,435.227C597.175,429.465 593.95,421.566 594.083,413.359C593.939,405.111 597.165,397.161 603.009,391.337C608.381,385.503 615.951,382.186 623.881,382.206C627.198,382.196 630.485,382.935 633.485,384.343C636.083,385.472 638.394,387.167 640.274,389.304L640.746,389.304L640.746,384.343L653.689,384.343L653.689,439.921C654.377,448.806 651.377,457.588 645.389,464.193C639.689,469.647 632.036,472.564 624.148,472.287ZM625.093,432.208C629.602,432.31 633.926,430.39 636.884,426.99C640.099,423.302 641.804,418.526 641.63,413.626C641.825,408.645 640.13,403.786 636.884,400.007C633.926,396.596 629.602,394.686 625.093,394.789C620.46,394.696 616.013,396.596 612.88,400.007C609.429,403.653 607.549,408.511 607.662,413.524C607.559,418.495 609.429,423.302 612.88,426.887C615.992,430.328 620.44,432.269 625.093,432.208ZM676.707,351.32L676.707,442.541L663.087,442.541L663.087,351.32L676.707,351.32ZM714.074,444.42C705.827,444.636 697.866,441.401 692.104,435.494C686.259,429.64 683.065,421.638 683.281,413.37C682.972,405.081 686.044,397.018 691.785,391.029C697.209,385.318 704.789,382.155 712.657,382.309C716.242,382.268 719.785,382.966 723.093,384.343C726.072,385.544 728.783,387.321 731.074,389.56C733.046,391.461 734.792,393.577 736.292,395.877C737.504,397.819 738.531,399.863 739.373,401.979L740.78,405.533L699.037,422.706C701.625,428.643 707.593,432.382 714.064,432.105C720.32,432.125 726.123,428.849 729.358,423.497L739.794,430.544C737.132,434.358 733.721,437.591 729.769,440.045C725.086,443.003 719.621,444.523 714.074,444.42ZM696.644,412.425L724.408,400.89C723.555,398.856 722.025,397.182 720.073,396.144C717.895,394.912 715.43,394.285 712.924,394.316C708.682,394.429 704.645,396.206 701.708,399.277C698.143,402.687 696.284,407.505 696.644,412.425Z" style="fill:rgb(156,163,175);fill-rule:nonzero;"/>
                    </g>
                    <g id="g726">
                        <path id="path716" d="M812.136,444.42C788.389,444.831 768.811,425.911 768.4,402.164C768.39,401.588 768.39,401.003 768.411,400.428C767.856,376.68 786.663,356.99 810.4,356.435C810.975,356.425 811.561,356.425 812.136,356.425C824.01,356.055 835.411,361.129 843.084,370.199L835.565,377.502C829.926,370.404 821.237,366.429 812.188,366.799C803.508,366.604 795.116,369.962 788.964,376.084C782.565,382.524 779.144,391.337 779.514,400.407C779.134,409.477 782.565,418.29 788.964,424.73C795.116,430.862 803.508,434.211 812.188,434.015C822.295,434.128 831.898,429.629 838.277,421.803L845.796,429.321C841.862,434.026 836.921,437.785 831.344,440.332C825.325,443.126 818.761,444.523 812.136,444.42Z" style="fill:rgb(156,163,175);fill-rule:nonzero;"/>
                        <rect id="path718" x="855.184" y="358.253" width="10.806" height="84.288" style="fill:rgb(156,163,175);fill-rule:nonzero;"/>
                        <path id="path720" d="M883.636,391.81C895.417,380.111 914.44,380.111 926.221,391.81C931.809,397.716 934.819,405.604 934.572,413.729C934.819,421.854 931.809,429.742 926.221,435.649C914.44,447.348 895.417,447.348 883.636,435.649C878.048,429.742 875.039,421.854 875.285,413.729C875.039,405.604 878.038,397.716 883.636,391.81ZM891.668,428.869C898.581,436.172 910.105,436.491 917.419,429.578C917.665,429.352 917.901,429.106 918.127,428.869C921.938,424.781 923.951,419.327 923.715,413.739C923.962,408.152 921.948,402.698 918.127,398.61C911.215,391.307 899.69,390.988 892.377,397.901C892.13,398.127 891.894,398.373 891.668,398.61C887.857,402.698 885.844,408.152 886.08,413.739C885.865,419.317 887.899,424.75 891.719,428.818L891.668,428.869Z" style="fill:rgb(156,163,175);fill-rule:nonzero;"/>
                        <path id="path722" d="M994.434,442.541L983.988,442.541L983.988,434.56L983.68,434.56C981.821,437.59 979.191,440.076 976.059,441.76C972.813,443.64 969.115,444.636 965.356,444.626C959.172,445.047 953.143,442.623 948.973,438.052C945.018,433.05 943.036,426.774 943.385,420.416L943.385,384.928L954.191,384.928L954.191,418.434C954.191,429.188 958.936,434.56 968.437,434.56C972.72,434.693 976.798,432.752 979.397,429.342C982.201,425.798 983.69,421.392 983.629,416.872L983.629,384.928L994.434,384.928L994.434,442.541Z" style="fill:rgb(156,163,175);fill-rule:nonzero;"/>
                        <path id="path724" d="M1031.11,444.42C1023.7,444.441 1016.64,441.226 1011.8,435.597C1006.39,429.619 1003.49,421.792 1003.71,413.729C1003.49,405.666 1006.39,397.839 1011.8,391.861C1016.64,386.243 1023.7,383.018 1031.11,383.038C1035.22,382.976 1039.28,383.942 1042.9,385.852C1046.1,387.455 1048.8,389.889 1050.73,392.899L1051.2,392.899L1050.73,384.918L1050.73,358.253L1061.54,358.253L1061.54,442.541L1051.1,442.541L1051.1,434.56L1050.63,434.56C1048.7,437.569 1046,440.004 1042.8,441.606C1039.21,443.496 1035.19,444.472 1031.11,444.42ZM1032.89,434.56C1037.83,434.632 1042.57,432.577 1045.88,428.921C1049.55,424.74 1051.43,419.286 1051.1,413.729C1051.43,408.183 1049.55,402.718 1045.88,398.538C1039.33,391.327 1028.18,390.803 1020.97,397.367C1020.55,397.737 1020.16,398.137 1019.79,398.538C1016.12,402.687 1014.24,408.131 1014.58,413.668C1014.24,419.204 1016.12,424.648 1019.79,428.797C1023.12,432.536 1027.9,434.632 1032.89,434.56Z" style="fill:rgb(156,163,175);fill-rule:nonzero;"/>
                    </g>
                </g>
            </g>
        </g>
    </g>
</svg>
