<?xml version="1.0" encoding="UTF-8" standalone="no"?>
<!DOCTYPE svg PUBLIC "-//W3C//DTD SVG 1.1//EN" "http://www.w3.org/Graphics/SVG/1.1/DTD/svg11.dtd">
<svg width="100%" height="100%" viewBox="0 0 127 48" version="1.1" xmlns="http://www.w3.org/2000/svg" xmlns:xlink="http://www.w3.org/1999/xlink" xml:space="preserve" xmlns:serif="http://www.serif.com/" style="fill-rule:evenodd;clip-rule:evenodd;stroke-linejoin:round;stroke-miterlimit:2;">
    <g transform="matrix(0.0121359,-9.17857e-35,-9.17857e-35,-0.0121359,0.393269,33.9684)">
        <g id="g12">
            <g id="g14">
                <g id="g16">
                    <clipPath id="_clip1">
                        <rect x="0" y="0" width="10400" height="1642.8"/>
                    </clipPath>
                    <g clip-path="url(#_clip1)">
                        <path id="path22" d="M3848.62,794.105C3848.62,819.117 3844.44,839.469 3836.09,855.129C3827.76,870.75 3816.28,883.023 3801.68,891.863C3787.08,900.746 3769.08,906.754 3747.71,909.863C3726.32,912.992 3702.59,914.559 3676.51,914.559C3620.19,914.559 3560.23,903.609 3496.6,881.715C3481.99,908.832 3471.05,934.395 3463.76,958.379C3456.46,982.359 3452.79,1011.04 3452.79,1044.43C3498.69,1060.06 3544.57,1071.53 3590.47,1078.83C3636.35,1086.14 3679.14,1089.79 3718.75,1089.79C3827.23,1089.79 3911.97,1063.72 3972.99,1011.56C4034,959.402 4064.51,875.984 4064.51,761.25L4064.51,291.91C4028,280.441 3983.67,269.48 3931.52,259.051C3879.39,248.621 3820.45,243.398 3754.74,243.398C3701.55,243.398 3652.78,248.102 3608.45,257.488C3564.13,266.871 3526.05,282.531 3494.27,304.43C3462.44,326.309 3437.94,354.48 3420.71,388.898C3403.52,423.332 3394.91,465.559 3394.91,515.629C3394.91,565.68 3405.6,607.66 3426.98,641.559C3448.36,675.457 3476.01,702.586 3509.89,722.91C3543.8,743.258 3581.6,757.852 3623.33,766.723C3665.05,775.59 3706.76,780.02 3748.48,780.02C3778.73,780.02 3812.1,778.445 3848.62,775.336L3848.62,794.105ZM3848.62,632.949C3836.09,635.039 3822.54,636.879 3807.92,638.43C3793.32,639.988 3780.31,640.77 3768.82,640.77C3717.71,640.77 3677.29,631.66 3647.56,613.398C3617.84,595.148 3602.98,565.68 3602.98,525.012C3602.98,497.879 3608.72,477.039 3620.19,462.422C3631.66,447.832 3645.49,437.141 3661.65,430.371C3677.82,423.582 3695.01,419.41 3713.27,417.84C3731.54,416.289 3747.44,415.48 3760.98,415.48C3776.64,415.48 3792.29,416.801 3807.92,419.41C3823.58,422.02 3837.13,424.352 3848.62,426.449L3848.62,632.949ZM4212.62,902.051L4110.92,902.051L4103.08,933.344L4395.66,1307.26L4431.64,1307.26L4431.64,1071.02L4620.94,1071.02C4624.05,1055.37 4626.15,1041.29 4627.21,1028.78C4628.23,1016.25 4628.75,1003.23 4628.75,989.656C4628.75,975.063 4628.23,960.984 4627.21,947.422C4626.15,933.855 4624.05,918.734 4620.94,902.051L4431.64,902.051L4431.64,584.449C4431.64,552.129 4434.26,526.059 4439.48,506.23C4444.67,486.441 4452.24,470.781 4462.14,459.301C4472.07,447.832 4484.31,440.012 4498.91,435.84C4513.51,431.648 4530.74,429.57 4550.53,429.57C4566.19,429.57 4581.56,430.879 4596.7,433.488C4611.81,436.09 4625.11,438.441 4636.58,440.52C4643.9,420.73 4649.09,400.121 4652.23,378.73C4655.37,357.352 4656.92,338.301 4656.92,321.621C4656.92,310.148 4656.67,300.512 4656.14,292.68C4655.62,284.871 4654.85,277.281 4653.79,270C4605.82,258.512 4556.29,252.801 4505.18,252.801C4410.26,252.801 4337.76,274.949 4287.71,319.262C4237.65,363.602 4212.62,435.84 4212.62,535.961L4212.62,902.051ZM4799.58,902.051L4697.9,902.051L4690.06,933.344L4982.63,1307.26L5018.61,1307.26L5018.61,1071.02L5207.91,1071.02C5211.03,1055.37 5213.13,1041.29 5214.18,1028.78C5215.2,1016.25 5215.73,1003.23 5215.73,989.656C5215.73,975.063 5215.2,960.984 5214.18,947.422C5213.13,933.855 5211.03,918.734 5207.91,902.051L5018.61,902.051L5018.61,584.449C5018.61,552.129 5021.24,526.059 5026.44,506.23C5031.66,486.441 5039.22,470.781 5049.12,459.301C5059.04,447.832 5071.27,440.012 5085.89,435.84C5100.48,431.648 5117.71,429.57 5137.51,429.57C5153.16,429.57 5168.53,430.879 5183.67,433.488C5198.79,436.09 5212.09,438.441 5223.56,440.52C5230.87,420.73 5236.07,400.121 5239.19,378.73C5242.34,357.352 5243.9,338.301 5243.9,321.621C5243.9,310.148 5243.64,300.512 5243.11,292.68C5242.6,284.871 5241.82,277.281 5240.77,270C5192.79,258.512 5143.27,252.801 5092.14,252.801C4997.24,252.801 4924.74,274.949 4874.68,319.262C4824.62,363.602 4799.58,435.84 4799.58,535.961L4799.58,902.051ZM5827.25,753.406C5825.17,803.492 5811.34,843.898 5785.79,874.668C5760.24,905.434 5724.52,920.836 5678.62,920.836C5626.47,920.836 5586.84,906.227 5559.72,877.027C5532.61,847.82 5516.45,806.613 5511.24,753.406L5827.25,753.406ZM5509.66,598.539C5513.84,535.961 5535.74,490.59 5575.37,462.422C5615,434.262 5667.15,420.18 5731.83,420.18C5767.29,420.18 5803.51,423.582 5840.55,430.371C5877.58,437.141 5912.77,446.789 5946.16,459.301C5957.63,438.441 5967.53,413.41 5975.88,384.199C5984.22,355.02 5988.91,323.711 5989.96,290.34C5908.6,259.051 5816.81,243.398 5714.59,243.398C5639.51,243.398 5575.12,253.832 5521.38,274.699C5467.68,295.551 5423.87,324.512 5389.98,361.52C5356.08,398.539 5331.04,442.609 5314.88,493.73C5298.72,544.832 5290.65,600.621 5290.65,661.102C5290.65,720.566 5298.98,776.367 5315.67,828.512C5332.34,880.68 5357.12,926.035 5389.98,964.617C5422.83,1003.23 5463.5,1033.73 5512.01,1056.15C5560.51,1078.58 5617.09,1089.79 5681.75,1089.79C5738.07,1089.79 5788.14,1079.89 5831.94,1060.06C5875.75,1040.25 5913.03,1013.13 5943.8,978.695C5974.57,944.301 5997.79,903.348 6013.43,855.895C6029.08,808.441 6036.9,757.582 6036.9,703.367C6036.9,683.547 6036.12,663.977 6034.55,644.691C6032.99,625.41 6031.14,610.012 6029.08,598.539L5509.66,598.539ZM6121.74,1071.02C6137.38,1074.13 6152.24,1076.49 6166.32,1078.05C6180.42,1079.63 6195.78,1080.41 6212.48,1080.41C6228.13,1080.41 6243.52,1079.35 6258.62,1077.28C6273.76,1075.2 6288.62,1072.58 6303.2,1069.45C6306.35,1064.22 6309.22,1056.68 6311.82,1046.77C6314.43,1036.86 6316.77,1026.43 6318.86,1015.47C6320.95,1004.51 6322.76,993.586 6324.33,982.613C6325.9,971.656 6327.19,962.559 6328.25,955.23C6351.19,987.57 6379.37,1016.52 6412.73,1042.06C6446.11,1067.62 6487.83,1080.41 6537.88,1080.41C6548.33,1080.41 6560.32,1079.89 6573.87,1078.83C6587.42,1077.79 6597.33,1076.23 6603.59,1074.13C6605.68,1063.72 6607.25,1051.72 6608.28,1038.16C6609.35,1024.61 6609.86,1010.52 6609.86,995.914C6609.86,978.184 6609.06,958.891 6607.51,938.031C6605.94,917.176 6603.07,897.363 6598.89,878.586C6587.42,880.68 6574.65,881.715 6560.58,881.715L6534.77,881.715C6517.02,881.715 6497.22,879.883 6475.3,876.242C6453.41,872.578 6432.55,862.941 6412.73,847.285C6392.9,831.648 6376.49,808.176 6363.44,776.879C6350.41,745.605 6343.87,701.797 6343.87,645.461L6343.87,260.602C6325.12,257.488 6306.35,255.398 6287.56,254.359C6268.8,253.309 6250.55,252.801 6232.81,252.801C6215.07,252.801 6197.09,253.309 6178.83,254.359C6160.58,255.398 6141.55,257.488 6121.74,260.602L6121.74,1071.02ZM6714,1071.02C6728.59,1074.13 6743.2,1076.49 6757.79,1078.05C6772.4,1079.63 6788.56,1080.41 6806.3,1080.41C6824.03,1080.41 6839.67,1079.63 6853.23,1078.05C6866.79,1076.49 6880.87,1074.13 6895.47,1071.02C6898.59,1065.8 6901.48,1058.23 6904.08,1048.32C6906.68,1038.42 6909.04,1027.98 6911.12,1017.04C6913.21,1006.09 6915.02,995.402 6916.59,984.973C6918.18,974.543 6919.47,965.672 6920.51,958.379C6928.83,974.004 6939.8,989.656 6953.37,1005.31C6966.92,1020.94 6983.08,1035.01 7001.85,1047.54C7020.62,1060.06 7041.74,1070.23 7065.22,1078.05C7088.68,1085.88 7115.03,1089.79 7144.23,1089.79C7270.42,1089.79 7351.25,1041.8 7386.72,945.848C7407.57,984.445 7437.04,1018.07 7475.1,1046.77C7513.18,1075.45 7561.42,1089.79 7619.84,1089.79C7711.61,1089.79 7779.14,1064.48 7822.42,1013.89C7865.72,963.328 7887.36,884.313 7887.36,776.879L7887.36,262.172C7849.82,255.91 7812.77,252.801 7776.28,252.801C7739.77,252.801 7702.74,255.91 7665.2,262.172L7665.2,719.012C7665.2,775.336 7658.15,818.605 7644.06,848.844C7630,879.098 7601.58,894.223 7558.82,894.223C7541.07,894.223 7523.62,891.605 7506.42,886.406C7489.19,881.199 7473.55,871.555 7459.48,857.469C7445.4,843.387 7433.93,823.555 7425.05,798.004C7416.18,772.477 7411.75,739.34 7411.75,698.668L7411.75,262.172C7374.2,255.91 7337.17,252.801 7300.67,252.801C7264.17,252.801 7227.13,255.91 7189.58,262.172L7189.58,719.012C7189.58,775.336 7182.55,818.605 7168.46,848.844C7154.38,879.098 7125.97,894.223 7083.21,894.223C7065.5,894.223 7047.75,891.605 7030.01,886.406C7012.3,881.199 6996.38,871.027 6982.3,855.895C6968.21,840.785 6957,819.664 6948.67,792.531C6940.32,765.426 6936.14,729.953 6936.14,686.156L6936.14,262.172C6898.59,255.91 6861.59,252.801 6825.07,252.801C6788.56,252.801 6751.55,255.91 6714,262.172L6714,1071.02ZM8339.8,412.371C8398.21,412.371 8440.19,434 8465.73,477.301C8491.29,520.57 8504.07,582.898 8504.07,664.246C8504.07,745.605 8491.29,807.918 8465.73,851.199C8440.19,894.5 8398.21,916.137 8339.8,916.137C8282.44,916.137 8240.98,894.5 8215.43,851.199C8189.86,807.918 8177.08,745.605 8177.08,664.246C8177.08,582.898 8189.86,520.57 8215.43,477.301C8240.98,434 8282.44,412.371 8339.8,412.371ZM8339.8,243.398C8274.09,243.398 8216.98,254.102 8168.49,275.48C8119.99,296.852 8079.83,326.582 8048.02,364.66C8016.21,402.73 7992.22,447.309 7976.07,498.422C7959.89,549.531 7951.81,604.789 7951.81,664.246C7951.81,723.699 7959.89,779.508 7976.07,831.648C7992.22,883.793 8016.21,928.906 8048.02,966.969C8079.83,1005.05 8119.99,1035.01 8168.49,1056.94C8216.98,1078.83 8274.09,1089.79 8339.8,1089.79C8405.51,1089.79 8462.86,1078.83 8511.89,1056.94C8560.9,1035.01 8601.57,1005.05 8633.93,966.969C8666.26,928.906 8690.24,883.793 8705.9,831.648C8721.54,779.508 8729.35,723.699 8729.35,664.246C8729.35,604.789 8721.54,549.531 8705.9,498.422C8690.24,447.309 8666.26,402.73 8633.93,364.66C8601.57,326.582 8560.9,296.852 8511.89,275.48C8462.86,254.102 8405.51,243.398 8339.8,243.398ZM9014.57,614.18C8956.15,630.879 8910.52,655.648 8877.68,688.5C8844.82,721.344 8828.39,770.641 8828.39,836.355C8828.39,915.621 8856.82,977.656 8913.67,1022.51C8970.5,1067.36 9047.96,1089.79 9145.99,1089.79C9186.67,1089.79 9226.81,1086.14 9266.45,1078.83C9306.09,1071.53 9346.24,1060.59 9386.91,1045.98C9384.82,1018.88 9379.61,990.715 9371.25,961.5C9362.93,932.305 9353.02,906.754 9341.55,884.824C9316.51,895.27 9288.88,904.395 9258.62,912.227C9228.39,920.031 9196.57,923.949 9163.2,923.949C9127.73,923.949 9100.11,918.477 9080.27,907.523C9060.46,896.566 9050.55,879.098 9050.55,855.129C9050.55,832.176 9057.59,816.004 9071.67,806.613C9085.75,797.234 9105.84,788.348 9131.9,780.02L9221.08,753.406C9250.29,745.078 9276.62,734.914 9300.09,722.91C9323.55,710.914 9343.64,696.051 9360.32,678.332C9377.01,660.605 9390.04,638.691 9399.42,612.621C9408.82,586.539 9413.52,554.738 9413.52,517.199C9413.52,478.59 9405.43,442.609 9389.26,409.238C9373.1,375.859 9349.62,346.922 9318.86,322.422C9288.09,297.891 9250.8,278.602 9206.99,264.531C9163.2,250.441 9113.65,243.398 9058.37,243.398C9033.33,243.398 9010.41,244.191 8989.55,245.75C8968.68,247.332 8948.61,249.93 8929.31,253.57C8910.02,257.23 8890.98,261.648 8872.21,266.871C8853.43,272.078 8833.09,278.859 8811.19,287.211C8813.29,315.379 8818.24,343.801 8826.05,372.469C8833.87,401.141 8844.05,429.059 8856.56,456.18C8890.98,442.609 8923.58,432.449 8954.35,425.672C8985.12,418.879 9017.19,415.48 9050.55,415.48C9065.17,415.48 9081.07,416.801 9098.26,419.41C9115.48,422.02 9131.39,426.711 9145.99,433.488C9160.6,440.27 9172.86,449.141 9182.76,460.082C9192.67,471.031 9197.6,485.371 9197.6,503.121C9197.6,528.129 9190.05,546.129 9174.93,557.082C9159.8,568.02 9138.68,577.699 9111.58,586.031L9014.57,614.18ZM9555.69,902.051L9454.02,902.051L9446.17,933.344L9738.73,1307.26L9774.71,1307.26L9774.71,1071.02L9964.02,1071.02C9967.15,1055.37 9969.23,1041.29 9970.29,1028.78C9971.32,1016.25 9971.85,1003.23 9971.85,989.656C9971.85,975.063 9971.32,960.984 9970.29,947.422C9969.23,933.855 9967.15,918.734 9964.02,902.051L9774.71,902.051L9774.71,584.449C9774.71,552.129 9777.34,526.059 9782.54,506.23C9787.77,486.441 9795.32,470.781 9805.22,459.301C9815.15,447.832 9827.4,440.012 9841.99,435.84C9856.58,431.648 9873.82,429.57 9893.62,429.57C9909.27,429.57 9924.64,430.879 9939.78,433.488C9954.89,436.09 9968.19,438.441 9979.66,440.52C9986.97,420.73 9992.19,400.121 9995.3,378.73C9998.45,357.352 10000,338.301 10000,321.621C10000,310.148 9999.74,300.512 9999.22,292.68C9998.7,284.871 9997.93,277.281 9996.87,270C9948.91,258.512 9899.37,252.801 9848.26,252.801C9753.34,252.801 9680.85,274.949 9630.78,319.262C9580.73,363.602 9555.69,435.84 9555.69,535.961L9555.69,902.051ZM2180.68,1318.68C2225.89,1324.96 2269.38,1328.13 2311.18,1328.13C2355.25,1328.13 2398.76,1324.96 2441.69,1318.68L2721.34,738.25L3009.46,1318.68C3044.49,1324.96 3083.45,1328.13 3126.4,1328.13C3169.34,1328.13 3210.56,1324.96 3250.12,1318.68L3307.74,252.84C3264.82,246.539 3224.14,243.398 3185.73,243.398C3147.29,243.398 3109.46,246.539 3072.18,252.84L3041.66,1023.46L2794.21,490.84C2778.38,488.738 2762.01,486.879 2745.05,485.332C2728.1,483.75 2711.17,482.969 2694.21,482.969C2679.51,482.969 2664.84,483.488 2650.16,484.539C2635.47,485.59 2620.22,487.699 2604.39,490.84L2373.9,1034.49L2350.17,252.84C2314.02,246.539 2278.99,243.398 2245.08,243.398C2208.92,243.398 2171.62,246.539 2133.23,252.84L2180.68,1318.68" style="fill:rgb(156,163,175);"/>
                        <path id="path24" d="M1304.1,1486.03L1312.75,1311.68C1454.09,1155.53 1509.88,934.391 1439.52,726.555C1334.49,416.301 988.168,253.211 665.98,362.281C343.797,471.34 167.754,811.273 272.781,1121.52C343.375,1330.05 522.977,1472.1 730.988,1509.71L843.375,1642.5C492.742,1651.99 161.941,1434.35 43.582,1084.72C-101.84,655.141 128.516,189.012 558.098,43.582C987.68,-101.84 1453.81,128.52 1599.24,558.102C1717.4,907.168 1587.45,1280.37 1304.1,1486.03" style="fill:rgb(156,163,175);"/>
                        <path id="path26" d="M1102.73,971.586L1096.78,1215.31L1092.01,1355.56L1088.78,1477.07C1088.78,1477.07 1089.45,1535.65 1087.41,1549.42C1086.98,1552.32 1086.07,1554.68 1084.98,1556.73L1084.57,1557.6L1084.1,1558.35C1081.86,1562.21 1078.32,1565.36 1073.75,1566.91C1069.08,1568.49 1064.24,1568.1 1060.04,1566.29L1059.78,1566.18L1058.33,1565.44C1056.34,1564.47 1054.31,1563.22 1052.33,1561.3C1042.34,1551.6 1007.29,1504.65 1007.29,1504.65L930.918,1410.1L841.934,1301.59L689.156,1111.59C689.156,1111.59 619.047,1024.09 634.539,916.387C650.031,808.684 730.102,756.215 792.223,735.188C854.34,714.156 949.816,707.199 1027.55,783.344C1105.28,859.488 1102.73,971.586 1102.73,971.586" style="fill:rgb(156,163,175);"/>
                        <path id="path28" d="M10250,254.281C10167.1,254.281 10100,321.398 10100,404.27C10100,487.121 10167.1,554.238 10250,554.238C10332.8,554.238 10400,487.121 10400,404.27C10400,321.398 10332.8,254.281 10250,254.281M10250,527.461C10182,527.461 10126.8,472.219 10126.8,404.27C10126.8,336.309 10182,281.059 10250,281.059C10317.9,281.059 10373.2,336.309 10373.2,404.27C10373.2,472.219 10317.9,527.461 10250,527.461M10224.2,459.832L10224.2,412.801L10251.3,412.801C10266.1,412.801 10274.4,421.5 10274.4,436.57C10274.4,446.281 10271.1,453.141 10264.4,456.82C10261,458.66 10256.3,459.832 10244.8,459.832L10224.2,459.832M10312.8,318.559L10287.3,318.559C10285.3,318.559 10283.5,319.57 10282.6,321.398L10250.1,382.5L10224.2,382.5L10224.2,323.91C10224.2,320.91 10221.9,318.559 10218.8,318.559L10196.4,318.559C10193.4,318.559 10191.1,320.91 10191.1,323.91L10191.1,484.609C10191.1,487.629 10193.4,489.969 10196.4,489.969L10245.6,489.969C10263.2,489.969 10270.9,488.449 10277.4,485.941C10296.3,478.91 10308.1,460.34 10308.1,437.582C10308.1,416.98 10297.9,399.582 10281.6,391.539C10282.1,390.699 10282.6,389.871 10283.1,388.871L10317.4,326.422C10318.3,324.75 10318.3,322.738 10317.3,321.238C10316.4,319.57 10314.6,318.559 10312.8,318.559" style="fill:rgb(156,163,175);fill-rule:nonzero;"/>
                    </g>
                </g>
            </g>
        </g>
    </g>
</svg>
