<?xml version="1.0" encoding="UTF-8" standalone="no"?>
<!DOCTYPE svg PUBLIC "-//W3C//DTD SVG 1.1//EN" "http://www.w3.org/Graphics/SVG/1.1/DTD/svg11.dtd">
<svg width="100%" height="100%" viewBox="0 0 127 48" version="1.1" xmlns="http://www.w3.org/2000/svg" xmlns:xlink="http://www.w3.org/1999/xlink" xml:space="preserve" xmlns:serif="http://www.serif.com/" style="fill-rule:evenodd;clip-rule:evenodd;stroke-linejoin:round;stroke-miterlimit:2;">
    <g transform="matrix(1,0,0,1,0.323302,-0.205911)">
        <g transform="matrix(0.563258,0,0,0.563258,8.69949,30.8453)">
            <path d="M0,-22.98L0,-10.681L-8.559,-22.98L-15.655,-22.98L-15.655,0L-8.221,0L-8.221,-12.299L0.337,0L7.433,0L7.433,-22.98L0,-22.98Z" style="fill:rgb(156,163,175);fill-rule:nonzero;"/>
        </g>
        <g transform="matrix(0.563258,0,0,0.563258,19.2928,30.8453)">
            <path d="M0,-22.98L-9.01,0L-1.352,0L-0.263,-3.041L8.372,-3.041L9.46,0L17.119,0L8.109,-22.98L0,-22.98ZM4.055,-15.74L6.622,-8.562L1.487,-8.562L4.055,-15.74Z" style="fill:rgb(156,163,175);fill-rule:nonzero;"/>
        </g>
        <g transform="matrix(0.563258,0,0,0.563258,42.7638,30.8453)">
            <path d="M0,-22.98L0,0L18.131,0L18.131,-5.633L7.321,-5.633L7.321,-8.729L17.794,-8.729L17.794,-14.25L7.321,-14.25L7.321,-17.347L17.906,-17.347L17.906,-22.98L0,-22.98Z" style="fill:rgb(156,163,175);fill-rule:nonzero;"/>
        </g>
        <g transform="matrix(0.563258,0,0,0.563258,37.1181,30.8453)">
            <path d="M0,-22.98L-5.406,-7.87L-10.812,-22.98L-18.47,-22.98L-9.46,0L-1.352,0L7.658,-22.98L0,-22.98Z" style="fill:rgb(156,163,175);fill-rule:nonzero;"/>
        </g>
        <g transform="matrix(0.563258,0,0,0.563258,61.2232,24.8176)">
            <path d="M0,-1.577L-3.942,-1.577L-3.942,-6.421L0,-6.421C1.337,-6.421 2.421,-5.336 2.421,-3.999C2.421,-2.661 1.337,-1.577 0,-1.577M5.7,2.527C8.37,1.408 9.728,-1.01 9.728,-4.08C9.728,-6.983 8.669,-9.13 6.582,-10.462C4.641,-11.701 2.125,-12.278 -1.338,-12.278L-11.037,-12.278L-11.037,10.701L-3.829,10.701L-3.829,4.28L-1.239,4.28L3.153,10.701L10.812,10.701L5.003,2.819L5.7,2.527Z" style="fill:rgb(156,163,175);fill-rule:nonzero;"/>
        </g>
        <g transform="matrix(0.563258,0,0,0.563258,97.2593,23.7473)">
            <path d="M0,7.415C-2.101,7.415 -3.568,5.89 -3.568,3.708C-3.568,1.525 -2.101,0.002 0,0.002C2.102,0.002 3.568,1.526 3.568,3.709C3.568,5.892 2.102,7.415 0,7.415M0,-5.701C-5.729,-5.701 -9.886,-1.744 -9.886,3.708C-9.886,9.16 -5.729,13.116 0,13.116C5.729,13.116 9.886,9.16 9.886,3.708C9.886,-1.744 5.729,-5.701 0,-5.701" style="fill:rgb(156,163,175);fill-rule:nonzero;"/>
        </g>
        <g transform="matrix(0.563258,0,0,0.563258,110.391,25.5712)">
            <path d="M0,1.423C0,3.061 -0.814,4 -2.235,4C-3.668,4 -4.489,3.061 -4.489,1.423L-4.489,-8.455L-10.967,-6.93L-10.967,1.68C-10.967,6.583 -7.458,9.878 -2.235,9.878C2.977,9.878 6.478,6.583 6.478,1.68L6.478,-8.455L0,-6.93L0,1.423Z" style="fill:rgb(156,163,175);fill-rule:nonzero;"/>
        </g>
        <g transform="matrix(0.563258,0,0,0.563258,121.075,20.4324)">
            <path d="M0,13.399C-2.153,13.399 -3.716,11.798 -3.716,9.593C-3.716,7.389 -2.153,5.788 0,5.788C2.152,5.788 3.715,7.389 3.715,9.593C3.715,11.798 2.152,13.399 0,13.399M3.171,-4.094L3.171,1.159C1.976,0.52 0.617,0.185 -0.789,0.185C-6.168,0.185 -10.071,4.141 -10.071,9.593C-10.071,15.056 -6.168,19.019 -0.789,19.019C1.086,19.019 2.846,18.367 4.185,17.193L4.737,18.441L9.582,18.441L9.582,-5.62L3.171,-4.094Z" style="fill:rgb(156,163,175);fill-rule:nonzero;"/>
        </g>
        <g transform="matrix(0.563258,0,0,0.563258,86.2213,17.2696)">
            <path d="M0,24.056L6.756,24.056L6.756,0L0,1.518L0,24.056Z" style="fill:rgb(156,163,175);fill-rule:nonzero;"/>
        </g>
        <g transform="matrix(0.563258,0,0,0.563258,78.2482,21.2327)">
            <path d="M0,11.274C-2.986,11.274 -5.153,8.912 -5.153,5.656C-5.153,2.371 -2.986,-0.013 0,-0.013C1.945,-0.013 3.618,1.075 4.478,2.898L10.976,1.338C9.36,-3.377 5.149,-6.307 -0.014,-6.307C-6.903,-6.307 -12.1,-1.164 -12.1,5.656C-12.1,12.455 -6.903,17.581 -0.014,17.581C5.662,17.581 10.129,14.042 11.366,8.564L11.407,8.38L4.404,8.38C3.598,10.193 1.951,11.274 0,11.274" style="fill:rgb(156,163,175);fill-rule:nonzero;"/>
        </g>
    </g>
</svg>
