<?xml version="1.0" encoding="UTF-8" standalone="no"?>
<!DOCTYPE svg PUBLIC "-//W3C//DTD SVG 1.1//EN" "http://www.w3.org/Graphics/SVG/1.1/DTD/svg11.dtd">
<svg width="100%" height="100%" viewBox="0 0 127 48" version="1.1" xmlns="http://www.w3.org/2000/svg" xmlns:xlink="http://www.w3.org/1999/xlink" xml:space="preserve" xmlns:serif="http://www.serif.com/" style="fill-rule:evenodd;clip-rule:evenodd;stroke-linejoin:round;stroke-miterlimit:2;">
    <g transform="matrix(0.653286,0,0,0.653286,16.8149,6.7922)">
        <path d="M141.586,49.807C142.113,49.788 142.599,50.091 142.813,50.573C143.027,51.056 142.926,51.619 142.558,51.998C142.191,52.376 141.63,52.492 141.142,52.292C140.654,52.091 140.337,51.614 140.341,51.087C140.335,50.391 140.89,49.82 141.586,49.807M141.586,52.155C142.148,52.097 142.575,51.623 142.575,51.057C142.575,50.492 142.148,50.018 141.586,49.96C141.023,50.018 140.596,50.492 140.596,51.057C140.596,51.623 141.023,52.097 141.586,52.155M141.175,50.37L141.668,50.37C141.779,50.363 141.887,50.405 141.966,50.483C142.045,50.562 142.086,50.67 142.079,50.781C142.086,50.947 141.98,51.097 141.82,51.145L141.82,51.227L142.079,51.744L141.867,51.744L141.586,51.192L141.327,51.192L141.327,51.826L141.128,51.826L141.175,50.37ZM141.633,51.028C141.698,51.032 141.762,51.006 141.807,50.959C141.852,50.911 141.874,50.847 141.867,50.781C141.874,50.716 141.852,50.651 141.807,50.604C141.762,50.556 141.698,50.531 141.633,50.535L141.374,50.535L141.374,51.028L141.633,51.028Z" style="fill:rgb(156,163,175);fill-rule:nonzero;"/>
        <path d="M69.437,11.08C69.437,17.301 65.199,21.95 58.602,21.95C52.004,21.95 47.872,17.254 47.872,11.08C47.733,8.178 48.813,5.35 50.85,3.279C52.888,1.208 55.698,0.082 58.602,0.174C61.502,0.099 64.306,1.219 66.355,3.273C68.404,5.327 69.519,8.133 69.437,11.033M52.227,11.033C52.227,14.754 54.681,17.841 58.602,17.841C62.523,17.841 65.035,14.754 65.035,11.033C65.121,9.264 64.484,7.535 63.271,6.245C62.058,4.954 60.373,4.212 58.602,4.189C54.681,4.189 52.227,7.358 52.227,11.033" style="fill:rgb(156,163,175);fill-rule:nonzero;"/>
        <path d="M71.609,27.69L71.609,0.643L75.706,0.643L75.964,4.024C77.61,1.568 80.392,0.117 83.348,0.174C89.605,0.174 93.913,4.776 93.913,11.033C93.913,17.29 89.851,21.985 83.348,21.985C80.812,21.985 77.56,21.093 75.999,18.463L75.999,27.632L71.609,27.69ZM89.487,11.08C89.605,9.293 88.949,7.542 87.687,6.273C86.424,5.004 84.677,4.339 82.89,4.447C81.112,4.369 79.384,5.044 78.13,6.307C76.876,7.569 76.213,9.302 76.304,11.08C76.25,12.853 76.922,14.572 78.166,15.838C79.409,17.103 81.116,17.806 82.89,17.783C84.677,17.83 86.402,17.132 87.654,15.856C88.905,14.58 89.57,12.841 89.487,11.056" style="fill:rgb(156,163,175);fill-rule:nonzero;"/>
        <path d="M100.088,12.77C100.463,15.987 103.046,18.017 106.897,18.017C109.127,18.087 111.296,17.282 112.942,15.775L115.771,18.522C113.389,20.866 110.155,22.138 106.814,22.044C99.959,22.044 95.568,17.689 95.568,11.009C95.452,8.081 96.573,5.239 98.657,3.178C100.74,1.117 103.594,0.027 106.521,0.174C113.236,0.174 117.802,4.318 117.004,12.77L100.088,12.77ZM112.813,9.096C112.52,5.75 110.195,4.06 106.638,4.06C103.511,3.837 100.721,6.01 100.17,9.096L112.813,9.096Z" style="fill:rgb(156,163,175);fill-rule:nonzero;"/>
        <path d="M135,21.48L135,10.317C135,6.724 132.969,4.236 129.377,4.236C125.785,4.236 123.507,7.147 123.507,10.575L123.507,21.48L119.152,21.48L119.152,0.597L123.284,0.597L123.472,3.696C125.177,1.544 127.77,0.286 130.516,0.28C135.552,0.28 139.484,3.801 139.484,10.34L139.484,21.539L135,21.48Z" style="fill:rgb(156,163,175);fill-rule:nonzero;"/>
        <g>
            <path d="M66.631,27.69L66.631,52.225L64.835,52.225L64.835,48.14C63.255,50.897 60.3,52.575 57.123,52.519C51.946,52.519 47.872,49.114 47.872,42.963C47.872,36.812 51.993,33.419 57.158,33.419C60.338,33.25 63.329,34.933 64.835,37.739L64.835,27.69L66.631,27.69ZM49.668,42.951C49.668,48.093 53.073,50.711 57.228,50.711C59.29,50.759 61.279,49.946 62.716,48.467C64.153,46.987 64.908,44.976 64.8,42.916C64.895,40.864 64.134,38.865 62.698,37.396C61.263,35.927 59.282,35.12 57.228,35.168C53.073,35.168 49.668,37.751 49.668,42.951" style="fill:rgb(156,163,175);fill-rule:nonzero;"/>
            <path d="M71.033,33.713L71.116,37.011C72.288,34.729 74.693,33.35 77.255,33.49C78.656,33.461 80.034,33.84 81.223,34.581L80.401,36.084C79.456,35.503 78.365,35.202 77.255,35.215C75.625,35.225 74.065,35.882 72.92,37.042C71.775,38.203 71.138,39.771 71.151,41.402L71.151,52.19L69.32,52.19L69.32,33.713L71.033,33.713Z" style="fill:rgb(156,163,175);fill-rule:nonzero;"/>
            <path d="M85.696,27.69C85.696,28.507 85.033,29.17 84.217,29.17C83.4,29.17 82.737,28.507 82.737,27.69C82.737,26.874 83.4,26.211 84.217,26.211C85.033,26.211 85.696,26.874 85.696,27.69M83.254,52.225L85.109,52.225L85.109,33.642L83.266,33.642L83.254,52.225Z" style="fill:rgb(156,163,175);fill-rule:nonzero;"/>
            <path d="M87.128,33.713L89.147,33.713L95.885,50.089L102.635,33.713L104.654,33.713L96.895,52.225L94.876,52.225L87.128,33.713Z" style="fill:rgb(156,163,175);fill-rule:nonzero;"/>
            <path d="M104.396,42.963C104.329,40.438 105.292,37.995 107.063,36.195C108.835,34.395 111.262,33.393 113.787,33.419C119,33.419 123.637,36.6 122.932,43.832L106.274,43.832C106.52,47.769 109.857,50.793 113.799,50.652C116.326,50.728 118.76,49.699 120.467,47.835L121.782,48.891C119.783,51.203 116.853,52.495 113.799,52.413C111.259,52.505 108.796,51.527 107.011,49.717C105.225,47.907 104.281,45.432 104.408,42.893M121.3,42.153C121.3,37.575 118.272,35.027 113.811,35.027C109.782,34.961 106.439,38.127 106.286,42.153L121.3,42.153Z" style="fill:rgb(156,163,175);fill-rule:nonzero;"/>
            <path d="M137.947,37.082C136.361,35.692 134.286,34.994 132.183,35.145C129.295,35.145 126.524,36.19 126.607,38.549C126.689,40.909 129.893,41.507 132.218,41.918C135.517,42.482 140.048,43.092 139.86,47.353C139.754,51.439 135.517,52.519 132.253,52.519C128.99,52.519 125.773,51.286 124.165,48.809L125.515,47.635C127.141,49.712 129.664,50.882 132.3,50.781C134.542,50.781 137.947,50.183 138.064,47.26C138.134,44.607 135.07,44.078 132.03,43.597C128.438,42.987 124.881,42.317 124.846,38.608C124.81,34.898 128.438,33.407 132.183,33.443C134.713,33.335 137.185,34.22 139.073,35.908L137.947,37.082Z" style="fill:rgb(156,163,175);fill-rule:nonzero;"/>
        </g>
        <path d="M-0,34.487C-0.004,41.412 4.026,47.706 10.317,50.6C16.608,53.495 24.009,52.46 29.266,47.952L29.266,34.687C29.102,41.071 23.837,46.137 17.451,46.055C11.066,45.973 5.932,40.774 5.932,34.388C5.932,28.002 11.066,22.802 17.451,22.72C23.837,22.638 29.102,27.704 29.266,34.088L29.266,21.034C24.008,16.538 16.615,15.509 10.329,18.399C4.043,21.288 0.011,27.569 -0,34.487Z" style="fill:rgb(156,163,175);fill-rule:nonzero;"/>
        <path d="M29.266,34.088C29.272,34.186 29.272,34.284 29.266,34.382C29.272,34.483 29.272,34.585 29.266,34.687L29.266,34.088Z" style="fill:rgb(156,163,175);fill-rule:nonzero;"/>
        <path d="M35.429,0.737L35.429,33.912C35.154,29.092 32.929,24.59 29.266,21.445L29.266,7.476L21.53,12.981L21.389,6.689L30.123,0.737L35.429,0.737Z" style="fill:rgb(156,163,175);fill-rule:nonzero;"/>
        <path d="M35.429,52.225L29.266,52.225L29.266,47.53C32.928,44.405 35.151,39.916 35.417,35.11L35.429,52.225Z" style="fill:rgb(156,163,175);fill-rule:nonzero;"/>
    </g>
</svg>
