<?xml version="1.0" encoding="UTF-8"?>
<svg xmlns="http://www.w3.org/2000/svg" xmlns:xlink="http://www.w3.org/1999/xlink" id="af023981-2d55-4029-a61e-b6a29bc82ae2" data-name="Layer 1" viewBox="0 0 303.538 95.521">
   <defs>
      <linearGradient id="fc1549a3-ceaa-4111-adae-0eeafcf0a536" x1="15.367" y1="34.866" x2="53.6" y2="34.866" gradientUnits="userSpaceOnUse">
         <stop offset="0" stop-color="#009bc4" />
         <stop offset="1" stop-color="#aacee4" />
      </linearGradient>
   </defs>
   <title>logo-openlogic-tagline</title>
   <circle cx="34.483" cy="34.866" r="19.117" fill="url(#fc1549a3-ceaa-4111-adae-0eeafcf0a536)" />
   <ellipse cx="271.922" cy="259.665" rx="4.499" ry="3.088" transform="translate(-348.86 36.824) rotate(-45)" fill="#fff" />
   <path d="M304.092,241.665a34.445,34.445,0,0,0-24.321-10.154c-.016,0-.032,0-.048,0l-.03,0-.122,0a34.678,34.678,0,1,0,24.521,10.157Zm3.3,39.378-9.457-5.512a20.582,20.582,0,0,0,.444-17.763l9.56-5.371a31.505,31.505,0,0,1-.547,28.646Zm-19.483-7.73,5.672,3.306a17.457,17.457,0,0,1-28.02,0l5.672-3.306a1.566,1.566,0,1,0-1.577-2.707l-5.737,3.344a17.469,17.469,0,0,1,14.237-25.18v6.485a1.567,1.567,0,0,0,3.133,0V248.8a17.468,17.468,0,0,1,13.934,25.153l-5.737-3.344a1.566,1.566,0,1,0-1.577,2.707Zm18.517-23.659-9.545,5.363a20.624,20.624,0,0,0-15.592-9.366V234.689A31.565,31.565,0,0,1,306.426,249.654Zm-28.27-14.979v10.954a20.62,20.62,0,0,0-15.918,9.424l-9.5-5.425A31.561,31.561,0,0,1,278.156,234.675ZM251.217,252.37l9.528,5.438a20.592,20.592,0,0,0,.462,17.723l-9.457,5.512a31.5,31.5,0,0,1-.533-28.673Zm2.148,31.358,9.476-5.524a20.606,20.606,0,0,0,15.15,8.53v10.959A31.556,31.556,0,0,1,253.365,283.728Zm27.759,13.966V286.736A20.609,20.609,0,0,0,296.3,278.2l9.476,5.524A31.556,31.556,0,0,1,281.124,297.694Z" transform="translate(-244.893 -231.508)" />
   <path d="M334.216,295.571a44.02,44.02,0,0,1-6.6-.4,7.316,7.316,0,0,1-3.8-1.6,6.387,6.387,0,0,1-1.837-3.521,32.342,32.342,0,0,1-.513-6.442V248.207a31.758,31.758,0,0,1,.512-6.4,6.371,6.371,0,0,1,1.838-3.486,7.322,7.322,0,0,1,3.8-1.6,54.3,54.3,0,0,1,13.206,0,7.568,7.568,0,0,1,3.846,1.608,6.244,6.244,0,0,1,1.873,3.482,31.673,31.673,0,0,1,.513,6.4V283.6a32.238,32.238,0,0,1-.514,6.441,6.258,6.258,0,0,1-1.873,3.518,7.554,7.554,0,0,1-3.845,1.608A44.059,44.059,0,0,1,334.216,295.571Zm.081-54.838c-1.865,0-3.05.342-3.622,1.046-.55.679-.818,2-.818,4.051v40.148a20.816,20.816,0,0,0,.124,2.54,3.155,3.155,0,0,0,.661,1.667,2.626,2.626,0,0,0,1.427.841,8.9,8.9,0,0,0,2.067.2,9.887,9.887,0,0,0,2.185-.2,2.561,2.561,0,0,0,1.48-.891,3.389,3.389,0,0,0,.652-1.692,20.271,20.271,0,0,0,.123-2.466V245.83a20.294,20.294,0,0,0-.123-2.466,2.954,2.954,0,0,0-.671-1.64,2.764,2.764,0,0,0-1.415-.794A9.092,9.092,0,0,0,334.3,240.733Z" transform="translate(-244.893 -231.508)" />
   <path d="M352.02,306.181V251.226h6.788v2.843l.8.2a5.439,5.439,0,0,1,2.792-2.7,12.327,12.327,0,0,1,4.466-.713,13.719,13.719,0,0,1,3.739.428,4.125,4.125,0,0,1,2.155,1.377,5.978,5.978,0,0,1,1.083,2.636,23.735,23.735,0,0,1,.315,4.189v27.084a24.239,24.239,0,0,1-.315,4.264,5.71,5.71,0,0,1-1.078,2.593,4.209,4.209,0,0,1-2.087,1.347,12.455,12.455,0,0,1-3.571.427,12.249,12.249,0,0,1-4.27-.641,5.541,5.541,0,0,1-2.689-2.212l-.775-1.175v15.009Zm11.468-49.344a5.07,5.07,0,0,0-2.671.582,4.738,4.738,0,0,0-1.641,1.949l-.046.09V286.67l.046.09a4.711,4.711,0,0,0,1.641,1.949,5.06,5.06,0,0,0,2.671.582,3.479,3.479,0,0,0,2.817-.932,5.114,5.114,0,0,0,.739-3.2V260.97a5.114,5.114,0,0,0-.739-3.2A3.477,3.477,0,0,0,363.488,256.837Z" transform="translate(-244.893 -231.508)" />
   <path d="M390.485,295.571a45.617,45.617,0,0,1-5.73-.294,6.577,6.577,0,0,1-3.286-1.209,4.622,4.622,0,0,1-1.541-2.625,21.981,21.981,0,0,1-.431-4.874V259.485a21.984,21.984,0,0,1,.431-4.873,4.632,4.632,0,0,1,1.541-2.626,6.582,6.582,0,0,1,3.286-1.209,45.847,45.847,0,0,1,5.73-.293,41.12,41.12,0,0,1,5.446.293,6.373,6.373,0,0,1,3.128,1.173,4.566,4.566,0,0,1,1.5,2.623,22.575,22.575,0,0,1,.431,4.912v15.754h-14.3V288.5c0,1.562.236,2.568.72,3.074s1.5.761,3.157.761c1.576,0,2.592-.246,3.108-.751s.77-1.517.77-3.084v-7.965h6.547v6.033a22.591,22.591,0,0,1-.431,4.913,4.573,4.573,0,0,1-1.5,2.623,6.385,6.385,0,0,1-3.129,1.173A41.266,41.266,0,0,1,390.485,295.571Zm.08-41.63c-1.653,0-2.653.227-3.148.715s-.729,1.459-.729,3.046v14.674h7.755V257.7c0-1.57-.255-2.569-.779-3.055A4.74,4.74,0,0,0,390.565,253.941Z" transform="translate(-244.893 -231.508)" />
   <path d="M423.9,294.829V260.3a3.614,3.614,0,0,0-.81-2.675,3.963,3.963,0,0,0-2.826-.789,5,5,0,0,0-3.072.721,4.89,4.89,0,0,0-1.409,1.824l-.039.084v35.363H408.4v-43.6h6.788v4.152l.79-1.4a5.537,5.537,0,0,1,2.541-2.348,12.364,12.364,0,0,1,4.965-.777,14.142,14.142,0,0,1,3.782.429,4.833,4.833,0,0,1,2.332,1.4,5.884,5.884,0,0,1,1.269,2.633,19.1,19.1,0,0,1,.391,4.171v35.344Z" transform="translate(-244.893 -231.508)" />
   <polygon points="192.576 63.32 192.576 5.545 200.971 5.545 200.971 56.744 210.452 56.744 210.452 63.32 192.576 63.32" />
   <path d="M469.53,295.571a45.635,45.635,0,0,1-5.731-.294,6.825,6.825,0,0,1-3.331-1.213,4.533,4.533,0,0,1-1.576-2.621,22.02,22.02,0,0,1-.43-4.874V259.485a22.023,22.023,0,0,1,.43-4.873,4.537,4.537,0,0,1,1.576-2.622,6.841,6.841,0,0,1,3.331-1.213,56.175,56.175,0,0,1,11.46,0,6.582,6.582,0,0,1,3.286,1.209,4.826,4.826,0,0,1,1.582,2.634,20.115,20.115,0,0,1,.469,4.865v27.084a20.156,20.156,0,0,1-.468,4.865,4.834,4.834,0,0,1-1.583,2.635,6.592,6.592,0,0,1-3.286,1.208A45.633,45.633,0,0,1,469.53,295.571Zm.16-41.185c-1.7,0-2.744.222-3.29.7a3.68,3.68,0,0,0-.828,2.84V288.2a3.978,3.978,0,0,0,.77,2.862c.521.512,1.534.751,3.188.751,1.717,0,2.749-.257,3.245-.807a4.184,4.184,0,0,0,.712-2.806v-30.28a3.823,3.823,0,0,0-.778-2.831A4.573,4.573,0,0,0,469.69,254.386Z" transform="translate(-244.893 -231.508)" />
   <rect x="268.924" y="19.718" width="7.27" height="43.603" />
   <rect x="268.924" y="11.371" width="7.27" height="5.288" />
   <path d="M538.006,295.571a40.293,40.293,0,0,1-5.762-.33,7.024,7.024,0,0,1-3.3-1.251,4.531,4.531,0,0,1-1.576-2.621,21.571,21.571,0,0,1-.431-4.8V259.485a19.755,19.755,0,0,1,.47-4.791,4.934,4.934,0,0,1,1.547-2.638,6.451,6.451,0,0,1,3.169-1.243,37.471,37.471,0,0,1,5.481-.329,40.512,40.512,0,0,1,5.762.329,6.291,6.291,0,0,1,3.2,1.275,4.738,4.738,0,0,1,1.47,2.664,23.338,23.338,0,0,1,.391,4.733v9.746H541.8V257.924a3.83,3.83,0,0,0-.778-2.832,4.58,4.58,0,0,0-3.019-.706c-1.708,0-2.734.227-3.228.715a3.982,3.982,0,0,0-.729,2.823V288.2a3.978,3.978,0,0,0,.77,2.862,4.382,4.382,0,0,0,3.027.751c1.633,0,2.678-.261,3.2-.8a4.01,4.01,0,0,0,.762-2.816V277.125h6.627v9.444a20.709,20.709,0,0,1-.468,4.9,4.667,4.667,0,0,1-1.576,2.628,6.609,6.609,0,0,1-3.137,1.177A38.779,38.779,0,0,1,538.006,295.571Z" transform="translate(-244.893 -231.508)" />
   <path d="M497.046,309.366a45.825,45.825,0,0,1-5.73-.293,6.831,6.831,0,0,1-3.331-1.213,4.538,4.538,0,0,1-1.577-2.621,22.07,22.07,0,0,1-.43-4.874v-3.592h7.11V302a3.983,3.983,0,0,0,.77,2.862c.521.512,1.535.75,3.188.75,1.716,0,2.748-.256,3.246-.806A4.19,4.19,0,0,0,501,302V289.241l-.724.743a9.985,9.985,0,0,1-2.775,2.178,10.672,10.672,0,0,1-4.476.737,11.873,11.873,0,0,1-3.643-.46,4.315,4.315,0,0,1-2.09-1.419,5.632,5.632,0,0,1-1.041-2.626,26.439,26.439,0,0,1-.276-4.125V259.485a23.589,23.589,0,0,1,.315-4.19,5.975,5.975,0,0,1,1.082-2.635,4.12,4.12,0,0,1,2.156-1.377,13.693,13.693,0,0,1,3.739-.428,11.974,11.974,0,0,1,4.42.712,5.82,5.82,0,0,1,2.844,2.708l.791,1.411v-4.46h6.788v49.139a20.194,20.194,0,0,1-.469,4.865,4.827,4.827,0,0,1-1.583,2.634,6.582,6.582,0,0,1-3.286,1.209A45.83,45.83,0,0,1,497.046,309.366Zm-.483-52.529a3.333,3.333,0,0,0-2.784.943,5.366,5.366,0,0,0-.691,3.19v21.889a5.361,5.361,0,0,0,.691,3.189,3.332,3.332,0,0,0,2.784.943,5.063,5.063,0,0,0,2.673-.582,4.737,4.737,0,0,0,1.64-1.948l.046-.091V259.458l-.046-.091a4.758,4.758,0,0,0-1.641-1.948A5.069,5.069,0,0,0,496.563,256.837Z" transform="translate(-244.893 -231.508)" />
   <path d="M370.429,322.82V307.781h2.08v6.281h.039a4.208,4.208,0,0,1,3.623-1.789,4.943,4.943,0,0,1,2.637.7,4.666,4.666,0,0,1,1.76,1.919,5.991,5.991,0,0,1,.613,2.739,6.226,6.226,0,0,1-.363,2.148,5.336,5.336,0,0,1-1,1.724,4.455,4.455,0,0,1-1.6,1.142,5.176,5.176,0,0,1-2.093.415,4.557,4.557,0,0,1-2.075-.468,4.156,4.156,0,0,1-1.568-1.4h-.039v1.621Zm1.992-5.2a4.511,4.511,0,0,0,.229,1.458,3.613,3.613,0,0,0,.645,1.168,2.851,2.851,0,0,0,1.045.777,3.4,3.4,0,0,0,1.391.279,3.19,3.19,0,0,0,1.768-.485,3.09,3.09,0,0,0,1.138-1.317,4.77,4.77,0,0,0,0-3.755,3.052,3.052,0,0,0-1.138-1.305,3.491,3.491,0,0,0-3.54,0,3.065,3.065,0,0,0-1.147,1.305A4.322,4.322,0,0,0,372.421,317.615Z" transform="translate(-244.893 -231.508)" />
   <path d="M382.4,312.439l2.188.02,3.076,8.065,3.037-8.085,2.168.02-5,12.168a4.721,4.721,0,0,1-1.172,1.855,2.312,2.312,0,0,1-1.553.547,5.313,5.313,0,0,1-1-.095,4.756,4.756,0,0,1-.717-.183l-.235-.1.41-1.666a2.847,2.847,0,0,0,1.094.235h.049a2.472,2.472,0,0,0,.259-.01,1.051,1.051,0,0,0,.249-.068.7.7,0,0,0,.268-.181,2.243,2.243,0,0,0,.254-.362,3.551,3.551,0,0,0,.269-.593l.5-1.38Z" transform="translate(-244.893 -231.508)" />
   <path d="M399.8,322.82V307.781h4.215a5.428,5.428,0,0,1,3.631,1.065,5.535,5.535,0,0,1,.618.644,3.527,3.527,0,0,1,.453.728,3.953,3.953,0,0,1,.283.859,4.892,4.892,0,0,1,.1.991,4.3,4.3,0,0,1-.365,1.836,4.023,4.023,0,0,1-1.085,1.387,5.4,5.4,0,0,1-3.627,1.074h-2.111v6.455Zm2.109-8.174h1.944a3.762,3.762,0,0,0,2.177-.566,2.242,2.242,0,0,0,.659-.825,2.685,2.685,0,0,0,.249-1.187,2.75,2.75,0,0,0-.122-.83,2.437,2.437,0,0,0-.322-.674,2.11,2.11,0,0,0-.464-.478,3.638,3.638,0,0,0-2.177-.586h-1.944Z" transform="translate(-244.893 -231.508)" />
   <path d="M410.446,317.635a5.719,5.719,0,0,1,.42-2.207,4.98,4.98,0,0,1,1.133-1.7,5.081,5.081,0,0,1,1.67-1.07,5.44,5.44,0,0,1,2.031-.381,5.129,5.129,0,0,1,2.55.63A4.47,4.47,0,0,1,420,314.661a5.179,5.179,0,0,1,.629,2.564c0,.117,0,.251-.015.4s-.022.273-.035.371l-.01.137h-8.016a3.4,3.4,0,0,0,.986,2.384,3.264,3.264,0,0,0,2.354.868,5.534,5.534,0,0,0,.916-.077,4.766,4.766,0,0,0,.783-.193q.327-.117.656-.27a4.942,4.942,0,0,0,.51-.271c.12-.077.243-.157.367-.241s.189-.129.2-.135l.892,1.187a.461.461,0,0,0-.094.085c-.057.056-.119.115-.188.175s-.16.135-.275.225a3.215,3.215,0,0,1-.387.26c-.144.083-.308.174-.491.269a4.093,4.093,0,0,1-.613.261c-.226.076-.464.145-.716.2a7.456,7.456,0,0,1-.849.145,8.526,8.526,0,0,1-.971.054,5.382,5.382,0,0,1-2.7-.664,4.583,4.583,0,0,1-1.831-1.9A6.04,6.04,0,0,1,410.446,317.635Zm2.129-.889h6.045a2.9,2.9,0,0,0-.107-.762,3.241,3.241,0,0,0-.347-.791,3.287,3.287,0,0,0-.576-.713,2.625,2.625,0,0,0-.845-.507,3.076,3.076,0,0,0-1.113-.2,3.214,3.214,0,0,0-1.1.186,2.584,2.584,0,0,0-.849.493,3.332,3.332,0,0,0-.591.7,3.3,3.3,0,0,0-.371.8A3.249,3.249,0,0,0,412.575,316.746Z" transform="translate(-244.893 -231.508)" />
   <path d="M423.163,322.82V312.459h2.109l-.019,1.629h.059a3.321,3.321,0,0,1,.639-1,2.541,2.541,0,0,1,.869-.61,2.668,2.668,0,0,1,1.04-.2,3.723,3.723,0,0,1,.586.044,3.073,3.073,0,0,1,.391.083l.117.036-.127,1.761h-1.221a1.894,1.894,0,0,0-1.04.278,2.557,2.557,0,0,0-.669.588,4.7,4.7,0,0,0-.625,2.609v5.148Z" transform="translate(-244.893 -231.508)" />
   <path d="M429.864,314.168v-1.68h1.485v-1.045a4.449,4.449,0,0,1,.7-2.773,3.194,3.194,0,0,1,1.022-.811,3.126,3.126,0,0,1,1.452-.322,7.682,7.682,0,0,1,.987.059,3.088,3.088,0,0,1,.625.127l.185.061-.136,1.618a3.978,3.978,0,0,0-1.182-.185,1.821,1.821,0,0,0-.684.119,1.25,1.25,0,0,0-.463.305,1.3,1.3,0,0,0-.269.475,2.9,2.9,0,0,0-.132.58,5.747,5.747,0,0,0-.034.67v1.122h2.471v1.68h-2.471v8.652h-2.07v-8.652Z" transform="translate(-244.893 -231.508)" />
   <path d="M436.692,317.685a5.639,5.639,0,0,1,.425-2.2,5.012,5.012,0,0,1,1.162-1.719,5.315,5.315,0,0,1,1.748-1.1,5.877,5.877,0,0,1,2.163-.4,5.79,5.79,0,0,1,2.145.4,5.246,5.246,0,0,1,1.735,1.1,5.054,5.054,0,0,1,1.156,1.719,5.907,5.907,0,0,1,0,4.39,5.007,5.007,0,0,1-1.156,1.708,5.206,5.206,0,0,1-1.735,1.089,5.848,5.848,0,0,1-2.145.39,6.442,6.442,0,0,1-1.284-.126,5.3,5.3,0,0,1-1.162-.376,5.675,5.675,0,0,1-1.015-.6,4.571,4.571,0,0,1-.845-.811,5.433,5.433,0,0,1-.64-.991,4.957,4.957,0,0,1-.41-1.166A6.019,6.019,0,0,1,436.692,317.685Zm2.11-.07a4.2,4.2,0,0,0,.4,1.87,3.187,3.187,0,0,0,1.182,1.322,3.3,3.3,0,0,0,1.8.49,3.241,3.241,0,0,0,1.778-.49,3.171,3.171,0,0,0,1.172-1.322,4.239,4.239,0,0,0,.4-1.87,4.166,4.166,0,0,0-.4-1.845,3.2,3.2,0,0,0-2.95-1.817,3.277,3.277,0,0,0-1.8.5,3.222,3.222,0,0,0-1.182,1.321A4.127,4.127,0,0,0,438.8,317.615Z" transform="translate(-244.893 -231.508)" />
   <path d="M450.327,322.82V312.459h2.11l-.02,1.629h.059a3.321,3.321,0,0,1,.639-1,2.551,2.551,0,0,1,.869-.61,2.668,2.668,0,0,1,1.04-.2,3.723,3.723,0,0,1,.586.044,3.073,3.073,0,0,1,.391.083l.117.036-.127,1.761h-1.22a1.9,1.9,0,0,0-1.041.278,2.536,2.536,0,0,0-.668.588,4.687,4.687,0,0,0-.625,2.609v5.148Z" transform="translate(-244.893 -231.508)" />
   <path d="M457.126,317.674a5.65,5.65,0,0,1,.439-2.244,4.953,4.953,0,0,1,1.177-1.715,5.407,5.407,0,0,1,3.677-1.442,7.641,7.641,0,0,1,1.245.1,4.942,4.942,0,0,1,1.011.267q.42.168.742.331a2.687,2.687,0,0,1,.552.36c.153.132.259.226.317.281s.108.108.147.154l-.743,1.526-.288-.269a4.213,4.213,0,0,0-.424-.317,3.5,3.5,0,0,0-.606-.332,4.549,4.549,0,0,0-.776-.229,4.634,4.634,0,0,0-.992-.1,3.351,3.351,0,0,0-2.373.962,3.262,3.262,0,0,0-.727,1.128,3.948,3.948,0,0,0-.269,1.474,3.787,3.787,0,0,0,.943,2.662,3.161,3.161,0,0,0,2.446,1.03,4.366,4.366,0,0,0,1.1-.137,3.889,3.889,0,0,0,.883-.327,5.75,5.75,0,0,0,.625-.386,3.283,3.283,0,0,0,.4-.322l.127-.137.742,1.522c-.013.012-.036.032-.068.057q-.177.184-.318.31a4.911,4.911,0,0,1-.522.371,4.376,4.376,0,0,1-.786.406,6.093,6.093,0,0,1-1.06.285,7.466,7.466,0,0,1-1.4.125,5.309,5.309,0,0,1-3.658-1.449,4.894,4.894,0,0,1-1.142-1.708A5.783,5.783,0,0,1,457.126,317.674Z" transform="translate(-244.893 -231.508)" />
   <path d="M467.968,317.635a5.719,5.719,0,0,1,.42-2.207,4.952,4.952,0,0,1,1.133-1.7,5.077,5.077,0,0,1,1.669-1.07,5.445,5.445,0,0,1,2.032-.381,5.127,5.127,0,0,1,2.549.63,4.47,4.47,0,0,1,1.753,1.758,5.168,5.168,0,0,1,.629,2.564c0,.117,0,.251-.015.4s-.021.273-.034.371l-.01.137h-8.017a3.4,3.4,0,0,0,.986,2.384,3.267,3.267,0,0,0,2.354.868,5.525,5.525,0,0,0,.916-.077,4.74,4.74,0,0,0,.783-.193q.328-.117.656-.27a4.942,4.942,0,0,0,.51-.271q.182-.115.367-.241c.124-.083.19-.129.2-.135l.892,1.187a.461.461,0,0,0-.094.085c-.056.056-.119.115-.187.175s-.161.135-.275.225a3.312,3.312,0,0,1-.388.26c-.144.083-.307.174-.49.269a4.106,4.106,0,0,1-.614.261c-.225.076-.464.145-.716.2a7.436,7.436,0,0,1-.848.145,8.531,8.531,0,0,1-.972.054,5.388,5.388,0,0,1-2.7-.664,4.583,4.583,0,0,1-1.831-1.9A6.04,6.04,0,0,1,467.968,317.635Zm2.129-.889h6.045a2.86,2.86,0,0,0-.108-.762,3.355,3.355,0,0,0-.923-1.5,2.609,2.609,0,0,0-.844-.507,3.085,3.085,0,0,0-1.114-.2,3.2,3.2,0,0,0-1.1.186,2.578,2.578,0,0,0-.85.493,3.427,3.427,0,0,0-.962,1.5A3.294,3.294,0,0,0,470.1,316.746Z" transform="translate(-244.893 -231.508)" />
</svg>
