<?xml version="1.0" encoding="utf-8"?>
<!-- Generator: Adobe Illustrator 26.0.3, SVG Export Plug-In . SVG Version: 6.00 Build 0)  -->
<svg version="1.1" id="Layer_1" xmlns="http://www.w3.org/2000/svg" xmlns:xlink="http://www.w3.org/1999/xlink" x="0px" y="0px"
	 viewBox="0 0 590.3 190.8" style="enable-background:new 0 0 590.3 190.8;" xml:space="preserve">
<style type="text/css">
	.st0{fill-rule:evenodd;clip-rule:evenodd;fill:rgb(156,163,175);}
	.st1{fill:rgb(156,163,175);}
</style>
<g>
	<path class="st0" d="M538.6,28.6c13.8,3.1,23.8,15.5,23.8,29.7v78.9c0,0.8,0.6,1.4,1.4,1.4h25c0.8,0,1.4-0.6,1.4-1.4V58.3
		c0-28.7-21.1-53.3-49.4-57.6c-2.9-0.5-5.9-0.7-8.9-0.7c-3,0-5.9,0.2-8.9,0.7c-28.3,4.4-49.4,29-49.4,57.6v78.9
		c0,0.8,0.6,1.4,1.4,1.4h25c0.8,0,1.4-0.6,1.4-1.4V58.3c0-14.2,10-26.6,23.8-29.7c2.2-0.5,4.4-0.7,6.7-0.7S536.4,28.1,538.6,28.6
		L538.6,28.6z"/>
	<path class="st0" d="M184.3,190.1c0.8,0,1.4-0.6,1.4-1.4V70.2c0-20.7,15-38.4,35.4-41.8c2.3-0.4,4.6-0.6,7-0.6c2.3,0,4.7,0.2,7,0.6
		l0.6,0.1c20.1,3.6,34.8,21.2,34.8,41.7c0,20.7-15,38.4-35.4,41.8c-2.3,0.4-4.6,0.6-7,0.6c-2.3,0-4.7-0.2-7-0.6l-0.6-0.1
		c-6.5-1.2-12.7-3.9-18-7.9c-0.5-0.3-1-0.4-1.5-0.1c-0.5,0.3-0.8,0.7-0.8,1.3l0,28.6c0,0.6,0.3,1.1,0.9,1.3c5.8,2.4,12,4.1,18.3,4.8
		c2.9,0.4,5.8,0.5,8.7,0.5c2.9,0,5.8-0.2,8.7-0.5c35.1-4.3,61.5-34.3,61.5-69.6c0-35.4-26.4-65.3-61.5-69.6C233.9,0.2,231,0,228.1,0
		c-2.9,0-5.8,0.2-8.7,0.5l0,0c-35.1,4.3-61.5,34.3-61.5,69.6v118.6c0,0.7,0.6,1.3,1.3,1.3H184.3z"/>
	<path class="st0" d="M415.9,100.1c-4.6,4.6-10.1,8-16.2,10.1c-0.1,0-0.3,0.1-0.4,0.1c-4.2,1.4-8.7,2.2-13.4,2.2
		c-9.8,0-19-3.4-26.4-9.2c-5.5-4.4-10-10.1-12.8-16.9c0-0.1,0-0.1-0.1-0.2c-2-4.9-3.1-10.4-3.1-16c0-5.7,1.1-11.1,3.1-16
		c0-0.1,0-0.1,0.1-0.2c2.8-6.7,7.2-12.5,12.6-16.8c0,0,0,0,0,0c7.3-5.8,16.5-9.3,26.5-9.3c9.8,0,19.1,3.4,26.5,9.3
		c5.5,4.4,9.9,10.1,12.7,16.8c0,0.1,0,0.1,0.1,0.2c0.3,0.7,0.6,1.4,0.8,2.1h-33.8h-28.9h0h-2.3c-1.5,4.4-2.3,9-2.3,13.9
		s0.8,9.6,2.3,13.9h2.3h0h13.7h49h4.5h23.3c0.7,0,1.3-0.5,1.4-1.2l0.5-4c0.4-2.9,0.5-5.8,0.5-8.7c0-2.9-0.2-5.8-0.5-8.7
		C451.2,26.4,421.3,0,385.9,0c-35.4,0-65.3,26.4-69.7,61.5c-0.4,2.9-0.5,5.8-0.5,8.7c0,2.9,0.2,5.8,0.5,8.7
		c4.3,35.1,34.3,61.5,69.7,61.5c18.7,0,36.4-7.4,49.6-20.6l3.2-3.2c0.5-0.5,0.5-1.4,0-2l-17.7-17.7c-0.5-0.5-1.4-0.5-2,0
		L415.9,100.1L415.9,100.1z"/>
	<path class="st0" d="M78.9,0.5C76,0.2,73.1,0,70.2,0c-2.9,0-5.8,0.2-8.7,0.5C42.1,2.9,25.3,13.2,14.3,27.8h55.9l0,0h0
		c2.3,0,4.7,0.2,7,0.6l0.6,0.1c20.1,3.6,34.8,21.2,34.8,41.7c0,20.7-15,38.4-35.4,41.8c-2.3,0.4-4.6,0.6-7,0.6c-2.3,0-4.7-0.2-7-0.6
		l-0.6-0.1c-20.1-3.6-34.8-21.2-34.8-41.7c0-10.6,4-20.4,10.6-27.9H5.9C2.1,50.9,0,60.3,0,70.2c0,35.4,26.4,65.3,61.5,69.6
		c2.9,0.4,5.8,0.5,8.7,0.5c2.9,0,5.8-0.2,8.7-0.5c35.1-4.3,61.5-34.3,61.5-69.6C140.4,34.8,114,4.9,78.9,0.5z"/>
	<path class="st1" d="M363.4,151h13.8c13.4,0,21.8,8.8,21.8,19.6c0,10.8-8.4,19.5-21.8,19.5h-13.8V151z M377.1,187
		c11.4,0,17.9-7.3,17.9-16.5c0-9.1-6.5-16.5-17.9-16.5H367v33H377.1z"/>
	<path class="st1" d="M424,173.9h-9.5v16.2h-3.7V151h16.1c7.4,0,13.1,4.3,13.1,11.4c0,7.1-5.6,11-11.9,11.2l12.5,16.4h-4.5
		L424,173.9z M426.6,154h-12.1v16.8h12.1c5.7,0,9.6-3.5,9.6-8.4S432.3,154,426.6,154z"/>
	<path class="st1" d="M452.5,151h3.7v39.1h-3.7V151z"/>
	<path class="st1" d="M468.1,151h4.3l15.6,35.3l15.7-35.3h4.3l-17.6,39.1h-4.6L468.1,151z"/>
	<path class="st1" d="M519.9,151h27.3v3h-23.6v14.5h23.2v3h-23.2V187h23.6v3h-27.3V151z"/>
	<path class="st1" d="M561.5,182c2.8,2.9,7.3,5.7,13.4,5.7c8.8,0,11.4-4.5,11.4-7.8c0-5.5-5.8-7-11.8-8.5c-6.8-1.7-14-3.5-14-10.7
		c0-6.4,6.3-10.4,14.1-10.4c6.4,0,11.2,2,14.6,5.5l-2.5,2.5c-3.1-3.4-7.5-4.9-12.3-4.9c-5.7,0-10.1,3-10.1,7.2c0,4.6,5.4,6,11.2,7.4
		c6.9,1.8,14.6,3.7,14.6,11.7c0,5-3.7,11-15.3,11c-7.1,0-12.5-2.6-15.8-6.2L561.5,182z"/>
</g>
</svg>
