<?xml version="1.0" encoding="utf-8"?>
<!-- Generator: Adobe Illustrator 25.4.1, SVG Export Plug-In . SVG Version: 6.00 Build 0)  -->
<svg version="1.1" id="Layer_1" xmlns="http://www.w3.org/2000/svg" xmlns:xlink="http://www.w3.org/1999/xlink" x="0px" y="0px"
	 viewBox="0 0 213.77 29.97" style="enable-background:new 0 0 213.77 29.97;" xml:space="preserve">
<g>
	<g>
		<g>
			<g>
				<g>
					<path d="M101.21,21.23c-1.42,0-2.71-0.31-3.85-0.92c-1.14-0.61-2.03-1.47-2.66-2.57l1.38-1.67c1.26,2.04,2.96,3.05,5.11,3.05
						c1.1,0,1.95-0.24,2.55-0.72c0.6-0.48,0.91-1.13,0.91-1.96c0-0.74-0.25-1.35-0.74-1.85c-0.5-0.49-1.27-0.91-2.34-1.26
						l-1.89-0.59c-1.48-0.47-2.55-1.07-3.23-1.81c-0.68-0.74-1.01-1.66-1.01-2.76c0-0.94,0.24-1.76,0.72-2.49
						c0.48-0.72,1.14-1.29,1.99-1.7c0.85-0.41,1.81-0.62,2.89-0.62c1.23,0,2.32,0.24,3.27,0.72c0.95,0.48,1.71,1.17,2.27,2.07
						l-1.38,1.67c-0.92-1.57-2.3-2.35-4.14-2.35c-1.03,0-1.84,0.23-2.45,0.68C98,6.61,97.7,7.23,97.7,8.02
						c0,0.67,0.22,1.21,0.66,1.62c0.44,0.41,1.19,0.79,2.26,1.13l1.89,0.59c2.94,0.94,4.41,2.58,4.41,4.94
						c0,1.48-0.52,2.67-1.57,3.57C104.3,20.78,102.92,21.23,101.21,21.23z"/>
					<path d="M109.64,26.07l3.7-7.46l-5.54-11.43h2.46l4.27,9.24l4.24-9.24h2.3l-9.16,18.88H109.64z"/>
					<path d="M122.53,20.93V7.16h1.86l0.24,2.54c0.45-0.86,1.05-1.55,1.81-2.05c0.76-0.5,1.59-0.76,2.51-0.76
						c1.04,0,1.94,0.28,2.69,0.84c0.75,0.56,1.29,1.37,1.64,2.43c0.43-0.99,1.07-1.78,1.91-2.38c0.84-0.59,1.77-0.89,2.8-0.89
						c1.44,0,2.59,0.52,3.45,1.57c0.86,1.04,1.28,2.56,1.28,4.54v7.94h-2.16V13.1c0-1.33-0.28-2.35-0.84-3.05
						c-0.56-0.7-1.32-1.05-2.27-1.05c-0.74,0-1.39,0.21-1.96,0.63c-0.57,0.42-1.01,0.99-1.32,1.69c-0.32,0.7-0.47,1.47-0.47,2.3
						v7.32h-2.16V13.1c0-1.33-0.28-2.35-0.84-3.05c-0.56-0.7-1.31-1.05-2.24-1.05c-0.76,0-1.41,0.22-1.97,0.65
						c-0.56,0.43-1,1-1.31,1.69c-0.32,0.69-0.47,1.45-0.47,2.28v7.32H122.53z"/>
					<path d="M144.99,26.07V7.16h1.86l0.24,2.59c0.41-0.86,1.04-1.56,1.86-2.08c0.83-0.52,1.77-0.78,2.81-0.78
						c1.15,0,2.18,0.31,3.09,0.92c0.91,0.61,1.63,1.45,2.16,2.53c0.53,1.07,0.8,2.31,0.8,3.71c0,1.39-0.27,2.62-0.8,3.7
						c-0.53,1.08-1.25,1.93-2.16,2.54c-0.91,0.61-1.94,0.92-3.09,0.92c-1.05,0-1.97-0.26-2.78-0.77c-0.81-0.51-1.42-1.2-1.84-2.07
						v7.7H144.99z M151.37,19.1c0.81,0,1.54-0.21,2.18-0.63c0.64-0.42,1.14-1.02,1.51-1.78c0.37-0.77,0.55-1.64,0.55-2.63
						c0-1.01-0.19-1.89-0.55-2.65c-0.37-0.76-0.87-1.35-1.51-1.77c-0.64-0.42-1.36-0.63-2.18-0.63c-0.81,0-1.54,0.21-2.18,0.63
						c-0.64,0.42-1.14,1.01-1.51,1.77c-0.37,0.76-0.55,1.64-0.55,2.65c0,0.99,0.18,1.87,0.55,2.63c0.37,0.77,0.87,1.36,1.51,1.78
						C149.83,18.88,150.55,19.1,151.37,19.1z"/>
					<path d="M159.55,20.93V1.75h2.16v7.92c0.45-0.86,1.06-1.54,1.84-2.04c0.77-0.49,1.65-0.74,2.62-0.74c1.5,0,2.68,0.52,3.57,1.57
						c0.88,1.04,1.32,2.56,1.32,4.54v7.94h-2.16V13.1c0-1.33-0.29-2.35-0.88-3.05c-0.59-0.7-1.37-1.05-2.36-1.05
						c-0.77,0-1.46,0.21-2.05,0.63c-0.59,0.42-1.06,0.99-1.39,1.69c-0.33,0.7-0.5,1.47-0.5,2.3v7.32H159.55z"/>
					<path d="M179.29,21.26c-1.26,0-2.39-0.31-3.38-0.92c-0.99-0.61-1.77-1.46-2.35-2.55c-0.58-1.09-0.86-2.34-0.86-3.74
						c0-1.42,0.29-2.67,0.86-3.75c0.58-1.08,1.36-1.93,2.35-2.54c0.99-0.61,2.12-0.92,3.38-0.92c1.26,0,2.39,0.31,3.38,0.92
						c0.99,0.61,1.77,1.46,2.35,2.54c0.58,1.08,0.87,2.33,0.87,3.75c0,1.4-0.29,2.65-0.87,3.74c-0.58,1.09-1.36,1.94-2.35,2.55
						C181.68,20.95,180.55,21.26,179.29,21.26z M179.29,19.15c1.28,0,2.33-0.46,3.15-1.39c0.82-0.93,1.23-2.17,1.23-3.71
						c0-1.55-0.41-2.79-1.23-3.71c-0.82-0.93-1.87-1.39-3.15-1.39c-1.26,0-2.31,0.46-3.14,1.39c-0.83,0.93-1.24,2.17-1.24,3.71
						c0,1.55,0.41,2.79,1.24,3.71C176.99,18.69,178.03,19.15,179.29,19.15z"/>
					<path d="M187.61,20.93V7.16h1.86l0.24,2.57c0.45-0.88,1.07-1.58,1.85-2.08c0.78-0.5,1.67-0.76,2.66-0.76
						c1.5,0,2.68,0.52,3.57,1.57c0.88,1.04,1.32,2.56,1.32,4.54v7.94h-2.16V13.1c0-1.33-0.29-2.35-0.88-3.05
						c-0.59-0.7-1.37-1.05-2.36-1.05c-0.77,0-1.46,0.21-2.05,0.63c-0.59,0.42-1.06,0.99-1.39,1.69c-0.33,0.7-0.5,1.47-0.5,2.3v7.32
						H187.61z"/>
					<path d="M201.51,26.07l3.7-7.46l-5.54-11.43h2.46l4.27,9.24l4.24-9.24h2.3l-9.16,18.88H201.51z"/>
				</g>
				<g>
					<g>
						<g>
							<polygon points="72.36,23.65 18.81,23.65 23.07,27.92 							"/>
							<path d="M23.77,6.41v0.64c-0.99-0.63-1.89-1-3.11-1c-3.75,0-6.6,3.42-6.6,7.62c0,4.2,2.85,7.62,6.6,7.62
								c1.22,0,2.11-0.37,3.11-1v0.64h3.3V6.41H23.77z M20.66,17.79c-1.85,0-3.2-1.82-3.2-4.12c0-2.3,1.35-4.12,3.2-4.12
								c1.85,0,3.16,1.82,3.16,4.12C23.82,15.97,22.51,17.79,20.66,17.79z"/>
							<path d="M50.18,6.41v8.53c0,1.6-1.1,2.95-2.7,2.95c-1.6,0-2.7-1.35-2.7-2.95V6.41h-3.3v8.53c0,3.5,2.4,6.35,5.9,6.35
								c1.62,0,2.8-0.9,2.8-0.9v0.54h3.3V6.41H50.18z"/>
							<path d="M80.91,20.93V12.4c0-1.6,1.1-2.95,2.7-2.95c1.6,0,2.7,1.35,2.7,2.95v8.53h3.3V12.4c0-3.5-2.4-6.35-5.9-6.35
								c-1.62,0-2.8,0.9-2.8,0.9V6.41h-3.3v14.52H80.91z"/>
							<path d="M4.55,20.93v-5.63h2.44l4.22,5.63h4.32l-5.1-6.79c1.59-1.14,2.63-3,2.63-5.1c0-3.45-2.81-6.25-6.26-6.25h-5.7v18.14
								H4.55z M4.55,6.24H6.8c1.55,0,2.82,1.26,2.82,2.81c0,1.56-1.27,2.81-2.82,2.81H4.55V6.24z"/>
							<path d="M62.37,17.5c-0.3,0.2-0.67,0.36-1.1,0.36c-0.54,0-1.55-0.41-1.55-1.78V9.86h2.82V6.41h-2.82l0-3.62h-3.3l0,3.62
								h-1.74v3.45h1.74v6.27c0,3.24,2.44,5.18,4.9,5.18c0.92,0,2.19-0.3,3.23-0.91L62.37,17.5z"/>
							<polygon points="35.26,13.22 40.92,6.41 36.3,6.41 32.34,11.47 32.34,1.59 28.95,1.59 28.95,20.93 32.34,20.93 32.34,14.97 
								37.2,20.93 41.83,20.93 							"/>
							<path d="M69.99,6.04c-3.82,0-6.55,3.35-6.55,7.63c0,4.5,3.44,7.63,6.88,7.63c1.74,0,3.97-0.6,5.84-3.25l-2.91-1.68
								c-2.25,3.32-6.01,1.63-6.44-1.68l9.5,0C77.11,9.47,73.74,6.04,69.99,6.04z M72.87,11.8h-5.94C67.62,8.4,72.22,8.2,72.87,11.8
								z"/>
						</g>
					</g>
				</g>
			</g>
		</g>
	</g>
</g>
</svg>
