<?xml version="1.0" encoding="UTF-8" standalone="no"?>
<!DOCTYPE svg PUBLIC "-//W3C//DTD SVG 1.1//EN" "http://www.w3.org/Graphics/SVG/1.1/DTD/svg11.dtd">
<svg width="100%" height="100%" viewBox="0 0 127 48" version="1.1" xmlns="http://www.w3.org/2000/svg" xmlns:xlink="http://www.w3.org/1999/xlink" xml:space="preserve" xmlns:serif="http://www.serif.com/" style="fill-rule:evenodd;clip-rule:evenodd;stroke-linejoin:round;stroke-miterlimit:2;">
    <g transform="matrix(0.599509,0,0,0.599509,-0.65946,15.1542)">
        <g>
            <g>
                <g>
                    <g>
                        <path d="M101.21,21.23C99.79,21.23 98.5,20.92 97.36,20.31C96.22,19.7 95.33,18.84 94.7,17.74L96.08,16.07C97.34,18.11 99.04,19.12 101.19,19.12C102.29,19.12 103.14,18.88 103.74,18.4C104.34,17.92 104.65,17.27 104.65,16.44C104.65,15.7 104.4,15.09 103.91,14.59C103.41,14.1 102.64,13.68 101.57,13.33L99.68,12.74C98.2,12.27 97.13,11.67 96.45,10.93C95.77,10.19 95.44,9.27 95.44,8.17C95.44,7.23 95.68,6.41 96.16,5.68C96.64,4.96 97.3,4.39 98.15,3.98C99,3.57 99.96,3.36 101.04,3.36C102.27,3.36 103.36,3.6 104.31,4.08C105.26,4.56 106.02,5.25 106.58,6.15L105.2,7.82C104.28,6.25 102.9,5.47 101.06,5.47C100.03,5.47 99.22,5.7 98.61,6.15C98,6.61 97.7,7.23 97.7,8.02C97.7,8.69 97.92,9.23 98.36,9.64C98.8,10.05 99.55,10.43 100.62,10.77L102.51,11.36C105.45,12.3 106.92,13.94 106.92,16.3C106.92,17.78 106.4,18.97 105.35,19.87C104.3,20.78 102.92,21.23 101.21,21.23Z" style="fill:rgb(156,163,175);fill-rule:nonzero;"/>
                        <path d="M109.64,26.07L113.34,18.61L107.8,7.18L110.26,7.18L114.53,16.42L118.77,7.18L121.07,7.18L111.91,26.06L109.64,26.06L109.64,26.07Z" style="fill:rgb(156,163,175);fill-rule:nonzero;"/>
                        <path d="M122.53,20.94L122.53,7.16L124.39,7.16L124.63,9.7C125.08,8.84 125.68,8.15 126.44,7.65C127.2,7.15 128.03,6.89 128.95,6.89C129.99,6.89 130.89,7.17 131.64,7.73C132.39,8.29 132.93,9.1 133.28,10.16C133.71,9.17 134.35,8.38 135.19,7.78C136.03,7.19 136.96,6.89 137.99,6.89C139.43,6.89 140.58,7.41 141.44,8.46C142.3,9.5 142.72,11.02 142.72,13L142.72,20.94L140.56,20.94L140.56,13.1C140.56,11.77 140.28,10.75 139.72,10.05C139.16,9.35 138.4,9 137.45,9C136.71,9 136.06,9.21 135.49,9.63C134.92,10.05 134.48,10.62 134.17,11.32C133.85,12.02 133.7,12.79 133.7,13.62L133.7,20.94L131.54,20.94L131.54,13.1C131.54,11.77 131.26,10.75 130.7,10.05C130.14,9.35 129.39,9 128.46,9C127.7,9 127.05,9.22 126.49,9.65C125.93,10.08 125.49,10.65 125.18,11.34C124.86,12.03 124.71,12.79 124.71,13.62L124.71,20.94L122.53,20.94Z" style="fill:rgb(156,163,175);fill-rule:nonzero;"/>
                        <path d="M144.99,26.07L144.99,7.16L146.85,7.16L147.09,9.75C147.5,8.89 148.13,8.19 148.95,7.67C149.78,7.15 150.72,6.89 151.76,6.89C152.91,6.89 153.94,7.2 154.85,7.81C155.76,8.42 156.48,9.26 157.01,10.34C157.54,11.41 157.81,12.65 157.81,14.05C157.81,15.44 157.54,16.67 157.01,17.75C156.48,18.83 155.76,19.68 154.85,20.29C153.94,20.9 152.91,21.21 151.76,21.21C150.71,21.21 149.79,20.95 148.98,20.44C148.17,19.93 147.56,19.24 147.14,18.37L147.14,26.07L144.99,26.07ZM151.37,19.1C152.18,19.1 152.91,18.89 153.55,18.47C154.19,18.05 154.69,17.45 155.06,16.69C155.43,15.92 155.61,15.05 155.61,14.06C155.61,13.05 155.42,12.17 155.06,11.41C154.69,10.65 154.19,10.06 153.55,9.64C152.91,9.22 152.19,9.01 151.37,9.01C150.56,9.01 149.83,9.22 149.19,9.64C148.55,10.06 148.05,10.65 147.68,11.41C147.31,12.17 147.13,13.05 147.13,14.06C147.13,15.05 147.31,15.93 147.68,16.69C148.05,17.46 148.55,18.05 149.19,18.47C149.83,18.88 150.55,19.1 151.37,19.1Z" style="fill:rgb(156,163,175);fill-rule:nonzero;"/>
                        <path d="M159.55,20.94L159.55,1.75L161.71,1.75L161.71,9.67C162.16,8.81 162.77,8.13 163.55,7.63C164.32,7.14 165.2,6.89 166.17,6.89C167.67,6.89 168.85,7.41 169.74,8.46C170.62,9.5 171.06,11.02 171.06,13L171.06,20.94L168.9,20.94L168.9,13.1C168.9,11.77 168.61,10.75 168.02,10.05C167.43,9.35 166.65,9 165.66,9C164.89,9 164.2,9.21 163.61,9.63C163.02,10.05 162.55,10.62 162.22,11.32C161.89,12.02 161.72,12.79 161.72,13.62L161.72,20.94L159.55,20.94Z" style="fill:rgb(156,163,175);fill-rule:nonzero;"/>
                        <path d="M179.29,21.26C178.03,21.26 176.9,20.95 175.91,20.34C174.92,19.73 174.14,18.88 173.56,17.79C172.98,16.7 172.7,15.45 172.7,14.05C172.7,12.63 172.99,11.38 173.56,10.3C174.14,9.22 174.92,8.37 175.91,7.76C176.9,7.15 178.03,6.84 179.29,6.84C180.55,6.84 181.68,7.15 182.67,7.76C183.66,8.37 184.44,9.22 185.02,10.3C185.6,11.38 185.89,12.63 185.89,14.05C185.89,15.45 185.6,16.7 185.02,17.79C184.44,18.88 183.66,19.73 182.67,20.34C181.68,20.95 180.55,21.26 179.29,21.26ZM179.29,19.15C180.57,19.15 181.62,18.69 182.44,17.76C183.26,16.83 183.67,15.59 183.67,14.05C183.67,12.5 183.26,11.26 182.44,10.34C181.62,9.41 180.57,8.95 179.29,8.95C178.03,8.95 176.98,9.41 176.15,10.34C175.32,11.27 174.91,12.51 174.91,14.05C174.91,15.6 175.32,16.84 176.15,17.76C176.99,18.69 178.03,19.15 179.29,19.15Z" style="fill:rgb(156,163,175);fill-rule:nonzero;"/>
                        <path d="M187.61,20.94L187.61,7.16L189.47,7.16L189.71,9.73C190.16,8.85 190.78,8.15 191.56,7.65C192.34,7.15 193.23,6.89 194.22,6.89C195.72,6.89 196.9,7.41 197.79,8.46C198.67,9.5 199.11,11.02 199.11,13L199.11,20.94L196.95,20.94L196.95,13.1C196.95,11.77 196.66,10.75 196.07,10.05C195.48,9.35 194.7,9 193.71,9C192.94,9 192.25,9.21 191.66,9.63C191.07,10.05 190.6,10.62 190.27,11.32C189.94,12.02 189.77,12.79 189.77,13.62L189.77,20.94L187.61,20.94Z" style="fill:rgb(156,163,175);fill-rule:nonzero;"/>
                        <path d="M201.51,26.07L205.21,18.61L199.67,7.18L202.13,7.18L206.4,16.42L210.64,7.18L212.94,7.18L203.78,26.06L201.51,26.06L201.51,26.07Z" style="fill:rgb(156,163,175);fill-rule:nonzero;"/>
                    </g>
                    <g>
                        <g>
                            <g>
                                <path d="M72.36,23.65L18.81,23.65L23.07,27.92L72.36,23.65Z" style="fill:rgb(156,163,175);fill-rule:nonzero;"/>
                                <path d="M23.77,6.41L23.77,7.05C22.78,6.42 21.88,6.05 20.66,6.05C16.91,6.05 14.06,9.47 14.06,13.67C14.06,17.87 16.91,21.29 20.66,21.29C21.88,21.29 22.77,20.92 23.77,20.29L23.77,20.93L27.07,20.93L27.07,6.41L23.77,6.41ZM20.66,17.79C18.81,17.79 17.46,15.97 17.46,13.67C17.46,11.37 18.81,9.55 20.66,9.55C22.51,9.55 23.82,11.37 23.82,13.67C23.82,15.97 22.51,17.79 20.66,17.79Z" style="fill:rgb(156,163,175);fill-rule:nonzero;"/>
                                <path d="M50.18,6.41L50.18,14.94C50.18,16.54 49.08,17.89 47.48,17.89C45.88,17.89 44.78,16.54 44.78,14.94L44.78,6.41L41.48,6.41L41.48,14.94C41.48,18.44 43.88,21.29 47.38,21.29C49,21.29 50.18,20.39 50.18,20.39L50.18,20.93L53.48,20.93L53.48,6.41L50.18,6.41Z" style="fill:rgb(156,163,175);fill-rule:nonzero;"/>
                                <path d="M80.91,20.93L80.91,12.4C80.91,10.8 82.01,9.45 83.61,9.45C85.21,9.45 86.31,10.8 86.31,12.4L86.31,20.93L89.61,20.93L89.61,12.4C89.61,8.9 87.21,6.05 83.71,6.05C82.09,6.05 80.91,6.95 80.91,6.95L80.91,6.41L77.61,6.41L77.61,20.93L80.91,20.93Z" style="fill:rgb(156,163,175);fill-rule:nonzero;"/>
                                <path d="M4.55,20.93L4.55,15.3L6.99,15.3L11.21,20.93L15.53,20.93L10.43,14.14C12.02,13 13.06,11.14 13.06,9.04C13.06,5.59 10.25,2.79 6.8,2.79L1.1,2.79L1.1,20.93L4.55,20.93ZM4.55,6.24L6.8,6.24C8.35,6.24 9.62,7.5 9.62,9.05C9.62,10.61 8.35,11.86 6.8,11.86L4.55,11.86L4.55,6.24Z" style="fill:rgb(156,163,175);fill-rule:nonzero;"/>
                                <path d="M62.37,17.5C62.07,17.7 61.7,17.86 61.27,17.86C60.73,17.86 59.72,17.45 59.72,16.08L59.72,9.86L62.54,9.86L62.54,6.41L59.72,6.41L59.72,2.79L56.42,2.79L56.42,6.41L54.68,6.41L54.68,9.86L56.42,9.86L56.42,16.13C56.42,19.37 58.86,21.31 61.32,21.31C62.24,21.31 63.51,21.01 64.55,20.4L62.37,17.5Z" style="fill:rgb(156,163,175);fill-rule:nonzero;"/>
                                <path d="M35.26,13.22L40.92,6.41L36.3,6.41L32.34,11.47L32.34,1.59L28.95,1.59L28.95,20.93L32.34,20.93L32.34,14.97L37.2,20.93L41.83,20.93L35.26,13.22Z" style="fill:rgb(156,163,175);fill-rule:nonzero;"/>
                                <path d="M69.99,6.04C66.17,6.04 63.44,9.39 63.44,13.67C63.44,18.17 66.88,21.3 70.32,21.3C72.06,21.3 74.29,20.7 76.16,18.05L73.25,16.37C71,19.69 67.24,18 66.81,14.69L76.31,14.69C77.11,9.47 73.74,6.04 69.99,6.04ZM72.87,11.8L66.93,11.8C67.62,8.4 72.22,8.2 72.87,11.8Z" style="fill:rgb(156,163,175);fill-rule:nonzero;"/>
                            </g>
                        </g>
                    </g>
                </g>
            </g>
        </g>
    </g>
</svg>
