<?xml version="1.0" encoding="UTF-8" standalone="no"?>
<!-- Generator: Adobe Illustrator 24.1.3, SVG Export Plug-In . SVG Version: 6.00 Build 0)  -->

<svg
   version="1.1"
   id="Layer_1"
   x="0px"
   y="0px"
   viewBox="0 0 991.8 374.85399"
   xml:space="preserve"
   sodipodi:docname="riscvinternational-logocloud.svg"
   width="991.79999"
   height="374.854"
   inkscape:version="1.3.2 (091e20e, 2023-11-25)"
   xmlns:inkscape="http://www.inkscape.org/namespaces/inkscape"
   xmlns:sodipodi="http://sodipodi.sourceforge.net/DTD/sodipodi-0.dtd"
   xmlns="http://www.w3.org/2000/svg"
   xmlns:svg="http://www.w3.org/2000/svg"><defs
   id="defs7" /><sodipodi:namedview
   id="namedview7"
   pagecolor="#ffffff"
   bordercolor="#000000"
   borderopacity="0.25"
   inkscape:showpageshadow="2"
   inkscape:pageopacity="0.0"
   inkscape:pagecheckerboard="0"
   inkscape:deskcolor="#d1d1d1"
   inkscape:zoom="1.0237314"
   inkscape:cx="495.7355"
   inkscape:cy="248.11195"
   inkscape:window-width="1920"
   inkscape:window-height="1027"
   inkscape:window-x="0"
   inkscape:window-y="25"
   inkscape:window-maximized="1"
   inkscape:current-layer="Layer_1" />
<style
   type="text/css"
   id="style1">
	.st0{fill:rgb(156,163,175);}
	.st1{fill:rgb(156,163,175);}
</style>
<g
   id="g7"
   transform="translate(0,104)">
	<g
   id="g5">
		<path
   class="st0"
   d="M 88,49.2 C 88,72.1 74.1,92.8 47.1,97.7 l 38.1,45 3.4,-4.8 68.6,-97 V 0 H 45.7 C 74.1,2.8 88,26.3 88,49.2 Z"
   id="path1" />
		<path
   class="st1"
   d="M 9.7,76.9 H 36 c 19.4,0 29.1,-13.8 29.1,-27.7 0,-13.9 -9.7,-27 -29.1,-27 H 0 V 157.3 H 67.2 L 9.7,88 Z m 97.7,73.4 50.6,-70.7 v 77.6 h -55.6 z"
   id="path2" />
		<rect
   x="388.70001"
   y="26.299999"
   class="st1"
   width="22.9"
   height="107.4"
   id="rect2" />
		<path
   class="st1"
   d="m 547.8,110.2 -119,-0.1 v 23.6 h 119.9 c 9,0 16.6,-3.5 22.9,-9.7 6.2,-6.2 9.7,-13.9 9.7,-22.9 0,-9 -3.5,-16.6 -9.7,-22.9 -6.2,-6.2 -13.9,-9.7 -22.9,-9.7 L 461.5,68 c -5.1,0 -9.3,-4.2 -9.3,-9.3 v 0 0 c 0,-5.2 4.2,-9.3 9.4,-9.3 l 119.7,-0.1 v -23 H 461.4 c -9,0 -16.6,3.5 -22.9,9.7 -6.2,6.2 -9.7,13.9 -9.7,22.9 0,9 3.5,16.6 9.7,22.9 6.2,6.2 13.8,9 22.9,9 h 87.1 c 5.2,0 9.4,4.2 9.3,9.4 v 0 0 c 0.1,5.5 -4.4,10 -10,10 z"
   id="path3" />
		<path
   class="st1"
   d="m 645.7,26.3 h 99.1 v 22.9 h -99.1 c -8.3,0 -15.2,2.7 -21.5,9 -6.2,6.2 -9,13.2 -9,21.5 0,8.3 2.8,15.2 9,21.5 6.3,6.2 13.2,9 21.5,9 h 99.1 v 23.6 h -99 c -14.5,0 -27.1,-5.6 -37.5,-16 -10.4,-10.4 -15.2,-22.9 -15.2,-37.4 0,-14.5 4.8,-27 15.2,-37.4 10.4,-11.1 22.9,-16.7 37.4,-16.7 z"
   id="path4" />
		<path
   class="st1"
   d="M 338.1,69.5 242.5,69.3 V 49.9 l 96.6,-0.2 c 5.2,0 9.4,4.2 9.5,9.4 v 0 0 c -0.1,5.7 -4.8,10.4 -10.5,10.4 z m 34,64.2 -30.5,-42.3 c 8.3,-0.7 15.2,-3.5 20.8,-9.7 6.2,-6.3 9.7,-13.9 9.7,-22.9 0,-9 -3.5,-16.6 -9.7,-22.9 -6.2,-6.3 -13.9,-9.7 -22.9,-9.7 H 219.6 v 107.4 h 22.9 V 91.3 h 70.7 l 30.5,42.3 h 28.4 z"
   id="path5" />
		<polyline
   class="st0"
   points="859.1,133.7 796.3,26.3 823.2,26.3 872.3,111.5 921.3,26.3 947.8,26.3 885.4,133.7   "
   id="polyline5" />
		<rect
   x="758.70001"
   y="70"
   class="st0"
   width="45"
   height="20.799999"
   id="rect5" />
	</g>
	<g
   id="g6">
		<path
   class="st1"
   d="m 991.8,43.4 c 0,9.3 -7.3,16.7 -16.9,16.7 -9.4,0 -17,-7.3 -17,-16.7 0,-9.1 7.5,-16.5 17,-16.5 9.5,0.1 16.9,7.4 16.9,16.5 z m -29.7,0 c 0,7.3 5.4,13.2 12.9,13.2 7.2,0 12.6,-5.8 12.6,-13.1 0,-7.3 -5.3,-13.3 -12.7,-13.3 -7.4,0.1 -12.8,6 -12.8,13.2 z m 10.2,8.7 h -3.8 V 35.6 c 1.5,-0.3 3.6,-0.5 6.3,-0.5 3.1,0 4.5,0.5 5.7,1.2 0.9,0.7 1.6,2 1.6,3.6 0,1.8 -1.4,3.2 -3.4,3.8 V 44 c 1.6,0.6 2.5,1.8 3,4 0.5,2.5 0.8,3.5 1.2,4.1 h -4.1 c -0.5,-0.6 -0.8,-2.1 -1.3,-4 -0.3,-1.8 -1.3,-2.6 -3.4,-2.6 h -1.8 z m 0.1,-9.4 h 1.8 c 2.1,0 3.8,-0.7 3.8,-2.4 0,-1.5 -1.1,-2.5 -3.5,-2.5 -1,0 -1.7,0.1 -2.1,0.2 z"
   id="path6" />
	</g>
</g>
</svg>
