<svg width="58" height="13" viewBox="0 0 58 13" fill="none" xmlns="http://www.w3.org/2000/svg">
<path d="M0.953125 0.941406V0.185547H7.31055V0.941406H0.953125Z" fill="black"/>
<path d="M10.293 10L7.27539 1.38086H8.10742L11.1309 10H10.293Z" fill="black"/>
<path d="M11.5117 11.4883V10.7324H17.8691V11.4883H11.5117Z" fill="black"/>
<path d="M21.4727 1.35742V1.84375C20.6992 2.96094 20.3125 4.5918 20.3125 6.73633C20.3125 9.2832 20.6992 11.002 21.4727 11.8926V12.5078C20.6836 11.957 20.0703 11.166 19.6328 10.1348C19.1992 9.10742 18.9824 7.9707 18.9824 6.72461C18.9824 5.66211 19.2305 4.58984 19.7266 3.50781C20.2227 2.42188 20.8047 1.70508 21.4727 1.35742Z" fill="black"/>
<path d="M27.7298 0.976L26.8058 1.288C27.1058 1.912 27.7898 3.772 27.9818 4.456L28.9178 4.132C28.7138 3.46 27.9938 1.552 27.7298 0.976ZM33.0578 1.744L31.9538 1.432C31.7138 3.232 30.9818 5.152 30.0338 6.364C28.8218 7.9 27.0338 9.052 25.3178 9.556L26.1458 10.396C27.8378 9.796 29.6138 8.56 30.8498 6.928C31.8338 5.632 32.4818 3.916 32.8418 2.428C32.8898 2.236 32.9738 1.948 33.0578 1.744ZM24.3818 1.696L23.4338 2.044C23.7218 2.56 24.5498 4.588 24.7778 5.332L25.7258 4.984C25.4498 4.204 24.6938 2.368 24.3818 1.696Z" fill="black"/>
<path d="M35.3887 12.5078V11.8926C36.1621 11.002 36.5488 9.2832 36.5488 6.73633C36.5488 4.5918 36.1621 2.96094 35.3887 1.84375V1.35742C36.0566 1.70508 36.6387 2.42188 37.1348 3.50781C37.6309 4.58984 37.8789 5.66211 37.8789 6.72461C37.8789 7.9707 37.6602 9.10742 37.2227 10.1348C36.7891 11.166 36.1777 11.957 35.3887 12.5078Z" fill="black"/>
<path d="M38.6172 11.4883V10.7324H44.9746V11.4883H38.6172Z" fill="black"/>
<path d="M47.0078 10H46.0645L49.1758 1.38086H50.1074L47.0078 10Z" fill="black"/>
<path d="M51.2031 0.941406V0.185547H57.5605V0.941406H51.2031Z" fill="black"/>
</svg>
