<?xml version="1.0" encoding="UTF-8" standalone="no"?>
<!DOCTYPE svg PUBLIC "-//W3C//DTD SVG 1.1//EN" "http://www.w3.org/Graphics/SVG/1.1/DTD/svg11.dtd">
<svg width="100%" height="100%" viewBox="0 0 127 48" version="1.1" xmlns="http://www.w3.org/2000/svg" xmlns:xlink="http://www.w3.org/1999/xlink" xml:space="preserve" xmlns:serif="http://www.serif.com/" style="fill-rule:evenodd;clip-rule:evenodd;stroke-linejoin:round;stroke-miterlimit:2;">
    <g transform="matrix(0.0677099,0,0,0.0677099,31.0669,5.77053)">
        <path d="M883.3,315.3C878.4,323.1 872.6,330.1 866.5,337C841.6,365.3 812.2,388.2 780.3,408C768.2,415.5 755.8,422.5 743.2,429C714.7,443.8 685.2,456.1 654.9,466.7C623.3,477.8 591,486.6 558.2,493.7C539.5,497.7 520.6,501.1 501.7,503.8C485,506.2 468.2,508.3 451.4,509.8C441.2,510.7 431,511.5 420.8,512C415,512.3 409.2,512.4 403.4,512.7C391.4,513.4 379.4,513.5 367.4,513.4C355.7,513.2 343.9,513 332.2,512.4C317.4,511.6 302.6,510.5 287.9,508.7C267.3,506.3 246.8,503.1 226.5,498.9C204.8,494.3 183.4,488.7 162.5,481.4C132.3,471 103.5,457.8 77,439.8C66.3,432.5 56.1,424.4 46.7,415.4C35.2,404.4 25.2,392.2 17.2,378.4C8.2,363 2.4,346.4 0.1,328.6C-0.5,323.6 -1,318.5 -1,313.5C-0.9,301.6 0.5,289.9 3.6,278.4C10.3,253.6 22.6,231.8 38.4,211.8C56.9,188.3 78.9,168.5 102.9,150.8C120.9,137.6 139.8,125.8 159.3,115.1C188.1,99.4 218.1,86.2 249,75C272.5,66.5 296.3,59.2 320.5,52.9C346.8,46 373.4,40.6 400.3,36.2C416.2,33.6 432.3,31.5 448.4,29.9C460.2,28.7 472,27.6 483.8,26.9C494.5,26.2 505.3,25.9 516,25.4C529.7,24.8 543.5,25.1 557.3,25.1C566.9,25.1 576.6,25.7 586.2,26.3C596.9,27 607.6,27.7 618.3,28.8C633.2,30.3 648,32.2 662.7,34.8C686.2,38.8 709.5,44 732.4,50.9C754.5,57.5 776,65.5 796.7,75.6C817.1,85.4 836.3,97 853.9,111.3C871.6,125.6 886.6,142.1 897.9,162C906.5,177.3 912,193.5 914,211C914.8,217.4 914.6,223.8 914.7,230.3C914.1,230.5 913.5,230.5 913,230C913.2,223.8 913.2,217.7 912.5,211.5C910.3,193.5 903.8,177.1 893.9,161.9C884,146.6 871.4,133.8 857.2,122.4C838.2,107.2 817.3,95.4 795.2,85.4C771.3,74.6 746.4,66.5 721,60C702.8,55.4 684.4,51.7 665.8,48.9C654.3,47.1 642.8,45.6 631.3,44.5C621.1,43.5 610.9,42.7 600.7,42.1C591.1,41.5 581.5,40.9 571.8,40.8C551.8,40.6 531.7,40.6 511.7,41.9C501.2,42.6 490.8,43.2 480.3,44.1C463.1,45.6 445.9,47.7 428.9,50.3C409.6,53.2 390.4,56.8 371.4,61.2C344.6,67.3 318.3,74.8 292.4,83.9C272.6,90.9 253.1,98.8 234.1,107.8C211.3,118.7 189.3,131 168.6,145.5C147.9,160.1 128.7,176.4 112.4,195.9C98.8,212.2 87.8,229.9 81.3,250.3C76,266.7 74.3,283.4 76.6,300.4C78.9,317.6 85.2,333.3 94.6,347.9C105.5,364.8 119.7,378.8 135.6,391C152,403.6 170,413.9 188.7,422.7C206.7,431.1 225.2,438 244.1,443.8C261.6,449.2 279.4,453.5 297.3,457.1C316,460.8 334.7,463.6 353.7,465.6C362.3,466.5 370.9,467.1 379.5,467.9C390.8,468.9 402.2,469.5 413.5,469.7C435.1,470 456.8,470.2 478.5,468.7C485.9,468.2 493.3,467.7 500.7,467.2C513,466.3 525.3,464.9 537.5,463.5C555.7,461.3 573.7,458.5 591.6,455C625.3,448.4 658.6,439.9 691.1,428.7C718.6,419.2 745.4,408.1 771.3,394.8C794.2,382.9 816.1,369.4 836.4,353.5C851.9,341.3 866.3,328 878.6,312.5C880.1,312.9 881.7,314.1 883.3,315.3" style="fill:rgb(156,163,175);fill-rule:nonzero;"/>
        <path d="M160.6,212.5L160.6,249.7L157.7,249.7C156.8,242.6 155,236.9 152.6,232.7C150.1,228.5 146.6,225.1 142.1,222.6C137.6,220.1 132.9,218.9 128,218.9C122.5,218.9 118,220.6 114.4,223.9C110.8,227.3 109,231.1 109,235.3C109,238.6 110.1,241.6 112.4,244.3C115.7,248.3 123.5,253.5 135.8,260.2C145.8,265.6 152.7,269.7 156.4,272.6C160.1,275.5 162.9,278.9 164.9,282.8C166.9,286.7 167.9,290.8 167.9,295.1C167.9,303.2 164.7,310.3 158.4,316.1C152.1,322 144,324.9 134,324.9C130.9,324.9 127.9,324.7 125.2,324.2C123.6,323.9 120.2,323 115,321.3C109.8,319.6 106.6,318.8 105.2,318.8C103.9,318.8 102.8,319.2 102.1,320C101.3,320.8 100.8,322.4 100.4,324.9L97.5,324.9L97.5,288L100.4,288C101.8,295.7 103.6,301.5 105.9,305.3C108.2,309.1 111.8,312.3 116.6,314.9C121.4,317.4 126.6,318.7 132.3,318.7C138.9,318.7 144.1,317 148,313.5C151.8,310 153.7,305.9 153.7,301.2C153.7,298.6 153,295.9 151.5,293.2C150,290.5 147.8,288 144.7,285.7C142.6,284.1 137,280.7 127.8,275.6C118.6,270.4 112.1,266.3 108.2,263.3C104.3,260.2 101.4,256.9 99.4,253.2C97.4,249.5 96.4,245.4 96.4,241C96.4,233.3 99.4,226.6 105.3,221.1C111.2,215.5 118.7,212.7 127.9,212.7C133.6,212.7 139.7,214.1 146,216.9C149,218.2 151,218.9 152.3,218.9C153.7,218.9 154.8,218.5 155.7,217.7C156.6,216.9 157.3,215.2 157.8,212.7L160.6,212.5" style="fill:rgb(156,163,175);fill-rule:nonzero;"/>
        <path d="M238.4,238.9L238.4,236.5L269,236.5L269,238.9L265.8,238.9C262.4,238.9 259.8,240.3 258,243.2C257.1,244.5 256.7,247.6 256.7,252.4L256.7,287.4C256.7,296.1 255.8,302.8 254.1,307.5C252.4,312.3 249,316.4 244,319.8C239,323.2 232.1,324.9 223.5,324.9C214.1,324.9 206.9,323.3 202,320C197.1,316.7 193.7,312.3 191.6,306.8C190.2,303 189.6,295.9 189.6,285.5L189.6,251.8C189.6,246.5 188.9,243 187.4,241.4C185.9,239.7 183.6,238.9 180.3,238.9L177,238.9L177,236.5L214.3,236.5L214.3,238.9L211,238.9C207.4,238.9 204.9,240 203.4,242.3C202.3,243.8 201.8,247 201.8,251.8L201.8,289.4C201.8,292.8 202.1,296.6 202.7,300.9C203.3,305.2 204.4,308.6 206,311C207.6,313.4 209.9,315.4 213,317C216,318.6 219.8,319.4 224.2,319.4C229.8,319.4 234.9,318.2 239.4,315.7C243.9,313.2 246.9,310.1 248.5,306.2C250.1,302.4 250.9,295.9 250.9,286.7L250.9,251.7C250.9,246.3 250.3,242.9 249.1,241.6C247.4,239.7 245,238.8 241.7,238.8L238.4,238.9" style="fill:rgb(156,163,175);fill-rule:nonzero;"/>
        <path d="M299.7,282.5L299.7,307.6C299.7,313 300.3,316.4 301.5,317.7C303.1,319.6 305.6,320.5 308.8,320.5L312.1,320.5L312.1,322.9L275.1,322.9L275.1,320.5L278.3,320.5C282,320.5 284.6,319.3 286.1,316.9C287,315.6 287.4,312.5 287.4,307.5L287.4,251.7C287.4,246.3 286.8,242.9 285.7,241.6C284,239.7 281.6,238.8 278.3,238.8L275.1,238.8L275.1,236.4L306.7,236.4C314.4,236.4 320.5,237.2 325,238.8C329.5,240.4 333.2,243.1 336.3,246.9C339.4,250.7 340.9,255.2 340.9,260.3C340.9,267.3 338.6,273.1 333.9,277.5C329.3,281.9 322.7,284.1 314.2,284.1C312.1,284.1 309.9,284 307.5,283.7C305,283.5 302.4,283.1 299.7,282.5M299.7,278.9C301.9,279.3 303.9,279.6 305.7,279.9C307.4,280.1 308.9,280.2 310.2,280.2C314.6,280.2 318.4,278.5 321.6,275.1C324.8,271.7 326.4,267.3 326.4,261.8C326.4,258.1 325.6,254.6 324.1,251.4C322.6,248.2 320.4,245.8 317.6,244.2C314.8,242.6 311.6,241.8 308.1,241.8C305.9,241.8 303.2,242.2 299.8,243L299.7,278.9Z" style="fill:rgb(156,163,175);fill-rule:nonzero;"/>
        <path d="M375.3,241.3L375.3,275.4L394.3,275.4C399.2,275.4 402.5,274.7 404.2,273.2C406.4,271.2 407.6,267.8 407.9,262.9L410.3,262.9L410.3,292.9L407.9,292.9C407.3,288.7 406.7,286 406.1,284.8C405.3,283.3 404.1,282.2 402.3,281.3C400.6,280.4 397.9,280 394.3,280L375.3,280L375.3,308.5C375.3,312.3 375.5,314.6 375.8,315.5C376.1,316.3 376.7,317 377.6,317.5C378.4,318 380.1,318.2 382.4,318.2L397,318.2C401.9,318.2 405.4,317.9 407.6,317.2C409.8,316.5 411.9,315.2 414,313.2C416.6,310.6 419.3,306.6 422.1,301.3L424.6,301.3L417.2,322.9L350.7,322.9L350.7,320.5L353.8,320.5C355.8,320.5 357.8,320 359.6,319C361,318.3 361.9,317.3 362.4,315.9C362.9,314.5 363.1,311.8 363.1,307.6L363.1,251.5C363.1,246 362.5,242.7 361.4,241.4C359.9,239.7 357.3,238.9 353.8,238.9L350.7,238.9L350.7,236.5L417.2,236.5L418.2,255.4L415.7,255.4C414.8,250.9 413.8,247.7 412.7,246C411.6,244.3 410,243 407.9,242.1C406.2,241.5 403.2,241.1 398.9,241.1L375.3,241.3Z" style="fill:rgb(156,163,175);fill-rule:nonzero;"/>
        <path d="M518.4,322.9L495.4,322.9L466.2,282.5C464,282.6 462.3,282.6 460.9,282.6L459.1,282.6C458.5,282.6 457.8,282.5 457.1,282.5L457.1,307.6C457.1,313 457.7,316.4 458.9,317.7C460.5,319.6 462.9,320.5 466.2,320.5L469.6,320.5L469.6,322.9L432.6,322.9L432.6,320.5L435.8,320.5C439.4,320.5 442.1,319.3 443.6,316.9C444.5,315.6 444.9,312.5 444.9,307.5L444.9,251.7C444.9,246.3 444.3,242.9 443.1,241.6C441.4,239.7 439,238.8 435.7,238.8L432.5,238.8L432.5,236.4L464,236.4C473.2,236.4 479.9,237.1 484.3,238.4C488.6,239.7 492.3,242.2 495.4,245.8C498.4,249.4 500,253.7 500,258.6C500,263.9 498.3,268.5 494.8,272.4C491.3,276.3 486,279.1 478.7,280.7L496.5,305.5C500.6,311.2 504.1,315 507,316.8C509.9,318.7 513.7,319.9 518.5,320.4L518.4,322.9M457.1,278.6L460.7,278.6C468.9,278.6 475.1,276.8 479.3,273.3C483.5,269.7 485.6,265.2 485.6,259.7C485.6,254.3 483.9,249.9 480.5,246.6C477.1,243.2 472.7,241.5 467.1,241.5C464.6,241.5 461.3,241.9 457.1,242.7L457.1,278.6" style="fill:rgb(156,163,175);fill-rule:nonzero;"/>
        <path d="M573.2,322.9L539.8,250.3L539.8,308C539.8,313.3 540.4,316.6 541.5,317.9C543.1,319.7 545.6,320.6 548.9,320.6L552,320.6L552,323L522,323L522,320.6L525.1,320.6C528.7,320.6 531.3,319.5 532.9,317.3C533.8,315.9 534.3,312.8 534.3,308L534.3,251.6C534.3,247.8 533.9,245 533,243.3C532.4,242.1 531.3,241 529.7,240.2C528.1,239.4 525.6,239 522,239L522,236.6L546.4,236.6L577.7,304.1L608.5,236.6L632.9,236.6L632.9,239L629.9,239C626.2,239 623.6,240.1 622.1,242.3C621.2,243.7 620.7,246.8 620.7,251.6L620.7,308C620.7,313.3 621.3,316.6 622.5,317.9C624.1,319.7 626.6,320.6 629.9,320.6L632.9,320.6L632.9,323L596.2,323L596.2,320.6L599.3,320.6C603,320.6 605.6,319.5 607.1,317.3C608,315.9 608.5,312.8 608.5,308L608.5,250.3L575.2,322.9L573.2,322.9" style="fill:rgb(156,163,175);fill-rule:nonzero;"/>
        <path d="M678.6,320.5L678.6,322.9L641.6,322.9L641.6,320.5L644.7,320.5C648.3,320.5 650.9,319.5 652.5,317.4C653.5,316 654,312.8 654,307.6L654,251.8C654,247.4 653.7,244.5 653.2,243.1C652.8,242 651.9,241.1 650.6,240.4C648.7,239.4 646.8,238.9 644.7,238.9L641.6,238.9L641.6,236.5L678.6,236.5L678.6,238.9L675.5,238.9C672,238.9 669.4,239.9 667.8,242C666.7,243.4 666.2,246.6 666.2,251.8L666.2,307.6C666.2,312 666.5,314.9 667,316.3C667.4,317.4 668.3,318.3 669.7,319C671.5,320 673.5,320.5 675.5,320.5L678.6,320.5" style="fill:rgb(156,163,175);fill-rule:nonzero;"/>
        <path d="M762.9,234.6L764.9,263.9L762.9,263.9C760.3,255.1 756.5,248.8 751.6,244.9C746.7,241 740.9,239.1 734,239.1C728.3,239.1 723.1,240.6 718.5,243.5C713.9,246.4 710.2,251 707.6,257.4C704.9,263.8 703.6,271.7 703.6,281.1C703.6,288.9 704.9,295.7 707.4,301.4C709.9,307.1 713.7,311.5 718.7,314.6C723.7,317.7 729.5,319.2 735.9,319.2C741.5,319.2 746.4,318 750.7,315.6C755,313.2 759.7,308.4 764.8,301.3L766.8,302.6C762.5,310.3 757.4,315.9 751.6,319.5C745.8,323.1 739,324.8 731,324.8C716.7,324.8 705.6,319.5 697.8,308.9C691.9,301 689,291.7 689,281C689,272.4 690.9,264.5 694.8,257.3C698.7,250.1 704,244.5 710.7,240.5C717.5,236.5 724.9,234.5 732.9,234.5C739.1,234.5 745.3,236 751.4,239.1C753.2,240 754.5,240.5 755.2,240.5C756.3,240.5 757.3,240.1 758.2,239.3C759.3,238.2 760.1,236.6 760.6,234.5L762.9,234.5" style="fill:rgb(156,163,175);fill-rule:nonzero;"/>
        <path d="M862.1,322.9L839.1,322.9L809.9,282.5C807.7,282.6 806,282.6 804.6,282.6L802.8,282.6C802.2,282.6 801.5,282.5 800.8,282.5L800.8,307.6C800.8,313 801.4,316.4 802.6,317.7C804.2,319.6 806.6,320.5 809.9,320.5L813.3,320.5L813.3,322.9L776.3,322.9L776.3,320.5L779.5,320.5C783.2,320.5 785.8,319.3 787.3,316.9C788.2,315.6 788.6,312.5 788.6,307.5L788.6,251.7C788.6,246.3 788,242.9 786.8,241.6C785.1,239.7 782.7,238.8 779.4,238.8L776.2,238.8L776.2,236.4L807.6,236.4C816.8,236.4 823.5,237.1 827.9,238.4C832.2,239.7 835.9,242.2 839,245.8C842,249.4 843.6,253.7 843.6,258.6C843.6,263.9 841.9,268.5 838.4,272.4C834.9,276.3 829.6,279.1 822.3,280.7L840.1,305.5C844.2,311.2 847.7,315 850.6,316.8C853.5,318.7 857.3,319.9 862.1,320.4L862.1,322.9ZM800.8,278.5L804.4,278.5C812.6,278.5 818.8,276.7 823,273.2C827.2,269.6 829.3,265.1 829.3,259.6C829.3,254.2 827.6,249.8 824.2,246.5C820.8,243.1 816.4,241.4 810.8,241.4C808.3,241.4 805,241.8 800.8,242.6L800.8,278.5Z" style="fill:rgb(156,163,175);fill-rule:nonzero;"/>
        <circle cx="911.1" cy="276.9" r="47.9" style="fill:rgb(156,163,175);"/>
    </g>
</svg>
