<?xml version="1.0" encoding="UTF-8" standalone="no"?>
<!DOCTYPE svg PUBLIC "-//W3C//DTD SVG 1.1//EN" "http://www.w3.org/Graphics/SVG/1.1/DTD/svg11.dtd">
<svg width="100%" height="100%" viewBox="0 0 127 48" version="1.1" xmlns="http://www.w3.org/2000/svg" xmlns:xlink="http://www.w3.org/1999/xlink" xml:space="preserve" xmlns:serif="http://www.serif.com/" style="fill-rule:evenodd;clip-rule:evenodd;stroke-linejoin:round;stroke-miterlimit:2;">
    <g transform="matrix(0.841073,0,0,-0.841073,-253.755,262.694)">
        <g>
            <g transform="matrix(1,0,0,1,388.3,250.9)">
                <path d="M-21.72,23.2L-28.291,41.5C-28.375,41.753 -28.5,42.087 -28.5,42.38C-28.5,43.173 -27.83,43.926 -26.87,43.926C-26.032,43.926 -25.486,43.382 -25.236,42.589L-19.791,26.819L-14.307,42.629C-14.057,43.379 -13.554,43.923 -12.721,43.923L-12.551,43.923C-11.67,43.923 -11.126,43.379 -10.876,42.629L-5.437,26.819L0.094,42.669C0.303,43.342 0.76,43.924 1.642,43.924C2.562,43.924 3.233,43.216 3.233,42.419C3.233,42.127 3.106,41.794 3.024,41.539L-3.589,23.199C-3.927,22.241 -4.594,21.738 -5.349,21.738L-5.474,21.738C-6.312,21.738 -6.941,22.241 -7.236,23.199L-12.633,38.749L-18.077,23.199C-18.37,22.241 -19,21.738 -19.835,21.738L-19.923,21.738C-20.716,21.738 -21.383,22.241 -21.72,23.199" style="fill:rgb(156,163,175);fill-rule:nonzero;"/>
            </g>
            <g transform="matrix(1,0,0,1,436.2,270)">
                <path d="M-21.72,23.2C-21.72,24.083 -21.008,24.837 -20.129,24.837C-19.202,24.837 -18.492,24.124 -18.492,23.2L-18.492,19.487C-16.9,23.093 -13.369,24.795 -11.029,24.795C-10.06,24.795 -9.431,24.083 -9.431,23.161C-9.431,22.279 -10.015,21.653 -10.861,21.527C-15.056,21.024 -18.491,17.877 -18.491,11.627L-18.491,4.274C-18.491,3.393 -19.161,2.64 -20.083,2.64C-21.006,2.64 -21.719,3.356 -21.719,4.274L-21.72,23.204L-21.72,23.2Z" style="fill:rgb(156,163,175);fill-rule:nonzero;"/>
            </g>
            <g transform="matrix(1,0,0,1,458.9,249.2)">
                <path d="M-21.72,23.2C-27.557,23.2 -32.32,27.727 -32.32,34.37L-32.32,34.456C-32.32,40.639 -28.004,45.616 -22.13,45.616C-15.847,45.616 -12.269,40.432 -12.269,34.746C-12.269,33.872 -12.974,33.247 -13.75,33.247L-29.11,33.247C-28.662,28.602 -25.418,25.988 -21.633,25.988C-19.002,25.988 -17.077,27.026 -15.513,28.479C-15.266,28.684 -14.979,28.85 -14.607,28.85C-13.829,28.85 -13.21,28.227 -13.21,27.477C-13.21,27.105 -13.374,26.73 -13.707,26.443C-15.718,24.494 -18.104,23.203 -21.717,23.203M-15.431,35.613C-15.761,39.518 -17.981,42.918 -22.214,42.918C-25.912,42.918 -28.706,39.807 -29.112,35.613L-15.431,35.613Z" style="fill:rgb(156,163,175);fill-rule:nonzero;"/>
            </g>
            <g transform="matrix(1,0,0,1,413.4,255.9)">
                <path d="M-21.72,23.2L-21.72,23.284C-21.72,27.84 -17.956,30.268 -12.481,30.268C-9.72,30.268 -7.756,29.892 -5.829,29.345L-5.829,30.101C-5.829,33.986 -8.219,35.996 -12.27,35.996C-14.445,35.996 -15.711,35.719 -17.303,35.01C-17.509,34.926 -17.72,34.883 -17.883,34.883C-18.636,34.883 -19.308,35.512 -19.308,36.263C-19.308,36.93 -19.017,37.343 -18.428,37.604C-16.299,38.528 -14.694,38.835 -11.936,38.835C-8.886,38.835 -6.544,38.043 -4.958,36.453C-3.492,34.99 -2.739,32.9 -2.739,30.139L-2.739,18.209C-2.739,17.292 -3.408,16.621 -4.291,16.621C-5.207,16.621 -5.828,17.291 -5.828,18.126L-5.828,20.188C-7.336,18.219 -9.847,16.466 -13.644,16.466C-17.66,16.469 -21.72,18.766 -21.72,23.198M-5.79,24.871L-5.79,26.962C-7.382,27.421 -9.517,27.882 -12.149,27.882C-16.199,27.882 -18.46,26.124 -18.46,23.409L-18.46,23.326C-18.46,20.609 -15.954,19.02 -13.024,19.02C-9.054,19.02 -5.79,21.446 -5.79,24.871" style="fill:rgb(156,163,175);fill-rule:nonzero;"/>
            </g>
            <g transform="matrix(1,0,0,1,329.8,270.2)">
                <path d="M-21.72,23.2C-22.428,24.752 -24.178,25.455 -25.812,24.729C-27.448,24.002 -28.05,22.188 -27.311,20.635L-20.45,5.725C-19.371,3.388 -18.234,2.163 -16.1,2.163C-13.82,2.163 -12.826,3.497 -11.748,5.725C-11.748,5.725 -5.764,18.755 -5.704,18.895C-5.643,19.033 -5.451,19.454 -4.842,19.45C-4.327,19.447 -3.894,19.036 -3.894,18.484L-3.894,5.744C-3.894,3.78 -2.805,2.169 -0.709,2.169C1.385,2.169 2.517,3.78 2.517,5.744L2.517,16.174C2.517,18.185 3.958,19.49 5.922,19.49C7.886,19.49 9.193,18.138 9.193,16.174L9.193,5.744C9.193,3.78 10.286,2.169 12.378,2.169C14.472,2.169 15.61,3.78 15.61,5.744L15.61,16.174C15.61,18.185 17.045,19.49 19.01,19.49C20.971,19.49 22.283,18.138 22.283,16.174L22.283,5.744C22.283,3.78 23.375,2.169 25.469,2.169C27.562,2.169 28.698,3.78 28.698,5.744L28.698,17.614C28.698,21.975 25.191,25.03 20.971,25.03C16.756,25.03 14.116,22.114 14.116,22.114C12.713,23.933 10.779,25.026 7.506,25.026C4.052,25.026 1.029,22.114 1.029,22.114C-0.375,23.933 -2.765,25.026 -4.744,25.026C-7.805,25.026 -10.236,23.68 -11.719,20.289L-16.1,9.959L-21.72,23.2Z" style="fill:rgb(156,163,175);fill-rule:nonzero;"/>
            </g>
            <g transform="matrix(1,0,0,1,468.6,268.9)">
                <path d="M-21.72,23.2L-21.72,23.218C-21.72,24.677 -20.536,25.906 -19.048,25.906C-17.539,25.906 -16.371,24.69 -16.371,23.229L-16.371,23.218C-16.371,21.754 -17.552,20.525 -19.048,20.525C-20.557,20.525 -21.72,21.737 -21.72,23.2M-16.885,23.218L-16.885,23.225C-16.885,24.425 -17.812,25.409 -19.048,25.409C-20.273,25.409 -21.214,24.408 -21.214,23.218L-21.214,23.204C-21.214,22.007 -20.284,21.023 -19.048,21.023C-17.827,21.023 -16.885,22.022 -16.885,23.218" style="fill:rgb(156,163,175);fill-rule:nonzero;"/>
            </g>
            <g transform="matrix(1,0,0,1,470.3,270)">
                <path d="M-21.72,23.2C-21.72,23.359 -21.593,23.486 -21.432,23.486L-20.54,23.486C-20.204,23.486 -19.945,23.391 -19.784,23.221C-19.637,23.078 -19.557,22.871 -19.557,22.631L-19.557,22.623C-19.557,22.215 -19.763,21.966 -20.074,21.835L-19.68,21.355C-19.625,21.283 -19.588,21.224 -19.588,21.136C-19.588,20.978 -19.722,20.874 -19.858,20.874C-19.985,20.874 -20.071,20.939 -20.138,21.021L-20.693,21.723L-21.148,21.723L-21.148,21.159C-21.148,21 -21.271,20.875 -21.431,20.875C-21.592,20.875 -21.719,21.001 -21.719,21.159L-21.719,23.2L-21.72,23.2ZM-20.572,22.228C-20.294,22.228 -20.141,22.373 -20.141,22.594L-20.141,22.603C-20.141,22.844 -20.305,22.974 -20.582,22.974L-21.151,22.974L-21.151,22.229L-20.572,22.229L-20.572,22.228Z" style="fill:rgb(156,163,175);fill-rule:nonzero;"/>
            </g>
        </g>
    </g>
</svg>
